<?xml version="1.0" encoding="UTF-8" standalone="no"?>
<svg
   xmlns:dc="http://purl.org/dc/elements/1.1/"
   xmlns:cc="http://creativecommons.org/ns#"
   xmlns:rdf="http://www.w3.org/1999/02/22-rdf-syntax-ns#"
   xmlns:svg="http://www.w3.org/2000/svg"
   xmlns="http://www.w3.org/2000/svg"
   xmlns:sodipodi="http://sodipodi.sourceforge.net/DTD/sodipodi-0.dtd"
   xmlns:inkscape="http://www.inkscape.org/namespaces/inkscape"
   width="180"
   height="180"
   id="svg2"
   version="1.1"
   inkscape:version="0.91 r13725"
   sodipodi:docname="quran-1.svg"
   inkscape:export-filename="/Users/ovais/Sites/preact/assets/images/icons/icon-1024x1024.png"
   inkscape:export-xdpi="512"
   inkscape:export-ydpi="512">
  <defs
     id="defs15" />
  <sodipodi:namedview
     pagecolor="#ffffff"
     bordercolor="#666666"
     borderopacity="1"
     objecttolerance="10"
     gridtolerance="10"
     guidetolerance="10"
     inkscape:pageopacity="0"
     inkscape:pageshadow="2"
     inkscape:window-width="1280"
     inkscape:window-height="755"
     id="namedview13"
     showgrid="false"
     inkscape:zoom="1.3346448"
     inkscape:cx="-8.4285241"
     inkscape:cy="88.41304"
     inkscape:window-x="0"
     inkscape:window-y="1"
     inkscape:window-maximized="1"
     inkscape:current-layer="layer1" />
  <title
     id="title4">afga</title>
  <metadata
     id="metadata7">image/svg+xmlThe holy quraanThe holy quraan blessed glorious islam islamic muslim religion religious<rdf:RDF>
  <cc:Work
     rdf:about="">
    <dc:format>image/svg+xml</dc:format>
    <dc:type
       rdf:resource="http://purl.org/dc/dcmitype/StillImage" />
    <dc:title>afga</dc:title>
  </cc:Work>
</rdf:RDF>
</metadata>
  <g
     id="layer1"
     transform="translate(0,3.1739197)">
    <rect
       style="opacity:1;fill:#412914;fill-opacity:1"
       id="rect4256"
       width="180"
       height="180"
       x="0"
       y="-3.1739197" />
    <path
       style="fill:#d4aa00"
       inkscape:connector-curvature="0"
       d="m 88.397273,167.10293 c -4.834032,-1.87874 -7.364932,-8.94422 -5.553658,-15.50409 1.007303,-3.64813 0.14033,-4.24254 -3.021082,-2.07134 -0.976397,0.67055 -5.217757,2.38623 -9.42526,3.81259 -10.404506,3.52719 -20.181421,3.66528 -26.06517,0.3682 -7.519517,-4.21378 -10.217196,-11.47165 -8.244089,-22.1801 0.573658,-3.11336 1.310346,-6.38276 1.637062,-7.26529 0.327836,-0.88552 -1.269206,0.0958 -3.563683,2.18987 -4.476414,4.08536 -7.463864,5.27699 -11.002736,4.3888 -6.442489,-1.61697 -8.023968,-13.93934 -3.225655,-25.13335 1.593344,-3.7171 1.592256,-3.88945 -0.0373,-5.901871 -4.943339,-6.104778 -4.194477,-14.211644 2.37818,-25.745173 4.469156,-7.842344 4.707704,-8.16861 5.438366,-7.437937 0.283231,0.283255 -0.501193,2.124673 -1.743163,4.092078 -2.707869,4.289556 -6.420297,12.99592 -7.303179,17.127411 -0.973385,4.554986 0.905456,8.265564 4.185252,8.265564 1.449533,0 3.852741,-0.629462 5.340475,-1.398807 2.680427,-1.38609 11.964825,-9.291659 21.505645,-18.311819 l 4.95,-4.679874 -3.15,-2.625953 c -1.7325,-1.444317 -7.194395,-5.384482 -12.137545,-8.755966 -9.90217,-6.753845 -11.249712,-8.72026 -9.852337,-14.377423 0.782381,-3.167386 1.440074,-3.70492 9.606356,-7.851242 l 8.766479,-4.451056 -1.879163,-2.000281 c -1.430272,-1.522458 -1.736901,-2.64798 -1.283625,-4.711734 0.327543,-1.491312 1.077704,-3.111657 1.667018,-3.600741 C 49.831204,20.482858 85.183298,7.994314 86.397363,9.2083861 87.373883,10.184878 85.306338,11.196939 75.347273,14.617395 64.310566,18.40798 47.832619,24.896369 46.73323,25.884534 c -0.392723,0.353018 0.01228,2.021511 0.9,3.707776 0.887723,1.686291 1.668706,3.188122 1.735524,3.337454 0.06682,0.149304 5.534315,-1.561131 12.15,-3.800996 15.612465,-5.285852 35.769672,-10.420477 40.908146,-10.420477 3.14577,0 4.56664,0.514435 6.35209,2.299878 1.95406,1.954056 2.20717,2.799866 1.68329,5.625 -0.71511,3.856366 -3.74643,8.137931 -8.94308,12.631531 -2.019554,1.746359 -6.460292,6.036823 -9.868285,9.534375 l -6.196344,6.359216 2.294357,-4.5 c 2.752158,-5.397885 6.393659,-9.383862 13.923342,-15.240426 3.09375,-2.406309 5.625,-4.922864 5.625,-5.592344 0,-2.677862 -3.49825,-4.817258 -7.874997,-4.816076 -8.915048,0.0024 -35.192539,7.7586 -54.675,16.138092 -14.262228,6.134243 -14.557338,6.46658 -8.47783,9.547311 5.741802,2.909592 23.130512,13.538425 25.338071,15.487866 1.408111,1.243488 2.012129,1.190012 6.195015,-0.5483 2.549123,-1.059384 5.235486,-1.926123 5.969682,-1.926123 0.993164,0 1.19032,-0.633609 0.770128,-2.475 -0.310625,-1.361261 -1.128598,-5.917511 -1.817722,-10.125 -0.689117,-4.207516 -1.488462,-8.6625 -1.776317,-9.9 -0.287855,-1.2375 -0.211679,-3.655591 0.169272,-5.373496 l 0.692647,-3.123496 3.343531,5.345343 c 3.557394,5.687238 4.471216,8.807932 1.971771,6.733575 -2.192878,-1.819912 -2.613689,-0.346179 -1.543827,5.40673 1.45264,7.811169 2.825759,10.075259 7.648572,12.611343 4.589875,2.413587 5.561733,3.963922 4.682044,7.468891 -0.535858,2.135027 -0.661185,2.170349 -3.202652,0.902499 -3.070315,-1.531687 -11.501683,-1.826449 -13.897149,-0.485898 -1.460873,0.817548 -1.159978,1.25637 2.703165,3.942225 2.390865,1.662231 9.248552,6.539391 15.239314,10.838095 10.66184,7.650439 10.898675,7.765686 11.194271,5.446637 0.166091,-1.303034 -0.14103,-11.217151 -0.682515,-22.031323 -0.827109,-16.518714 -0.782731,-20.047275 0.277623,-22.071012 l 1.262143,-2.408889 1.51819,3.574374 c 5.26757,12.401725 5.99563,16.323871 2.23252,12.026871 l -1.88507,-2.152469 0.52711,13.95 c 0.28991,7.672495 0.78118,16.502646 1.09172,19.622598 0.54357,5.461139 0.69266,5.737913 3.9996,7.424997 4.09635,2.089794 6.98033,2.205394 11.1856,0.448326 3.0327,-1.267161 3.12109,-1.446294 3.12109,-6.325596 0,-2.761854 -0.57999,-10.781268 -1.28888,-17.820923 -0.70889,-7.039682 -1.74851,-19.279413 -2.31026,-27.199402 -0.56176,-7.920016 -1.38117,-17.964981 -1.82091,-22.322186 -0.54352,-5.385415 -0.48743,-8.699551 0.17517,-10.35 0.95035,-2.367169 1.06111,-2.24794 4.43284,4.772186 1.90198,3.959995 3.45571,8.009995 3.45272,9 -0.004,1.566019 -0.30345,1.449015 -2.29822,-0.9 l -2.29281,-2.7 0.51752,5.85 c 0.28463,3.217484 1.55437,17.476666 2.82165,31.68707 2.92708,32.822259 2.20529,38.842709 -5.11044,42.625799 -2.7955,1.44563 -7.74899,1.41144 -12.35585,-0.0852 -1.80976,-0.58796 -2.0528,-0.4363 -1.62743,1.01557 0.27503,0.93872 0.76677,6.16177 1.09276,11.60678 0.61356,10.24835 -0.45066,21.56539 -2.50045,26.58986 -0.99079,2.42866 -1.13741,1.06858 -1.13741,-10.55092 0,-7.33642 -0.343,-17.6968 -0.76223,-23.02306 l -0.76222,-9.68412 -6.142586,-4.715877 C 91.301815,94.180429 84.456062,88.896004 79.467459,85.031015 c -4.98861,-3.864991 -9.07019,-6.795099 -9.07019,-6.511377 0,0.283749 1.301784,2.822525 2.892859,5.641754 2.214576,3.924015 2.887337,6.189286 2.869313,9.661377 -0.04462,8.592711 -3.856105,12.609671 -14.502053,15.283851 -7.049257,1.77069 -15.104666,5.7133 -18.881145,9.24107 -5.072625,4.73851 -6.154661,17.516 -2.046242,24.16355 4.569859,7.39418 18.300285,9.37477 31.323231,4.51832 11.596673,-4.32458 21.744037,-11.02407 21.744037,-14.35587 0,-1.12362 -1.65336,-6.43044 -3.67413,-11.79294 -2.917268,-7.74149 -3.548137,-10.41663 -3.062487,-12.98623 l 0.611657,-3.23624 3.943969,4.5 c 4.360968,4.97579 4.878039,6.256 2.180992,5.4 -2.051477,-0.65113 -2.223674,0.16299 -0.796646,3.76639 4.609651,11.6399 3.889312,17.78632 -2.819991,24.06206 -4.67285,4.37092 -6.269513,8.07295 -6.278343,14.55705 -0.0055,4.0416 2.00394,6.6645 5.105813,6.6645 2.886349,0 8.801374,-4.83371 14.680327,-11.99663 6.45465,-7.86434 10.6207,-10.95391 20.25884,-15.02407 3.95999,-1.67232 7.55187,-3.33139 7.98195,-3.68688 0.43006,-0.35547 0.87034,-3.41293 0.97839,-6.79438 0.21695,-6.78925 1.97836,-11.16288 5.39804,-13.40355 1.66567,-1.09137 2.59472,-1.19561 3.99189,-0.44788 1.68848,0.90365 3.68301,5.82589 3.69472,9.11805 0.0122,3.4201 -3.08116,10.47233 -5.55285,12.65965 l -2.68297,2.37435 2.04012,1.90065 c 2.56389,2.38866 4.61606,2.39269 9.51998,0.0187 2.46724,-1.19435 4.08164,-2.6552 4.41879,-3.99845 0.29217,-1.16406 0.09,-9.53094 -0.44922,-18.59304 -0.87537,-14.71133 -4.31196,-68.784604 -4.73648,-74.526553 -0.0915,-1.2375 0.15083,-3.620187 0.53848,-5.294833 0.83996,-3.628674 1.16297,-3.242121 5.06179,6.057339 2.96932,7.082392 2.93922,8.904007 -0.0899,5.439963 l -1.88223,-2.152469 0.4986,6.75 c 0.27423,3.7125 0.92919,13.229984 1.45545,21.15 0.52626,7.919989 1.13421,15.4125 1.35099,16.65 1.15931,6.618164 1.48302,37.723093 0.44489,42.750003 -1.7531,8.48908 -7.15321,13.95 -13.79468,13.95 -2.35639,0 -5.49941,-2.96351 -6.443,-6.075 -0.81922,-2.70149 -1.76875,-2.58599 -10.54193,1.28221 -9.84409,4.34043 -15.76035,8.79678 -21.90859,16.50245 -6.788312,8.5079 -10.340762,10.63449 -14.842266,8.88497 z m 52.213537,-38.29416 c 2.39856,-2.01824 2.76535,-2.83112 2.30836,-5.11595 -0.83182,-4.15912 -3.00897,-6.15784 -5.36018,-4.92086 -2.78438,1.46489 -3.29288,2.61282 -2.71825,6.13633 1.18589,7.27169 1.50626,7.48823 5.77007,3.90048 z M 29.546679,123.45684 c 1.925323,-1.29332 6.136585,-4.88195 9.358353,-7.97476 6.98774,-6.70806 12.231223,-9.51768 23.700356,-12.6994 8.223284,-2.28129 12.291885,-4.58336 12.291885,-6.954951 0,-2.221436 -6.658504,-12.290213 -10.872125,-16.440491 l -4.320992,-4.256021 -2.528442,1.643884 c -1.390646,0.904121 -6.803953,5.619425 -12.029586,10.47843 -11.872784,11.039831 -15.84417,14.056789 -19.433613,14.763259 -2.498651,0.49181 -3.072392,1.20971 -4.839055,6.05492 -2.330139,6.39062 -2.798118,14.06198 -0.990991,16.24466 1.798551,2.17233 5.662268,1.82868 9.664209,-0.85953 z m 3.650599,-10.84857 c -1.087866,-1.08786 -0.625115,-7.22008 0.802716,-10.63734 0.771498,-1.84648 1.586817,-3.17313 1.811817,-2.94813 0.225,0.225 -0.251467,1.99003 -1.058814,3.92228 -0.807344,1.93228 -1.404169,3.6716 -1.326273,3.86519 0.07789,0.1936 0.583944,1.17787 1.124557,2.18721 0.954296,1.78173 1.018817,1.78613 2.21447,0.15098 1.506383,-2.0601 1.586429,-1.30381 0.187056,1.76748 -1.015374,2.22849 -2.534718,2.91316 -3.755529,1.69233 z M 49.233169,96.911228 c -1.477242,-1.120825 -2.819511,-2.129892 -2.982805,-2.242337 -0.575089,-0.395975 2.765132,-4.860599 3.636485,-4.860599 0.485407,0 2.023356,0.812301 3.417672,1.805136 l 2.535109,1.805164 1.770072,-2.429929 c 1.741879,-2.391202 1.808415,-2.404798 4.177191,-0.852704 3.252115,2.130853 3.67525,3.667429 1.722725,6.255945 l -1.643634,2.179028 -2.90494,-2.215722 -2.90494,-2.215696 -2.068523,2.404797 -2.068523,2.404797 -2.68589,-2.037881 z m 59.693951,68.808112 c 2.36578,-3.40903 2.61804,-5.9032 0.51546,-5.09634 -1.23909,0.47546 -1.30109,0.27117 -0.41834,-1.37826 2.16182,-4.0394 4.63071,-1.02132 2.79329,3.41464 -0.5966,1.44033 -1.9343,3.35678 -2.97265,4.25884 -1.83544,1.59448 -1.83315,1.56113 0.0823,-1.19888 z m 15.89203,-4.96856 c -1.21768,-2.54752 -2.57006,-3.99809 -4.05,-4.34416 -2.5532,-0.597 -3.86499,-5.39833 -1.47489,-5.39833 1.39888,0 6.90301,5.7659 6.90301,7.23131 0,0.47777 0.405,0.86869 0.9,0.86869 0.495,0 0.90151,-0.91126 0.90337,-2.025 0.004,-2.19249 3.10892,-7.875 4.30339,-7.875 1.43909,0 2.89324,2.19611 2.89324,4.36949 0,2.16106 -0.0399,2.17336 -1.82126,0.56126 -2.32398,-2.10317 -3.10671,-1.30226 -5.12734,5.24641 l -1.6014,5.18997 -1.82812,-3.82464 z M 28.472933,142.15202 c 1.82474,-3.52864 1.8117,-5.54373 -0.03586,-5.54373 -1.19592,0 -1.257416,-0.24436 -0.339804,-1.35 1.281827,-1.54451 3.236051,-1.76701 4.043594,-0.46038 0.662706,1.07229 -2.498346,8.50534 -4.015946,9.44327 -0.654813,0.40471 -0.518527,-0.41345 0.348013,-2.08916 z m 21.999401,-3.51873 c -0.708299,-1.78813 -0.705796,-3.83167 0.009,-7.36328 0.54417,-2.68855 0.810167,-5.0675 0.591096,-5.28657 -0.219061,-0.21907 -1.833093,0.44825 -3.586727,1.48291 -2.421722,1.42885 -3.18843,1.58016 -3.18843,0.62921 0,-0.68859 3.733044,-3.40869 8.29567,-6.04465 10.115692,-5.84411 9.831661,-5.72168 9.1495,-3.94398 -0.305832,0.79698 -2.267338,2.45193 -4.358891,3.67768 -2.862127,1.6773 -4.06053,3.08869 -4.844555,5.70555 -1.311438,4.37718 -1.317762,6.92068 -0.02325,9.33948 0.986277,1.84288 1.057393,1.8498 2.25,0.21882 1.452503,-1.98641 1.564356,-1.43275 0.353801,1.75123 -1.149767,3.02411 -3.415536,2.94298 -4.647213,-0.1664 z m 15.905501,-6.8701 c -2.42448,-1.93958 -2.570777,-2.35207 -1.594295,-4.49522 1.270298,-2.788 2.569421,-2.93003 5.58751,-0.61087 1.909437,1.46725 2.100263,2.05831 1.35,4.18145 -1.164235,3.29461 -2.16441,3.4677 -5.343215,0.92464 z m 12.964348,-0.65784 c -1.222353,-2.284 -0.427863,-8.40331 1.505711,-11.59706 l 1.362188,-2.25 -0.541434,2.25 c -1.456601,6.05314 -1.547102,8.15383 -0.41025,9.52364 1.088704,1.31182 1.297706,1.29729 2.366524,-0.16438 1.396259,-1.90952 1.491662,-1.31631 0.294626,1.83214 -1.065131,2.80151 -3.194165,2.99019 -4.577364,0.40566 z m 34.315007,-2.70901 c 0.49688,-0.92846 1.35693,-1.68805 1.91124,-1.68805 0.5543,0 0.28417,-0.79964 -0.60029,-1.77696 -1.503,-1.66079 -1.51129,-1.92469 -0.12696,-4.03744 1.98606,-3.03113 5.61244,-5.31005 7.37399,-4.63409 2.19271,0.84142 0.93786,2.82978 -1.61477,2.55863 -1.24194,-0.13194 -2.78204,0.3915 -3.42245,1.16313 -1.90065,2.29012 0.31162,3.53869 5.85876,3.30658 4.06953,-0.17029 4.82409,0.0285 4.39098,1.15725 -0.28766,0.74959 -1.39091,1.37249 -2.45172,1.38424 -1.06077,0.0118 -4.24474,0.97388 -7.07545,2.13805 -4.73308,1.94656 -5.07413,1.981 -4.24333,0.42866 z m 50.19552,-8.64385 c 0.16799,-5.713 -0.35939,-21.166341 -1.17196,-34.340734 -1.8866,-30.587585 -1.98248,-34.964483 -0.79204,-36.154907 0.70057,-0.700571 1.90085,1.235275 4.25972,6.870272 3.36276,8.033203 3.56128,10.642484 0.5073,6.667712 l -1.71844,-2.236541 -0.0129,3.6 c -0.007,1.979984 0.58569,11.7 1.31724,21.6 1.71159,23.162058 1.70702,33.139928 -0.0177,38.947958 -0.75536,2.54358 -1.66663,4.80669 -2.02502,5.02913 -0.35838,0.22242 -0.51417,-4.26986 -0.34618,-9.98289 z m -98.823171,-0.86611 c 0.01774,-0.40045 3.024372,-3.10698 6.681404,-6.01449 3.657033,-2.9075 7.985392,-6.66505 9.618578,-8.35005 2.573362,-2.65504 2.822593,-3.29881 1.868596,-4.826398 -1.475588,-2.362806 -1.389592,-4.927125 0.209736,-6.254438 1.835369,-1.523226 3.18942,-0.390866 3.18942,2.667289 0,1.426547 0.404997,2.844055 0.9,3.150001 1.622324,1.002636 1.031307,3.312956 -0.706421,2.761446 -1.131591,-0.35918 -2.074761,0.28295 -3.190882,2.17241 -2.006832,3.3973 -18.653518,16.56933 -18.570431,14.69423 z M 85.247273,96.108293 c -0.305928,-0.495016 -0.937333,-0.9 -1.403119,-0.9 -0.465786,0 -0.846881,0.404984 -0.846881,0.9 0,0.494989 0.631405,0.9 1.403119,0.9 0.771714,0 1.152809,-0.405011 0.846881,-0.9 z m 39.824997,16.038527 c 2.89335,-1.44824 2.50086,-2.81269 -0.675,-2.34657 -3.02874,0.44453 -3.56708,-0.56458 -1.02653,-1.92426 1.7529,-0.93811 8.22653,-0.30027 8.22653,0.81055 0,1.24928 -3.18455,3.38697 -5.85,3.92693 -2.46476,0.49932 -2.52357,0.45864 -0.675,-0.46665 z M 11.361759,105.62303 c 2.717763,-4.63752 2.791897,-5.01474 0.985514,-5.01474 -1.715014,0 -1.733649,-1.261202 -0.03943,-2.667286 1.591129,-1.320529 3.189427,-0.496582 3.189427,1.644188 0,1.639298 -4.948167,10.023098 -5.9156983,10.023098 -0.3054339,0 0.4956483,-1.79338 1.7801843,-3.98526 z m 122.195961,-0.79398 -1.99951,-2.12836 1.92805,-2.45113 1.92807,-2.45113 2.14147,2.011789 2.14147,2.011811 2.29045,-2.151752 c 2.43063,-2.28345 4.20147,-1.936942 6.1869,1.210642 0.73275,1.16164 0.50962,1.9404 -0.98382,3.43383 l -1.93148,1.93148 -2.62576,-1.86968 -2.62576,-1.86971 -2.2253,2.22528 -2.22529,2.22531 -1.99949,-2.12838 z m 2.78745,-17.399984 c -0.11116,-4.771252 -0.44205,-8.914938 -0.73532,-9.208218 -0.29326,-0.293253 -2.12606,0.383532 -4.0729,1.504001 -4.88844,2.813434 -4.467,1.221322 0.50883,-1.922251 3.16123,-1.997149 3.9598,-2.980591 3.65406,-4.5 -0.21516,-1.069382 -0.63416,-6.399317 -0.93106,-11.844305 -0.29693,-5.445016 -0.92748,-15.709982 -1.40125,-22.811023 -0.80602,-12.081308 -0.56519,-17.252655 0.80231,-17.229007 0.5896,0.01019 4.77006,9.423276 5.99109,13.49003 0.67312,2.241897 0.66863,2.243793 -1.24956,0.530502 -1.05883,-0.945703 -2.07443,-1.55322 -2.25693,-1.35 -0.18248,0.20322 0.0115,4.419498 0.43119,9.369498 0.41964,4.95 1.01045,12.847495 1.31292,17.55 0.71159,11.062821 0.85118,11.483981 3.12476,9.426406 1.60403,-1.451623 1.64853,-1.773303 0.43125,-3.118359 -0.7465,-0.824881 -1.35729,-2.11388 -1.35729,-2.864438 0,-1.803076 3.23051,-4.678226 4.42613,-3.939286 1.14878,0.709991 1.06838,9.495676 -0.0868,9.495676 -0.45407,0 -1.80585,1.113739 -3.00397,2.475 -1.83105,2.080371 -2.18292,3.432678 -2.20683,8.481335 -0.0281,5.927152 -1.64632,15.145642 -2.65802,15.14155 -0.28623,-0.0012 -0.61138,-3.90586 -0.72253,-8.677111 z m 8.17757,-23.270773 c -0.54775,-1.427399 -2.12547,-1.872757 -2.12547,-0.600018 0,0.951773 0.98378,1.950018 1.92175,1.950018 0.39696,0 0.48864,-0.607516 0.20372,-1.35 z m 26.16544,30.054364 c -1.69735,-2.746335 1.00907,-16.104364 3.26281,-16.104364 0.41705,0 -0.023,1.721228 -0.97795,3.825 -1.93592,4.264893 -2.1815,6.764942 -0.86198,8.775 0.78775,1.199982 0.98468,1.199982 1.77242,0 1.13868,-1.734576 1.15486,-0.751245 0.0361,2.191387 -0.92871,2.442728 -2.21112,2.963782 -3.23136,1.312976 z M 111.775,88.399681 c -0.48275,-1.269717 -0.87773,-2.672012 -0.87773,-3.116244 0,-1.506061 3.77303,-10.902146 4.20452,-10.47063 0.2358,0.235794 -0.27893,2.421222 -1.14389,4.856534 -1.68335,4.739585 -1.23104,7.965528 0.99696,7.110572 1.61236,-0.618722 1.79095,1.319815 0.26241,2.84837 -1.62404,1.624027 -2.47289,1.321079 -3.44227,-1.228601 z M 91.123188,81.756688 c -1.084756,-2.026868 1.020217,-9.49216 3.31268,-11.748395 1.226514,-1.20715 1.254845,-1.122446 0.267736,0.800437 -2.07533,4.042721 -2.725048,7.542553 -1.642387,8.847098 0.834268,1.005221 1.166268,1.018378 1.767838,0.07004 0.571721,-0.901264 0.743802,-0.849409 0.754437,0.227417 0.01444,1.461072 -1.655145,3.555011 -2.834555,3.555011 -0.378589,0 -1.110169,-0.788242 -1.62575,-1.751605 z M 34.831433,80.460411 c -1.36673,-2.085892 -1.37222,-2.651661 -0.06834,-7.035206 0.779857,-2.621804 1.820376,-5.374429 2.312268,-6.116913 1.193682,-1.801867 1.135767,-1.218878 -0.372735,3.751721 -1.765293,5.816767 -0.696914,9.579831 1.964287,6.918612 0.772857,-0.77286 0.905723,-0.555743 0.532748,0.87053 -0.906338,3.465802 -2.715769,4.133249 -4.368233,1.611255 z M 9.1972738,75.508955 c 0,-0.45629 1.8981972,-1.942053 4.2182072,-3.301666 2.320025,-1.359613 5.973799,-4.090265 8.119498,-6.068106 3.752088,-3.458578 3.841442,-3.66221 2.336641,-5.32499 -1.41703,-1.565827 -1.437183,-1.956006 -0.21356,-4.136051 0.743095,-1.323935 2.045915,-2.540946 2.895148,-2.704477 1.222253,-0.235382 1.544067,0.361835 1.544067,2.865509 0,1.739575 0.405001,3.413177 0.9,3.71912 1.455561,0.899561 1.037566,3.310181 -0.518634,2.990973 -0.780256,-0.160044 -3.394999,1.61694 -5.810545,3.94887 -4.338151,4.187933 -13.4708213,9.61897 -13.4708213,8.010818 z M 25.941029,56.752025 c -0.914869,-0.914859 -1.669726,0.462496 -0.919099,1.677035 0.567025,0.917496 0.77902,0.91821 1.08387,0.0037 0.208438,-0.625314 0.134287,-1.381613 -0.164771,-1.680688 z m -9.84179,6.358227 c -0.932544,-0.932547 -0.709864,-5.529062 0.298035,-6.151959 0.514531,-0.318 0.9,0.477383 0.9,1.857074 0,2.043128 0.207082,2.241458 1.35,1.292926 0.742501,-0.616223 1.35,-0.728586 1.35,-0.249692 0,1.285209 -3.19733,3.952359 -3.898035,3.251652 z m 41.720248,-6.548346 c -1.063326,-2.567093 -4.522213,-6.416592 -4.522213,-5.03292 0,0.384824 -0.607499,0.195502 -1.35,-0.420694 -1.802692,-1.496119 -1.733515,-4.5 0.103618,-4.5 0.799489,0 2.787688,1.456457 4.418213,3.236572 l 2.964603,3.2366 1.042335,-5.02089 c 1.160908,-5.592096 2.423107,-7.008453 4.145948,-4.652325 1.38014,1.887452 0.658287,4.743045 -0.824218,3.260523 -1.764082,-1.764075 -2.163943,-1.000882 -2.786672,5.318811 -0.699235,7.096207 -1.607694,8.398251 -3.191614,4.574323 z m 52.226163,-5.363223 c -1.06332,-1.98685 -0.18461,-7.536045 1.66475,-10.513285 0.9554,-1.538085 0.99882,-1.480847 0.39669,0.522895 -1.24908,4.15654 -0.90276,7.660739 0.74486,7.536703 1.15736,-0.08712 1.34526,0.317643 0.81404,1.753666 -0.95309,2.576431 -2.46015,2.867843 -3.62034,0.700022 z m 16.31021,-0.291824 c -1.36713,-1.367139 -1.24329,-4.829151 0.31478,-8.798566 l 1.23639,-3.15 -0.51439,3.79053 c -0.62086,4.575119 0.23284,7.700016 1.53926,5.634229 0.71685,-1.133514 0.8398,-1.1133 0.85158,0.140021 0.0207,2.200863 -2.12103,3.690389 -3.42762,2.383786 z m -40.654906,-9.6917 c -0.741893,-1.386255 -0.522496,-2.809286 0.966982,-6.271655 1.059639,-2.463218 2.489729,-4.945908 3.177981,-5.517087 1.763107,-1.463241 1.567482,-0.65841 -0.892721,3.67284 -2.284374,4.02171 -2.281737,8.114776 0.004,6.217795 1.473596,-1.222971 1.595194,-0.453983 0.308414,1.950402 -1.191461,2.226242 -2.35435,2.209186 -3.564659,-0.0523 z m -55.21149,-1.514685 c -1.078964,-1.078967 -0.613882,-6.639642 0.780922,-9.336896 1.983949,-3.836535 2.454957,-3.261731 0.772613,0.942874 -1.447308,3.617166 -1.14022,6.899085 0.547919,5.855769 0.498495,-0.308085 0.906355,-0.180863 0.906355,0.282733 0,1.220773 -2.310185,2.953153 -3.007809,2.25552 z M 103.02227,13.938799 c 3.75621,-1.484253 2.97667,-2.733619 -1.35,-2.163648 l -3.824997,0.503888 2.124702,-1.735373 c 3.108725,-2.5391055 9.125295,-2.1515349 9.125295,0.587796 0,1.445636 -4.59533,4.019101 -6.9303,3.881085 -1.13012,-0.06682 -0.87161,-0.39136 0.8553,-1.073748 z"
       id="path2396" />
  </g>
</svg>
