<?xml version="1.0"?><svg width="183.94545" height="176.82608" xmlns="http://www.w3.org/2000/svg">
 <title>afga</title>

 <metadata id="metadata7">image/svg+xmlThe holy quraanThe holy quraan blessed glorious islam islamic muslim religion religious</metadata>
 <g>
  <title>Layer 1</title>
  <g id="layer1">
   <path fill="#000000" id="path2396" d="m88,175.846252c-5.371147,-2.087494 -8.183258,-9.938019 -6.170731,-17.226776c1.119225,-4.053467 0.155922,-4.713928 -3.356758,-2.301483c-1.084885,0.745056 -5.797508,2.651367 -10.472511,4.236206c-11.560562,3.919098 -22.423801,4.07254 -28.9613,0.409119c-8.355019,-4.681976 -11.35244,-12.746277 -9.160099,-24.644562c0.637398,-3.45929 1.45594,-7.091949 1.818958,-8.07254c0.364262,-0.983917 -1.410229,0.106506 -3.959648,2.433197c-4.973793,4.539276 -8.293182,5.863312 -12.225262,4.876434c-7.158321,-1.796631 -8.91552,-15.488159 -3.584061,-27.925934c1.770382,-4.130127 1.769173,-4.321625 -0.041451,-6.557648c-5.492599,-6.783081 -4.66053,-15.79071 2.642422,-28.605743c4.965729,-8.713715 5.230782,-9.076233 6.042629,-8.264374c0.314701,0.314728 -0.556881,2.360748 -1.936848,4.546753c-3.008743,4.766174 -7.133663,14.439911 -8.114643,19.030457c-1.081539,5.061096 1.006062,9.18396 4.65028,9.18396c1.610592,0 4.280823,-0.699402 5.933861,-1.55423c2.978252,-1.5401 13.29425,-10.324066 23.895161,-20.346466l5.5,-5.19986l-3.5,-2.917725c-1.924999,-1.604797 -7.993771,-5.982758 -13.48616,-9.728851c-11.002411,-7.504272 -12.49968,-9.689178 -10.947041,-15.974915c0.869312,-3.519318 1.600082,-4.116577 10.673729,-8.723602l9.740532,-4.945618l-2.087959,-2.222534c-1.589191,-1.69162 -1.92989,-2.9422 -1.42625,-5.23526c0.363937,-1.657013 1.197449,-3.457397 1.852242,-4.000824c3.82972,-3.178375 43.109825,-17.054535 44.458786,-15.705566c1.085022,1.084991 -1.21225,2.209503 -12.277878,6.01001c-12.263008,4.211761 -30.571838,11.421082 -31.793381,12.519043c-0.436359,0.392242 0.013641,2.246124 1,4.119751c0.986359,1.873657 1.854118,3.542358 1.92836,3.708282c0.074242,0.165894 6.149239,-1.734589 13.5,-4.223328c17.347183,-5.873169 39.74408,-11.578308 45.453506,-11.578308c3.495293,0 5.074036,0.571594 7.057861,2.55542c2.171188,2.171173 2.452415,3.110962 1.870331,6.25c-0.794571,4.284851 -4.162704,9.042145 -9.936752,14.035034c-2.243958,1.940399 -7.178108,6.707581 -10.964767,10.59375l-6.884827,7.065796l2.549286,-5c3.057953,-5.99765 7.104065,-10.426514 15.470383,-16.933807c3.4375,-2.673676 6.25,-5.469849 6.25,-6.213715c0,-2.975403 -3.886948,-5.352509 -8.75,-5.351196c-9.905609,0.002716 -39.102821,8.620667 -60.75,17.931213c-15.84692,6.815826 -16.17482,7.185089 -9.419811,10.608124c6.37978,3.23288 25.700569,15.042694 28.153412,17.20874c1.564568,1.381653 2.235699,1.322235 6.88335,-0.609222c2.832359,-1.177094 5.817207,-2.140137 6.63298,-2.140137c1.103516,0 1.322578,-0.70401 0.855698,-2.75c-0.345139,-1.512512 -1.253998,-6.575012 -2.019691,-11.25c-0.765686,-4.675018 -1.653847,-9.625 -1.973686,-11c-0.319839,-1.375 -0.235199,-4.061768 0.18808,-5.970551l0.769608,-3.470551l3.715034,5.93927c3.95266,6.319153 4.968018,9.786591 2.190857,7.48175c-2.436531,-2.022125 -2.904099,-0.384644 -1.715363,6.007477c1.614044,8.679077 3.139732,11.194733 8.498413,14.012604c5.099861,2.681763 6.179703,4.404358 5.202271,8.298767c-0.595398,2.372253 -0.73465,2.411499 -3.558502,1.002777c-3.411461,-1.701874 -12.779648,-2.029388 -15.441277,-0.539886c-1.623192,0.908386 -1.288864,1.395966 3.003517,4.380249c2.656517,1.846924 10.276169,7.265991 16.932571,12.042328c11.846489,8.500488 12.109642,8.62854 12.43808,6.051819c0.184547,-1.447815 -0.1567,-12.463501 -0.758347,-24.479248c-0.919014,-18.354126 -0.869705,-22.27475 0.308464,-24.523346l1.402382,-2.676544l1.686882,3.971527c5.852859,13.779694 6.661804,18.137634 2.480583,13.36319l-2.094521,-2.391632l0.58567,15.5c0.322113,8.524994 0.867973,18.336273 1.213013,21.802887c0.603973,6.067932 0.76963,6.375458 4.444016,8.25c4.551498,2.321991 7.75592,2.450439 12.428436,0.498138c3.369675,-1.407959 3.46788,-1.606995 3.46788,-7.028442c0,-3.068726 -0.64444,-11.979187 -1.432091,-19.801025c-0.787659,-7.821869 -1.942787,-21.42157 -2.566956,-30.221558c-0.624184,-8.800018 -1.53463,-19.96109 -2.023232,-24.802429c-0.603912,-5.983795 -0.541588,-9.666168 0.194633,-11.5c1.055946,-2.630188 1.179008,-2.497711 4.925377,5.302429c2.113312,4.399994 3.839676,8.899994 3.836365,10c-0.005234,1.740021 -0.337173,1.610016 -2.553589,-1l-2.547562,-3l0.575012,6.5c0.316261,3.574982 1.727081,19.418518 3.13517,35.207855c3.252312,36.469177 2.450325,43.158569 -5.678268,47.362c-3.10611,1.606262 -8.609985,1.568268 -13.728714,-0.094696c-2.010841,-0.65329 -2.280891,-0.484772 -1.808258,1.128418c0.30558,1.04303 0.851967,6.846405 1.214172,12.896423c0.68174,11.387054 -0.500732,23.961548 -2.778267,29.544281c-1.100883,2.698517 -1.263794,1.187317 -1.263794,-11.723236c0,-8.151581 -0.381111,-19.663116 -0.846924,-25.581177l-0.846916,-10.760132l-6.825089,-5.239868c-3.753799,-2.881927 -11.360191,-8.75351 -16.903084,-13.047943c-5.5429,-4.294434 -10.077988,-7.55011 -10.077988,-7.234863c0,0.315277 1.446426,3.136139 3.214287,6.268616c2.46064,4.360016 3.208153,6.876984 3.188126,10.734863c-0.049576,9.547455 -4.284561,14.010742 -16.113392,16.982056c-7.832508,1.967438 -16.782963,6.348114 -20.97905,10.267853c-5.63625,5.265015 -6.838512,19.462219 -2.273602,26.848389c5.077621,8.215759 20.333649,10.416412 34.803589,5.020355c12.885193,-4.805084 24.160042,-12.248962 24.160042,-15.950958c0,-1.248474 -1.837067,-7.144928 -4.082367,-13.103271c-3.241409,-8.601654 -3.942375,-11.574036 -3.402763,-14.429138l0.679619,-3.595825l4.382187,5c4.84552,5.528656 5.420044,6.951111 2.423325,6c-2.279419,-0.72348 -2.470749,0.181091 -0.885162,4.184875c5.121834,12.933228 4.321457,19.762573 -3.133324,26.735626c-5.192055,4.856567 -6.966125,8.96994 -6.975937,16.1745c-0.006119,4.490662 2.226601,7.404999 5.673126,7.404999c3.207054,0 9.779305,-5.370789 16.311485,-13.32959c7.171822,-8.738159 11.800766,-12.171021 22.509811,-16.69342c4.399994,-1.858124 8.390961,-3.701538 8.868835,-4.096527c0.477844,-0.394958 0.967041,-3.792145 1.087097,-7.549316c0.241058,-7.54361 2.198181,-12.403198 5.997818,-14.892822c1.850754,-1.212646 2.883026,-1.328461 4.43544,-0.49765c1.876099,1.004059 4.092239,6.473206 4.10524,10.131165c0.013474,3.80011 -3.423508,11.635925 -6.16983,14.066284l-2.981079,2.638153l2.2668,2.111847c2.84877,2.654053 5.128967,2.658539 10.577759,0.020813c2.741379,-1.327057 4.535156,-2.950226 4.90976,-4.442719c0.324631,-1.293396 0.100021,-10.589935 -0.49913,-20.658936c-0.972626,-16.345917 -4.791061,-76.427338 -5.262756,-82.807281c-0.101654,-1.375 0.167587,-4.02243 0.598312,-5.883148c0.933289,-4.03186 1.292191,-3.602356 5.624222,6.730377c3.29924,7.869324 3.265793,9.893341 -0.099854,6.044403l-2.09137,-2.391632l0.554001,7.5c0.304703,4.125 1.032425,14.699982 1.617172,23.5c0.584732,8.799988 1.260223,17.125 1.501083,18.5c1.288132,7.353516 1.647812,41.914551 0.494339,47.5c-1.947891,9.432312 -7.948013,15.5 -15.327438,15.5c-2.61821,0 -6.110443,-3.292786 -7.158875,-6.75c-0.910248,-3.001648 -1.965286,-2.873322 -11.713257,1.424683c-10.937889,4.822693 -17.511505,9.7742 -24.34288,18.33606c-7.542572,9.453217 -11.489738,11.816101 -16.491409,9.872192zm58.015045,-42.549072c2.66507,-2.242493 3.072601,-3.145691 2.56485,-5.684387c-0.924255,-4.621246 -3.343307,-6.842041 -5.955765,-5.467621c-3.09375,1.627655 -3.658752,2.903137 -3.020279,6.818146c1.317657,8.079651 1.67363,8.320251 6.411194,4.333862zm-123.404594,-5.946594c2.139248,-1.437012 6.818428,-5.424377 10.39817,-8.86084c7.764156,-7.4534 13.590248,-10.575195 26.333729,-14.110443c9.136982,-2.53476 13.65765,-5.092621 13.65765,-7.727722c0,-2.468262 -7.398338,-13.655792 -12.080139,-18.267212l-4.801102,-4.728912l-2.80938,1.826538c-1.545162,1.004578 -7.559948,6.243805 -13.366207,11.6427c-13.191982,12.266479 -17.604633,15.618652 -21.592903,16.403625c-2.776279,0.546448 -3.413769,1.344116 -5.376728,6.727692c-2.589043,7.100677 -3.10902,15.62442 -1.101101,18.049622c1.99839,2.413696 6.291409,2.03186 10.73801,-0.955048zm4.056221,-12.053955c-1.20874,-1.20874 -0.694572,-8.022308 0.891907,-11.819275c0.85722,-2.051636 1.76313,-3.525696 2.01313,-3.275696c0.25,0.25 -0.279408,2.211151 -1.17646,4.358093c-0.897049,2.146973 -1.560188,4.079559 -1.473637,4.294647c0.086548,0.215118 0.648827,1.308746 1.249508,2.430237c1.060329,1.979706 1.132019,1.984589 2.460522,0.167755c1.673759,-2.289001 1.762699,-1.448669 0.20784,1.963867c-1.128193,2.476105 -2.816353,3.236847 -4.17281,1.880371zm17.817657,-17.441162c-1.64138,-1.245361 -3.13279,-2.366547 -3.314228,-2.491486c-0.638988,-0.439972 3.072369,-5.400665 4.040539,-5.400665c0.539341,0 2.248173,0.902557 3.797413,2.005707l2.816788,2.005737l1.966747,-2.699921c1.935421,-2.656891 2.00935,-2.671997 4.641323,-0.947449c3.613461,2.367615 4.083611,4.074921 1.914139,6.95105l-1.82626,2.421143l-3.227711,-2.461914l-3.227711,-2.461884l-2.298359,2.671997l-2.298359,2.671997l-2.984322,-2.264313zm66.326607,76.453461c2.628654,-3.787811 2.908943,-6.559113 0.572739,-5.662598c-1.376762,0.52829 -1.445656,0.3013 -0.464821,-1.531403c2.402016,-4.48822 5.145241,-1.134796 3.103653,3.794037c-0.662888,1.600372 -2.149216,3.729767 -3.302948,4.732056c-2.039368,1.771637 -2.036827,1.734589 0.091377,-1.332092zm17.657814,-5.52063c-1.352974,-2.830566 -2.855621,-4.442322 -4.5,-4.826843c-2.836891,-0.66333 -4.294434,-5.998138 -1.638756,-5.998138c1.554306,0 7.670006,6.406555 7.670006,8.03479c0,0.530853 0.449997,0.96521 1,0.96521c0.550003,0 1.001678,-1.012512 1.003738,-2.25c0.004044,-2.436096 3.454361,-8.75 4.781555,-8.75c1.598984,0 3.214706,2.440125 3.214706,4.85498c0,2.401184 -0.044342,2.414856 -2.023621,0.623627c-2.582199,-2.336853 -3.451904,-1.44696 -5.697052,5.829346l-1.779327,5.766632l-2.03125,-4.249603zm-107.05135,-20.665283c2.027489,-3.920715 2.013,-6.159698 -0.039841,-6.159698c-1.3288,0 -1.397129,-0.271515 -0.37756,-1.5c1.424252,-1.716125 3.595612,-1.963348 4.492882,-0.511536c0.73634,1.191437 -2.77594,9.450378 -4.462162,10.492523c-0.72757,0.449677 -0.576141,-0.459381 0.386681,-2.321289zm24.443779,-3.909698c-0.786999,-1.986816 -0.784218,-4.257416 0.009998,-8.181427c0.604633,-2.987274 0.900185,-5.630554 0.656773,-5.873962c-0.243401,-0.243408 -2.03677,0.498047 -3.985252,1.647675c-2.6908,1.587616 -3.542698,1.755737 -3.542698,0.699127c0,-0.765106 4.147827,-3.787445 9.217411,-6.716278c11.239658,-6.493469 10.924068,-6.357422 10.166111,-4.382202c-0.339813,0.885529 -2.519264,2.724365 -4.843212,4.086304c-3.180141,1.863678 -4.5117,3.431885 -5.382839,6.339508c-1.457153,4.863525 -1.46418,7.689636 -0.025833,10.377197c1.095863,2.047638 1.174881,2.055328 2.5,0.243134c1.613892,-2.207123 1.738174,-1.591949 0.393112,1.945801c-1.277519,3.360138 -3.79504,3.269989 -5.16357,-0.184875zm17.672779,-7.633453c-2.693867,-2.15509 -2.856419,-2.613403 -1.771439,-4.99469c1.411442,-3.097778 2.854912,-3.255585 6.208344,-0.678741c2.121597,1.63028 2.333626,2.287018 1.5,4.646057c-1.293594,3.660675 -2.4049,3.852997 -5.936905,1.027374zm14.404831,-0.730927c-1.35817,-2.537781 -0.475403,-9.337006 1.673012,-12.88562l1.513542,-2.5l-0.601593,2.5c-1.618446,6.725708 -1.719002,9.059814 -0.455833,10.581818c1.209671,1.457581 1.441895,1.441437 2.629471,-0.182648c1.551399,-2.121674 1.657402,-1.462555 0.327362,2.035706c-1.183479,3.112793 -3.549072,3.322449 -5.08596,0.450745zm38.127785,-3.01001c0.552086,-1.031616 1.507706,-1.87561 2.123596,-1.87561c0.615891,0 0.31575,-0.888489 -0.666977,-1.974396c-1.669998,-1.845337 -1.679222,-2.13855 -0.141068,-4.486053c2.206726,-3.36792 6.236038,-5.900055 8.193314,-5.148987c2.436356,0.934906 1.042076,3.144196 -1.794189,2.842926c-1.379929,-0.146606 -3.091148,0.434998 -3.802719,1.292358c-2.111832,2.544586 0.346237,3.931885 6.509727,3.673981c4.521706,-0.189209 5.3601,0.031738 4.878868,1.285828c-0.319611,0.832886 -1.545456,1.524994 -2.724121,1.538055c-1.178642,0.013062 -4.716385,1.082092 -7.861618,2.37561c-5.258972,2.162842 -5.637924,2.201111 -4.714813,0.476288zm55.772797,-9.604279c0.186661,-6.347778 -0.399323,-23.518158 -1.30217,-38.156372c-2.096222,-33.986206 -2.202759,-38.849426 -0.880051,-40.172119c0.778412,-0.778412 2.112061,1.372528 4.733017,7.633636c3.736404,8.925781 3.956985,11.824982 0.563675,7.408569l-1.909378,-2.485046l-0.014297,4c-0.007858,2.199982 0.650772,13 1.463608,24c1.901764,25.735626 1.896683,36.822144 -0.019745,43.275513c-0.839294,2.826202 -1.851807,5.340759 -2.250015,5.587921c-0.398209,0.247131 -0.571304,-4.744293 -0.384644,-11.092102zm-109.80352,-0.962341c0.019711,-0.444946 3.360413,-3.452209 7.423782,-6.68277c4.06337,-3.23056 8.872658,-7.405609 10.687309,-9.277832c2.859291,-2.950043 3.136215,-3.665344 2.076218,-5.362671c-1.639542,-2.625336 -1.543991,-5.474579 0.23304,-6.949371c2.039299,-1.692474 3.5438,-0.434296 3.5438,2.963654c0,1.585052 0.449997,3.160065 1,3.5c1.802582,1.114044 1.145897,3.681061 -0.784912,3.068268c-1.257324,-0.399078 -2.30529,0.314392 -3.545425,2.413788c-2.229813,3.77478 -20.726131,18.41037 -20.633812,16.326935zm22.464149,-25.30899c-0.33992,-0.550018 -1.041481,-1 -1.559021,-1c-0.51754,0 -0.940979,0.449982 -0.940979,1c0,0.549988 0.701561,1 1.559021,1c0.85746,0 1.280899,-0.450012 0.940979,-1zm44.25,17.820587c3.214828,-1.609161 2.778732,-3.125214 -0.75,-2.6073c-3.365265,0.493927 -3.963417,-0.627319 -1.140587,-2.138062c1.947655,-1.042358 9.140587,-0.333649 9.140587,0.900604c0,1.388092 -3.538391,3.763306 -6.5,4.363251c-2.738632,0.55481 -2.80397,0.509613 -0.75,-0.518494zm-126.345016,-7.248657c3.019737,-5.152802 3.102108,-5.57193 1.095016,-5.57193c-1.905571,0 -1.926277,-1.401337 -0.043808,-2.963654c1.767921,-1.467255 3.543808,-0.551758 3.543808,1.826874c0,1.821442 -5.497963,11.13678 -6.572998,11.13678c-0.339371,0 0.55072,-1.992645 1.977982,-4.42807zm135.773285,-0.882202l-2.221664,-2.364838l2.142273,-2.72348l2.142303,-2.72348l2.37941,2.235321l2.37941,2.235352l2.544937,-2.390839c2.700699,-2.53717 4.668304,-2.152161 6.874344,1.345154c0.814163,1.29071 0.566238,2.156006 -1.09314,3.815369l-2.146088,2.146088l-2.917511,-2.077423l-2.917511,-2.077454l-2.472549,2.472534l-2.472549,2.472565l-2.221664,-2.364868zm3.097168,-19.333313c-0.123505,-5.301392 -0.491165,-9.905487 -0.817017,-10.231354c-0.325836,-0.325836 -2.362289,0.426147 -4.525436,1.671112c-5.43161,3.126038 -4.963348,1.357025 0.565353,-2.135834c3.512482,-2.219055 4.39978,-3.311768 4.060074,-5c-0.239075,-1.188202 -0.70462,-7.110352 -1.034515,-13.160339c-0.329926,-6.050018 -1.030533,-17.455536 -1.556946,-25.345581c-0.895569,-13.423676 -0.627991,-19.169617 0.891464,-19.143341c0.655106,0.011322 5.300064,10.470306 6.656769,14.988922c0.74791,2.490997 0.74292,2.493103 -1.388412,0.589447c-1.176468,-1.050781 -2.304916,-1.7258 -2.50769,-1.5c-0.202759,0.2258 0.012833,4.910553 0.479095,10.410553c0.466263,5.5 1.122726,14.274994 1.458801,19.5c0.790649,12.292023 0.945755,12.759979 3.471954,10.473785c1.782257,-1.612915 1.831696,-1.970337 0.479172,-3.464844c-0.829453,-0.916534 -1.508102,-2.348755 -1.508102,-3.182709c0,-2.003418 3.589447,-5.198029 4.917923,-4.376984c1.276413,0.788879 1.187088,10.550751 -0.096542,10.550751c-0.504517,0 -2.0065,1.237488 -3.337738,2.75c-2.034515,2.311523 -2.425476,3.814087 -2.452042,9.423706c-0.031174,6.585724 -1.829239,16.828491 -2.953354,16.823944c-0.318039,-0.001282 -0.679306,-4.339844 -0.802811,-9.641235zm9.086197,-25.856415c-0.608612,-1.585999 -2.361633,-2.080841 -2.361633,-0.666687c0,1.057526 1.093094,2.166687 2.135284,2.166687c0.441055,0 0.542923,-0.675018 0.226349,-1.5zm29.072708,33.393738c-1.885941,-3.051483 1.121185,-17.893738 3.625351,-17.893738c0.463379,0 -0.025589,1.912476 -1.086624,4.25c-2.151016,4.73877 -2.423874,7.516602 -0.957748,9.75c0.875275,1.333313 1.094086,1.333313 1.96936,0c1.265198,-1.927307 1.283173,-0.834717 0.04007,2.434875c-1.031906,2.714142 -2.456802,3.293091 -3.590408,1.458862zm-65.459091,-6.458862c-0.536392,-1.410797 -0.97525,-2.968903 -0.97525,-3.462494c0,-1.673401 4.192245,-12.113495 4.671692,-11.634033c0.262001,0.261993 -0.309937,2.690247 -1.270996,5.396149c-1.870384,5.266205 -1.367828,8.850586 1.107735,7.900635c1.791512,-0.687469 1.989944,1.466461 0.291565,3.164856c-1.804482,1.804474 -2.747658,1.467865 -3.824745,-1.365112zm-22.946457,-7.381104c-1.205284,-2.252075 1.133575,-10.546844 3.680756,-13.053772c1.362793,-1.341278 1.394272,-1.247162 0.297485,0.889374c-2.305923,4.491913 -3.027832,8.380615 -1.824875,9.830109c0.926964,1.116913 1.295853,1.131531 1.964264,0.07782c0.635246,-1.001404 0.826447,-0.943787 0.838264,0.252686c0.016045,1.623413 -1.83905,3.950012 -3.149506,3.950012c-0.420654,0 -1.233521,-0.875824 -1.806389,-1.946228zm-62.546394,-1.440308c-1.518589,-2.317657 -1.524689,-2.946289 -0.075928,-7.816895c0.866508,-2.913116 2.02264,-5.971588 2.569187,-6.79657c1.326313,-2.002075 1.261963,-1.354309 -0.41415,4.168579c-1.961437,6.463074 -0.774349,10.644257 2.182541,7.687347c0.85873,-0.858734 1.006359,-0.617493 0.591942,0.967255c-1.007042,3.850891 -3.017521,4.592499 -4.853592,1.790283zm-28.482399,-5.501617c0,-0.506989 2.109108,-2.157837 4.686897,-3.668518c2.577805,-1.510681 6.637554,-4.544739 9.021664,-6.74234c4.168987,-3.842865 4.268269,-4.069122 2.596268,-5.916656c-1.574478,-1.739807 -1.59687,-2.17334 -0.237289,-4.595612c0.825661,-1.471039 2.273239,-2.823273 3.216831,-3.004974c1.358059,-0.261536 1.71563,0.402039 1.71563,3.183899c0,1.932861 0.450001,3.792419 1,4.132355c1.61729,0.999512 1.152851,3.677979 -0.57626,3.323303c-0.866951,-0.177826 -3.772221,1.7966 -6.456161,4.387634c-4.820168,4.653259 -14.967579,10.687744 -14.967579,8.900909zm18.604172,-20.841034c-1.016521,-1.01651 -1.855251,0.513885 -1.021221,1.863373c0.630028,1.01944 0.865578,1.020233 1.2043,0.004059c0.231598,-0.694794 0.149208,-1.535126 -0.183079,-1.867432zm-10.935322,7.064697c-1.03616,-1.036163 -0.788738,-6.143402 0.33115,-6.83551c0.571701,-0.353333 1,0.530426 1,2.063416c0,2.270142 0.230091,2.490509 1.5,1.436584c0.825001,-0.684692 1.5,-0.80954 1.5,-0.277435c0,1.428009 -3.552589,4.39151 -4.33115,3.612946zm46.355831,-7.27594c-1.181473,-2.852325 -5.024681,-7.129547 -5.024681,-5.592133c0,0.427582 -0.674999,0.217224 -1.5,-0.467438c-2.002991,-1.662354 -1.926128,-5 0.115131,-5c0.888321,0 3.097431,1.618286 4.909126,3.596191l3.294003,3.596222l1.15815,-5.578766c1.289898,-6.21344 2.692341,-7.78717 4.606609,-5.16925c1.533489,2.097168 0.73143,5.27005 -0.915798,3.622803c-1.960091,-1.960083 -2.404381,-1.112091 -3.096302,5.90979c-0.776928,7.884674 -1.786327,9.33139 -3.546238,5.082581zm58.029068,-5.959137c-1.181458,-2.207611 -0.205124,-8.373383 1.849731,-11.681427c1.061546,-1.708984 1.109795,-1.645386 0.440758,0.580994c-1.387863,4.618378 -1.003059,8.511932 0.827621,8.374115c1.285965,-0.096802 1.494736,0.352936 0.904495,1.948517c-1.05899,2.862701 -2.733505,3.186493 -4.022606,0.777802zm18.122459,-0.324249c-1.519043,-1.519043 -1.381424,-5.365723 0.349747,-9.776184l1.373779,-3.5l-0.571548,4.2117c-0.68985,5.083466 0.258713,8.555573 1.710297,6.260254c0.796494,-1.25946 0.933105,-1.237 0.946198,0.155579c0.02301,2.445404 -2.356705,4.100433 -3.808472,2.648651zm-45.172119,-10.768555c-0.824326,-1.540283 -0.580551,-3.121429 1.074425,-6.968506c1.177376,-2.736908 2.766365,-5.495453 3.53109,-6.130096c1.959007,-1.625824 1.741646,-0.731567 -0.991913,4.080933c-2.538193,4.468567 -2.535263,9.016418 0.004448,6.908661c1.637329,-1.358856 1.772438,-0.504425 0.342682,2.167114c-1.323845,2.473602 -2.615944,2.454651 -3.960732,-0.058105zm-61.3461,-1.682983c-1.198849,-1.198853 -0.682091,-7.37738 0.867691,-10.374329c2.204388,-4.262817 2.72773,-3.624146 0.858459,1.047638c-1.60812,4.019073 -1.266911,7.665649 0.608799,6.506409c0.553883,-0.342316 1.007061,-0.200958 1.007061,0.314148c0,1.356415 -2.566872,3.281281 -3.34201,2.506134zm80.59201,-28.624084c4.173561,-1.64917 3.307411,-3.037354 -1.5,-2.404053l-4.25,0.559875l2.360779,-1.928192c3.45414,-2.821228 10.139221,-2.390594 10.139221,0.653107c0,1.606262 -5.105919,4.465668 -7.70034,4.312317c-1.255692,-0.074249 -0.968445,-0.434845 0.95034,-1.193054z"/>
  </g>
 </g>
</svg>