<svg xmlns="http://www.w3.org/2000/svg" xmlns:xlink="http://www.w3.org/1999/xlink" viewBox="0 0 1250 1625">
    <g stroke="#19435c" stroke-width="30" fill="#a1c8e5" stroke-linecap="round">
        <circle r="605" cx="632.97" cy="821.508" />
        <circle r="510" cx="632.97" cy="821.508" fill="#d2d9f5"/>
        <g id="a">
            <path d="M1006.38 444.283c96.075 46 160.74 23.972 201.66-30.11-83.3-13.414-157.3-96.154-229.57-148.02-157.22-112.81-249.67-57.8-353.51-236.32-103.83 178.49-196.28 123.48-353.5 236.29-72.29 51.863-146.26 134.6-229.5 148.02 40.928 54.081 105.59 76.11 201.66 30.11 107.34 116.17 142.73-192.06 381.34 10.363 238.62-202.39 274.01 105.84 381.38-10.33zM472.26 265.668c-75.47 27.435-114 46.932-165.42 83.529"
            />
            <circle r="69" cx="623.455" cy="275.701" fill="#19435c" />
            <path d="M774.65 252.946c75.47 27.435 114 46.932 165.42 83.529" />
        </g>
        <use xlink:href="#a" transform="matrix(1 0 0 -1 0 1625)" width="100%" height="100%" />
    </g>
</svg>