<svg xmlns="http://www.w3.org/2000/svg" viewBox="0 0 530 201"><path d="M263.9 0c-.5 0-.8.3-1 1-2.7 6.4-4.1 10.5-4.1 12.2 1.5 3.1 2.2 6.9 2.2 11.5 0 5.3.9 22.3 3.1 51.1s3.4 45.3 3.4 49.4c0 6.8-.7 10.8-1.9 11.8-4.265 3.57-9.133 5.405-13.7 5.436v-.036c-3.2 0-5.6-1.4-7-3.8-1.4-1.9-1.9-4.3-1.9-7.2 0-.5 0-1.2.2-2.2.2-1 .2-1.7.2-2.2 0-.9-.2-1.4-1.2-1.4-.9 0-1.9.5-2.6 1.2-7.6 7.7-12.4 12.3-14.6 13.7-5.474 3.881-11.641 5.779-18.6 5.797v-.098c-3.6 0-6.3-.699-8.2-1.699-3.1-2.1-5.5-6.7-6.7-13.4-.3-2.4-1-16.3-1.4-41.6-.7-26.9-1.6-44.9-2.6-54-1.7-14.4-3.9-24.7-7-30.7-.5-1-1-1.7-1.2-1.7-.5 0-.7.7-1.2 1.9-1.9 4.8-2.9 8.2-2.9 10.6 2.7 9.2 4.6 18.5 5.8 28.6.5 6.2 1.2 23 2.2 50.4.7 25.4 1.6 40.5 2.6 45.8 1.4 8.4 4.1 13.9 8.4 17 2.781 2.186 6.85 3.383 12.1 3.399v.101c6.7 0 13.2-2.7 19.4-8.2 1.4-1.2 4.6-4.5 9.6-10.3.8-.9 1.5-1.2 2.2-1.4.5.3.7.5.7 1 .497 10.054 5.061 15.05 13.585 15.096v.004l.057-.002.058.002v-.004c5.654-.049 10.716-3.64 14.987-10.295 5.1-8.2 8.113-19.2 8.113-33.4 0-5.1-1-20.202-2.8-45.202-1.9-25.4-2.9-38.4-2.9-38.6 0-1.2.2-1.5.7-1 4 4.8 6.2 6.001 6.2 3.801 0-.5-.3-1.7-.5-3.1-.7-1.7-2.4-6.5-5.3-14.4-2.9-7.5-4.8-12-5.5-13.7-.5-1-.8-1.2-1-1.2zm24.5 1.5c-.2 0-.5.5-.7 1.2-2.9 6.2-4.1 10.3-4.1 12 1.5 3.2 2.2 7 2.2 11.8 0 4.1 1.2 23 3.7 56.9 2.4 33.8 3.6 53 3.6 57.8 0 5.1-.2 9.6-.7 13.7-.2 2.6-.4 4.5-.2 5.5.2.7.5.7 1.2-.5.5-.9.9-2.1 1.9-3.8 3.3-8.6 5-18.7 5-30 0-3.8-.9-20.4-3.1-49.9-2.2-29.7-3.4-44.6-3.4-45.1 0-1.2.2-1.7.7-1 4.3 4.8 6.2 6 6.2 3.8 0-.5 0-1.7-.5-2.9-.5-1.9-2.2-6.7-5.3-14.6-2.9-7.5-4.6-12-5.3-13.7-.5-.7-.7-1.2-1.2-1.2zm-65.3.6c-3.3 0-5.2 1.9-6.2 6-.2.9-.2 1.4-.2 1.4 0 .2.2.2.2.2.2 0 .5-.3 1.2-.5.7-.5 1.6-.7 2.6-.7 1.6 0 2.6.9 2.6 2.6 0 2.2-2.9 6-8.4 12-.9 1.2-1.4 1.7-1.4 1.9v.2c.2 0 1-.4 2.4-1.4 3.4-2.4 6-5.3 8.2-8.4 1.9-3.1 3.1-6 3.1-8.6 0-3.1-1.4-4.8-4.1-4.7zm122.082.492c-1.613.108-3.507 1.157-5.682 3.107-2.9 2.4-4.3 5.3-4.3 8.4 0 2.6 2.1 5.001 6.7 7.401-3.3 3.6-8.4 7.4-15.4 11.7-6 3.3-11.7 6.7-17.5 10.3-1.4.7-1.9 1.5-1.9 1.7 0 0 0 .2.2.2s1.2-.2 2.4-.7c7.7-2.8 12-4.5 13-5 3.6-1.4 7.6-4.1 12.2-7.2 3.8-2.9 7-6 9.6-9.6 2.2 1.2 3.6 2.4 4.1 3.4 2.1-2.8 3.1-5 3.1-6.2-.5-1-1.9-2.2-4.3-3.4 1.2-3.4 1.7-6.3 1.7-8.9 0-2.8-.7-4.5-2.4-5a3.637 3.637 0 0 0-1.518-.208zM152 3.6c-2.2 0-4.1 2.2-6 6.5-1.7 6.3-2.9 11.1-3.4 14.2 0 .5-.2.8-.2 1h-.2c0-.3 0-.5-.2-1-.8-5.3-2.4-9.6-4.6-12.7-2.1-3.4-4.5-4.8-7.4-4.8-.2 0-.9.7-2 2.6-1.2 2-1.7 3.2-1.7 3.4 0 .7.5 1.7 1.9 2.9 1.5 1.2 2.4 1.9 3.4 1.9.7 0 1-.3 1.2-.5.3-.5.5-.5 1-.5 1 0 2.2 2.2 4.1 7 1.9 4.6 2.8 7.7 2.6 9.4.2 1 .2 1.7.7 1.7.5 0 1-.7 1.7-1.7.7-1.6 1.7-4.5 2.4-8.6 1.7-9.1 3.4-13.7 5.3-13.7.9 0 1.9.4 2.6 1.4 1 1 1.5 1.7 1.7 1.7.4 0 .9-.8 1.4-2.2.5-1 .5-1.9.5-2.4 0-1-.4-2-1.4-3.4-1-1.5-2.2-2.2-3.4-2.2zm234.2 1.8c-.3 0-.7.9-1.7 2.6-3.8 7-5.5 13.9-5.5 20.4 0 5.3 1.5 7.9 4.6 7.9 3.1 0 5.3-3.6 6.5-10.8.2-.2.2-.5 0-.7 0-.2 0-.2-.2 0 0 0-.2.3-.2.5-1.7 2.9-3.1 4.6-4.7 4.6-2.1 0-3.1-2.2-3.1-6 0-3.1 1.2-8.2 3.6-15.6.5-1.7.7-2.7.7-2.9zm-43.4 3.3c1.2 0 2 .8 2.2 2.2.3 1.4.3 2.9-.2 4.3-3.6-1.7-5.5-3.1-5.6-4.4 0-.4.4-.9 1.4-1.4 1-.5 1.7-.7 2.2-.7zM98.2 11.2c-.3 0-.7.9-1.7 2.6-3.8 7-5.5 13.9-5.5 20.4 0 5.3 1.5 7.9 4.6 7.9 3.1 0 5.3-3.6 6.5-10.8.2-.2.2-.5 0-.7 0-.2 0-.2-.2 0 0 0-.2.3-.2.5-1.7 2.8-3.1 4.5-4.7 4.6-2.1 0-3.1-2.2-3.1-6 0-3.1 1.2-8.2 3.6-15.6.5-1.7.7-2.7.7-2.9zm156.296 17.777c-.258-.033-.67.174-1.195.324C233.2 36.8 214 43.999 195.5 50.699c-1.2 2.4-1.9 4.601-2.5 6.701 22.6-9.4 42.5-17.1 59.3-23.3.5-.4 1.2-1.6 2.2-3.8.2-.7.2-1.2.2-1.2a.27.27 0 0 0-.204-.123zM65.4 30.4c-3.3 0-5.2 1.9-6.2 6-.2.9-.2 1.4-.2 1.4 0 .2.2.2.2.2.2 0 .5-.3 1.2-.5.7-.5 1.6-.7 2.6-.7 1.6 0 2.6.9 2.6 2.6 0 2.2-2.9 6-8.4 12-.9 1.2-1.4 1.7-1.4 1.9v.2c.2 0 1-.4 2.4-1.4 3.4-2.4 6-5.3 8.2-8.4 1.9-3.1 3.1-6 3.1-8.6 0-3.1-1.4-4.8-4.1-4.7zm379.211.577c-.173-.033-.586.174-1.111.324-26 9.6-51.2 18.699-75.4 27.799-1.2 2.4-1.9 4.6-2.4 6.8 2.7-1.7 16.4-7.2 40.6-16.1 23.7-8.9 36-13.5 36.2-13.7.5-.4 1.2-1.6 2.2-3.8.2-.7.2-1.2 0-1.2 0-.075-.03-.113-.089-.123zm49.37 7.554c-1.613.057-3.505 1.07-5.68 2.87C485.4 44 484 46.9 484 50c0 2.6 2.1 5 6.7 7.4-3.4 3.6-10.3 8.4-20.4 14.2-7.7 4.4-15.1 8.7-22.8 13-1.4.9-1.9 1.4-1.9 1.9 0 0 0 .2.2.2.5 0 1.2-.2 2.4-.7 1.2-.7 6.5-2.6 15.4-6.2 4.8-2 9.3-4.4 13.9-7 6.7-4.1 12-8.9 15.8-13.9 2.1 1.2 3.1 2.1 3.1 2.6 0 .2-.8 2.4-2.2 6.7-1.4 4.3-1.9 7.7-1.9 10.3 0 5.3 1.5 7.9 4.6 7.9 2.9 0 5.1-3.6 6.5-10.8v-.7c0-.2-.2-.2-.2-.2-.3.2-.3.5-.5.7-1.7 2.9-3.1 4.6-4.3 4.6-2.1 0-3.1-2.1-3.1-6.2 0-3.4 1.2-7.9 3.6-13.7.5-1.4.7-2.6.7-3.4 0-1.4-1-2.9-3.4-4.3 1.2-3.1 1.7-6 1.7-8.6 0-2.8-1-4.5-2.4-5a3.55 3.55 0 0 0-1.52-.269zM491.6 44.7c1.2 0 2 .801 2.2 2.201.3 1.4.3 2.9-.2 4.3-3.6-1.7-5.5-3.1-5.6-4.4 0-.4.4-.9 1.4-1.4 1-.5 1.7-.7 2.2-.7zm-152.8 4.4c-.5 0-.8.202-1 .702l-3.8 7.898c-.9-1-3.1-2.6-6.2-4.5-3.1-2.2-4.8-3.398-5.3-3.398-.3 0-.8.5-1 1l-4.6 9.6c-.2.5-.2.8 0 1 3.9 2.4 7.7 5 11.3 7.9.5.3 1-.001 1.2-.701 1.5-2.2 2.7-4.8 4.1-7.7 4.1 2.6 7.7 5 10.8 7.4.4.2.9.2 1.4-.5 3.1-5.3 4.8-8.9 4.8-10.6 0-.5-1.9-1.9-5.5-4.3-3.8-2.6-5.7-3.8-6.2-3.8zm-199.6 5c-.3 0-.7.9-1.7 2.6-3.8 7-5.5 13.9-5.5 20.4 0 5.3 1.5 7.901 4.6 7.901 3.1 0 5.3-3.6 6.5-10.8.2-.2.2-.5 0-.7 0-.2 0-.2-.2 0 0 0-.2.3-.2.5-1.6 2.9-3.1 4.6-4.7 4.6-2.1 0-3.1-2.2-3.1-6 0-3.1 1.2-8.2 3.6-15.6.5-1.7.7-2.7.7-2.9zm93.4 3.301c-.3 0-.5.5-1 1.2-1 1.2-1.2 2.4-1.2 3.8 0 2.6 1.5 6.2 4.1 11-.2 1.5-1.2 2.2-2.6 2.2-3.2 0-4.6-2.1-4.6-6.2 0-1.4-.5-3.6-1.2-6.7-.7-2.9-1.2-4.3-1.7-4.3-.2 0-.7.4-1.2 1.4-.5 1.2-.7 1.9-.7 2.4s.3 1.9 1 4.1c.5 2.4 1 3.8 1 4.8 0 1.7-.7 3.1-1.9 4.3-1.2 1.2-2.4 1.9-3.8 1.9-.9 0-1.9-1-2.6-2.4-.5-1.2-.7-2.7-.7-4.1 0-.7 0-1.4.2-2.4 0-1 .2-2.2.2-3.6 0-2.6-.5-3.8-1.2-3.8-.5 0-1.2.5-2.2 1.7-.9 1.2-1.4 2.4-1.4 3.8 0 .7.3 1.2 1 1.4.5.3 1 .5 1 1v6.2c0 2.4.5 4.6 1.7 6 1 1.5 2.2 2.2 3.4 2.2 3.6 0 6-2.6 7.4-7.4 1.2 3.9 3.1 5.8 6 5.8 1.7 0 3.1-1.5 4.3-4.1.9-1.9 1.4-4.1 1.4-6 0-.9-.5-2.4-1.6-4.4-1.2-3.3-1.9-5-1.9-5-.2-1-.5-2.2-.7-3.4 0-.9-.3-1.4-.5-1.4zm198.3 1.4c-2.2 0-4.1 2.2-6 6.5-1.7 6.3-2.9 11.1-3.4 14.2 0 .5-.2.8-.2 1h-.2c0-.3 0-.5-.2-1-.8-5.3-2.4-9.6-4.6-12.7-2.1-3.4-4.5-4.8-7.4-4.8-.2 0-1 .7-2 2.6-1.2 2-1.7 3.2-1.7 3.4 0 .7.5 1.7 1.9 2.9 1.5 1.2 2.4 1.9 3.4 1.9.7 0 1-.3 1.2-.5.3-.5.5-.5 1-.5 1 0 2.2 2.2 4.1 7 1.9 4.6 2.8 7.7 2.6 9.4.2 1 .2 1.7.7 1.7.5 0 1-.7 1.7-1.7.7-1.6 1.7-4.5 2.4-8.6 1.7-9.1 3.4-13.7 5.3-13.7.9 0 1.9.4 2.6 1.4 1 1 1.5 1.7 1.7 1.7.4 0 .9-.8 1.4-2.2.5-1 .5-1.9.5-2.4 0-1-.4-2-1.4-3.4-1-1.5-2.2-2.2-3.4-2.2zM38.5 60c-2.2 0-4.1 2.2-6 6.5-1.7 6.3-2.9 11.1-3.4 14.2 0 .5-.2.8-.2 1h-.2c0-.3 0-.5-.2-1-.8-5.3-2.4-9.6-4.6-12.7-2.1-3.4-4.5-4.8-7.4-4.8-.2 0-1 .7-2 2.6-1.2 2-1.7 3.2-1.7 3.4 0 .7.5 1.7 1.9 2.9 1.5 1.2 2.4 1.9 3.4 1.9.7 0 1-.3 1.2-.5.3-.5.5-.5 1-.5 1 0 2.2 2.2 4.1 7 1.9 4.6 2.8 7.7 2.6 9.4.2 1 .2 1.7.7 1.7.5 0 1-.7 1.7-1.7.7-1.6 1.7-4.5 2.4-8.6 1.7-9.1 3.4-13.7 5.3-13.7.9 0 1.9.4 2.6 1.4 1 1 1.5 1.7 1.7 1.7.4 0 .9-.8 1.4-2.2.5-1 .5-1.9.5-2.4 0-1-.4-2-1.4-3.4-1-1.5-2.2-2.2-3.4-2.2zm62 3.3c-3.3 0-5.2 1.9-6.2 6-.2.9-.2 1.4-.2 1.4 0 .2.2.2.2.2.2 0 .5-.3 1.2-.5.7-.5 1.6-.7 2.6-.7 1.6 0 2.6.9 2.6 2.6 0 2.2-2.9 6-8.4 12-.9 1.2-1.4 1.7-1.4 1.9v.2c.2 0 1-.4 2.4-1.4 3.4-2.4 6-5.3 8.2-8.4 1.9-3.1 3.1-6 3.1-8.6 0-3.1-1.5-4.8-4.1-4.7zm256 7.7c-.5 0-1.2 1.2-2.4 4.1-1.2 2.8-3.8 7.6-8.4 14.6-5.3 8.2-8.6 13-9.6 14.4-4.1-2.9-8-6.5-11.8-11.3-.9-1.2-1.4-1.7-1.4-1.9 0-.3 1.7-.5 4.8-.5 1.7 0 2.4-.3 2.4-.5v-.2s-.5-.7-1.7-1.4c-1.9-1.6-5.1-3.6-8.9-6.2-4.1-2.6-6.3-3.8-7-3.8-.2 0-.7 1.2-1.4 4.1-.5 2.8-.7 5.2-.7 7.4 0 1.4.4 2.6 1.4 3.6 1.9 1.9 3.1 3.1 3.6 3.8 5 7.2 9.6 12.9 13.9 17-5.1 7.9-8.2 13.9-10.1 18.5-1.9 5.3-2.9 11-2.9 16.8 0 8.7 2.8 13 8.6 13 3.6 0 8-1.6 13-5 4.8-2.8 7.9-5.7 9.8-8.6.9-1.5 1.9-3.6 2.6-6.5.9-3.1 1.4-5.5 1.4-7.4 0-4.6-.7-8.7-1.7-11.8-1.6-4.3-5-9.4-9.8-14.9 4.8-7.2 8.4-12.7 10.8-16.8 3.9-6.5 5.8-11.8 5.8-15.6 0-3.3-.2-4.8-.3-4.9zm19.1 17c-.5 0-.8.5-1 1.7-.5 1.2-.7 3.4-1.2 6.5-.5 3.3-.5 5-.5 5.5.2.4.7 1.2 1.4 2.6 1 1.2 1.7 2.8 2.2 5 1.2 4.1 3.6 9.8 6.9 16.9 2.9 6.3 4.3 9.6 4.3 10.1 0 2-2.9 5.1-8.4 9.4-4.9 3.641-11.324 7.82-19.206 12.456.722-4.528 2.013-9.983 3.906-16.457.3-1.5.5-2.698.5-3.398 0-.5 0-.701-.2-.701-.5 0-1 1-2.2 3.4-2.405 6.493-4.146 12.803-5.162 19a459.727 459.727 0 0 1-10.038 5.6c-9.4 5.1-21.1 10.6-35.3 16.6-20.4 8.6-31.5 13.4-33.4 14.4-5.3 2.4-7.9 3.9-7.9 4.1 0 .2 0 .2.5.2 1 0 3.4-.3 7.2-1 3.6-.5 12.7-2.6 27.1-6 13.7-3.3 20.9-5 21.4-5 2.6 0 11-4.1 25.4-12.5 1.405-.787 2.726-1.563 4.06-2.341.294 7.103 2.243 13.24 5.74 17.841 4.3 6 10.5 9.1 18.7 9.1 9.6 0 20.6-5 33.6-14.6 8.7-6.5 16.6-14 23.8-22.6 3.1-3.6 5.7-8.2 7.4-13.7 1.5-4.4 2.2-7.7 2.2-10.6l.5-.5v-13.2c-1 .5-1.5.5-1.7.5-2.4-5-5.3-9.1-8.4-12.7-3.6-3.6-6.7-5.5-9.8-5.5-4.1 0-7.9 2.1-11.5 6.2-3.8 4.8-5.5 10.1-5.5 16.1 0 7.9 5.8 12 17.3 12 5.3 0 9.6-.7 12.5-1.7.5 1.7 1 3.4 1 4.8 0 2.2-3.6 6.5-10.6 13.3-7.7 7.2-15.6 13.2-23.8 18.2-10.4 6.3-19 9.4-26.2 9.4-8.4 0-14.4-2.7-18.2-7.7-1.398-2.098-2.375-4.474-2.959-7.075 12.322-7.51 21.372-14.595 27.158-21.125 2-2.2 3.402-5.3 4.602-9.4.9-3.6 1.398-6.5 1.398-8.9 0-5.1-1.5-10.6-4.1-17.3-1.7-3.8-3.598-7.9-5.298-12 2.9.7 4.8 1.2 5.5 1.2.5 0 .699-.3.699-.5 0-.5-.7-1.4-2.4-3.1-4-4.1-7.6-8-11-11.8-.5-.5-.8-.7-1-.7zm-150.2 8.3c-.3 0-.8.2-1 .7l-4.6 9.6c-.2.5-.2.8 0 1 3.8 2.4 7.7 5.1 11.4 7.9.5.3.7 0 1.2-.7 3.3-5.3 5-8.6 5-10.3 0-.5-2-2-5.8-4.6-3.6-2.4-5.7-3.6-6.2-3.6zm-56.9.9c-.5.3-.7.8-1.2 2.2-1.4 4.6-2.4 7.9-2.6 10.1 2.1 3.6 3.1 5.6 3.1 5.8-1 1.6-3.1 2.6-6.5 2.6-2.6 0-4.8-1-6.7-2.4-1.9-1.4-2.6-3.1-2.6-4.8 0 .4.4-1.5 1.4-5.8 0-.4.2-.9.2-1.4 0-.9-.5-1.4-1.2-1.4-.5 0-1.2.4-2.2 1.4-2.4 3.8-4.8 7.7-7.4 11.5-3.9 5.1-8.7 7.7-14.9 7.7-5.1 0-9.4-1.4-12.3-4.6-1.5-1.4-3.2-3.8-4.6-7.2-.9-1.4-1.4-2.4-1.9-2.4s-.7.7-1.2 1.7c-1.9 6.2-2.9 9.6-2.9 10.3 0 1.2.4 2.6 1.4 4.3 5.6 10.3 8.2 18.9 8.2 25.4 0 2.4-3.6 6.4-11 12.2-8.4 6.2-17.8 11.5-28.1 15.8-12.5 5.3-24.5 7.9-36 7.9-12.7 0-22.6-4.3-29.3-12.5-5-6.2-7.4-13.2-7.4-20.6 0-1.4 1-8.4 3.4-20.6.2-.934.262-1.682.136-2.082 2.713-.538 4.661-4.104 5.764-10.718.2-.2.2-.5 0-.7 0-.2 0-.2-.2 0 0 0-.2.3-.2.5-1.7 2.9-3.1 4.5-4.7 4.6-2.1 0-3.1-2.2-3.1-6 0-3.1 1.2-8.2 3.6-15.6.5-1.7.7-2.7.7-2.9-.3 0-.7.9-1.7 2.6-3.8 7-5.5 13.9-5.5 20.4 0 5.15 1.42 7.744 4.346 7.887-.363.362-.74.958-1.045 1.812C2.9 136.1 1.699 140.9.699 146.4.2 150 0 153.4 0 157c0 11.7 2.4 21.3 7.7 29 6.8 9.9 17.6 14.9 32.2 14.9 13.7 0 28.6-4.5 44.4-13.4 12.5-7 22.1-14.2 28.3-21.6 4.5-5.3 6.7-14.9 6.7-29.3 2.2.5 4.1.7 5.8.7 8.4 0 15.3-4.8 20.6-14.2 3.1 5.7 6.7 8.6 10.8 8.6 5.5 0 9.8-2.7 12.7-7.7 2.7-4.3 4.1-9.6 4.1-15.6 0-3.6-1.2-6.9-3.1-9.8-.7-.9-1.2-1.2-1.7-1.4zm-89.8 4.1c-2.2 0-4.1 2.2-6 6.5-1.7 6.3-2.9 11.1-3.1 14.2-.3.5-.5.8-.5 1 0 .2 0 .2-.2 0v-1c-1-5.3-2.4-9.3-4.8-12.7-2.2-3.4-4.6-4.8-7.2-4.8-.3 0-1 .7-2.2 2.6-1.2 2-1.7 3.2-1.7 3.4 0 .7.7 1.7 1.9 2.9 1.5 1.2 2.4 1.9 3.4 1.9.7 0 1.2-.3 1.2-.5.2-.5.5-.5 1.2-.5s1.9 2.2 3.8 7c1.9 4.6 2.9 7.7 2.9 9.4a4 4 0 0 0 .172 1.216c-.422.487-.777.894-1.373 1.584-1.7 1.9-3.799 4-6.699 6.2-12 7.9-21.1 13.5-27.6 17.3-1.2.7-1.9 1.5-1.9 1.7 0 0 0 .2.2.2.5 0 1.2-.2 2.4-.7 8-2.8 12.3-4.5 13-5 3.6-1.6 7.6-4 12.2-7.4 5.1-3.6 8.4-7.5 10.1-11.3a96.54 96.54 0 0 0 1.063-2.932c.197-.252.403-.534.637-.869 1-1.6 1.7-4.5 2.4-8.6 1.7-9.1 3.6-13.699 5.5-13.699.7 0 1.7.4 2.4 1.4 1 1 1.5 1.7 1.7 1.7.7 0 1.2-.8 1.4-2.2.5-1 .7-1.9.7-2.4 0-1-.5-1.9-1.4-3.4-1.2-1.5-2.4-2.2-3.6-2.2zm446.4 2.3c-.5 0-1 .8-1.2 2.2-1.4 4.5-2.4 7.9-2.6 9.8 2.1 3.6 3.1 5.6 3.1 5.8-1 1.6-3.1 2.6-6.5 2.6-2.6 0-5-1-6.7-2.4-1.9-1.4-2.9-3.1-2.9-4.8 0 .5.7-1.4 1.7-5.5.5-2.1.3-3.1-.7-3.1-.7 0-1.4.4-2.4 1.4-2.4 3.9-5 7.7-7.4 11.8-3.9 5.1-8.9 7.7-14.9 7.7-7.5 0-11.3-2.9-11.3-8.2 0-1.2.2-2.7.7-4.6.5-1.9.7-3.4.7-4.1 0-.9-.2-1.4-.7-1.4-.7 0-1.7.4-2.9 1.4-3.9 3.3-7.7 6.2-11.6 8.2-1.2.8-5.3 2.7-11.5 5.8v13.2c8.4-3.9 14.9-7.9 18.7-12.5 0 11 4.8 16.8 14.9 16.8 8.4 0 15.3-4.8 20.6-14.4 3.2 5.8 6.8 8.9 10.6 8.9 5.8 0 10.1-2.6 13-7.9 2.7-4.4 4.1-9.4 4.1-15.4 0-3.9-1.2-7.2-3.1-10.1-.7-1-1.2-1.2-1.7-1.2zm-191 15.3c6.2 5.3 10.8 10.8 13.4 16.1.2.7-.3 1.7-1.7 3.1-3.4 3.3-7.5 6-11.8 7.9-3.1 1.2-5.5 1.9-7.4 1.9-4.3 0-6.2-1.4-6.2-4.3 0-2.1 1.7-6.2 5.5-12.7 3.4-5.8 6-9.8 8.2-12zm90.6 2.4c2.9 0 6 2.1 9.6 6.7-2.6.5-5 1-7.2 1-5.7 0-8.6-1.4-8.6-4.3 0-2.4 1.9-3.4 6.2-3.4zm92.382 33.868c-.291.023-.707.745-1.582 2.232-.7 1-.9 1.7-.7 2.2.5 1.6.7 2.6.7 2.6 0 .2-.2.2-.7.2-3.6 0-5.5-.3-5-1 .5-1.4.7-2.6.7-3.1s0-.7-.2-.7c-.5 0-1.2.4-1.7 1.4-.9 1.5-1.9 2.7-2.6 4.1-1.2 1.5-2.7 2.2-4.6 2.2-1 0-2.2-.2-3.4-.7-1.5-.5-2.7-.7-3.4-.7-3.6 0-7 1.2-10.6 3.8-2.9 1.9-5.5 4.5-7.9 7.4-3.6 4.4-6.5 7.5-8.4 9.4-4.1 3.1-7 5-8.9 6.2-1.9 1.2-2.9 1.9-2.9 1.9v.2c.5 0 2-.5 4.6-1.2 2.4-.7 4.6-1.9 6.8-3.5l10.8-10.8c5.1-4.8 10.1-7 14.9-7 .7 0 1.7.2 2.9.7 1.2.5 2.4.7 3.1.7 2.8 0 5.7-1.7 8.6-4.6 3.6 1.7 6.2 2 7.9 1 .5-.4 1.2-1.6 1.9-3.8.7-1.9 1.2-3.7 1.2-5.3 0-1.6-.4-3.1-1.4-3.8a.177.177 0 0 0-.118-.032zm-344.201 8.398c-.291.024-.705.747-1.58 2.235-.7 1-.901 1.699-.701 2.199.5 1.6.7 2.6.7 2.6 0 .2-.2.2-.7.2-3.6 0-5.5-.3-5-1 .5-1.4.7-2.6.7-3.1s0-.7-.2-.7c-.5 0-1.2.4-1.7 1.4-.9 1.5-1.9 2.7-2.6 4.1-1.2 1.5-2.7 2.2-4.6 2.2-1 0-2.2-.2-3.4-.7-1.5-.5-2.7-.7-3.4-.7-3.6 0-7 1.2-10.6 3.8-2.9 1.9-5.5 4.5-7.9 7.4-3.6 4.4-6.5 7.5-8.4 9.4-4.1 3.1-7 5-8.9 6.2-1.9 1.2-2.9 1.9-2.9 1.9v.2c.5 0 2-.5 4.6-1.2 2.4-.7 4.6-1.9 6.8-3.5l10.8-10.8c5.1-4.8 10.1-7 14.9-7 .7 0 1.7.2 2.9.7 1.2.5 2.4.7 3.1.7 2.8 0 5.7-1.7 8.6-4.6 3.6 1.7 6.2 2 7.9 1 .5-.4 1.2-1.6 1.9-3.8.7-1.9 1.2-3.6 1.2-5.3 0-1.6-.4-3.1-1.4-3.8a.185.185 0 0 0-.12-.034zm78.02 6.834c-2.2 0-4.1 2.2-6 6.5-1.7 6.3-2.901 11.1-3.401 14.2 0 .5-.2.8-.2 1h-.2c0-.3 0-.5-.2-1-.8-5.3-2.4-9.6-4.6-12.7-2.1-3.4-4.5-4.8-7.4-4.8-.2 0-1 .7-2 2.6-1.2 2-1.7 3.2-1.7 3.4 0 .7.5 1.7 1.9 2.9 1.5 1.2 2.4 1.9 3.4 1.9.7 0 1-.3 1.2-.5.3-.5.5-.5 1-.5 1 0 2.2 2.2 4.1 7 1.9 4.6 2.8 7.7 2.6 9.4.2 1 .2 1.7.7 1.7.5 0 1-.7 1.7-1.7.7-1.6 1.7-4.5 2.4-8.6 1.7-9.1 3.4-13.7 5.3-13.7.9 0 1.9.4 2.6 1.4 1 1 1.5 1.7 1.7 1.7.4 0 .9-.8 1.4-2.2.5-1 .5-1.9.5-2.4 0-1-.4-2-1.4-3.4-1-1.5-2.2-2.2-3.4-2.2zm-51.5 7.9c-3.3 0-5.202 1.9-6.202 6-.2.9-.199 1.4-.199 1.4 0 .2.2.2.2.2.2 0 .5-.3 1.2-.5.7-.5 1.6-.7 2.6-.7 1.6 0 2.6.9 2.6 2.6 0 2.2-2.9 6-8.4 12-.9 1.2-1.4 1.7-1.4 1.9v.2c.2 0 1-.4 2.4-1.4 3.4-2.4 6-5.3 8.2-8.4 1.9-3.1 3.1-6 3.1-8.6 0-3.1-1.5-4.8-4.1-4.7z"/></svg>