<svg xmlns="http://www.w3.org/2000/svg" viewBox="0 0 525 202"><path d="M230.8 0c-.7 0-1.7.5-2.4 1.7-3.3 6.4-5.7 13.4-6.9 21.2-.2.9-.2 1.9-.2 2.6 0 3.8 1.4 6 4.8 6s6-1.7 8.4-4.6c.7-1 1.2-3.6 1.7-7.7.2-3.6-2.2-7.4-7.2-11 .7-2.4 1.6-4.8 2.6-7 0-.3.2-.5.2-.5 0-.5-.5-.7-1-.7zm51.4.2c-.2 0-.5.5-.7 1.2-2.9 6.2-4.1 10.3-4.1 12 1.5 3.2 2.2 7 2.2 11.8 0 4.1 1.2 23 3.7 56.9 2.4 33.8 3.6 53 3.6 57.8 0 5.1-.2 9.6-.7 13.7-.2 2.6-.4 4.5-.2 5.5.2.7.5.7 1.2-.5.5-.9.9-2.1 1.9-3.8 3.3-8.6 5-18.7 5-30 0-3.8-.9-20.4-3.1-49.9-2.2-29.7-3.4-44.6-3.4-45.1 0-1.2.2-1.7.7-1 4.3 4.8 6.2 6 6.2 3.8 0-.5 0-1.7-.5-2.9-.5-1.9-2.2-6.7-5.3-14.6-2.9-7.5-4.6-12-5.3-13.7-.5-.7-.7-1.2-1.2-1.2zm-25 1.1c-.5 0-.8.3-1 1-2.7 6.4-4.1 10.5-4.1 12.2 1.5 3.1 2.2 6.9 2.2 11.5 0 5.3.9 22.3 3.1 51.1s3.4 45.3 3.4 49.4c0 6.8-.7 10.8-1.9 11.8-4.287 3.59-9.212 5.208-13.8 5.218v-.018c-7.5 0-11.3-2.9-11.3-8.9 0-1.7.2-3.4.7-5.3.3-.5.5-1.2.5-1.7 0-.9-.5-1.4-1-1.4s-2.4 1.9-6 6c-3.9 4.4-6 6.5-6.5 7-5.271 4.12-13.664 6.492-21.572 6.683-5.455-.18-9.997-2.267-13.627-6.184 5.5-6.3 8.398-14.199 8.398-23.799 0-3.8-1.199-8.1-3.799-12.7-2.7-5.3-5.8-7.9-8.9-7.9-3.6 0-6.4 2.1-8.6 6.7-2.1 4.3-3.1 10.3-3.1 17.5 0 4.8.7 9.6 2.4 14.4l-11.7 4.957v-.158c-12 5-20.4 8.9-25.2 11.5-8.4 4.6-15.2 9.6-20.2 15.4-3.8 4.5-7.6 9.302-11.8 13.702-6 6-12.2 9.1-18.2 9.1-3.3 0-6-1.201-7.9-3.801-1.9-2.1-2.9-5.3-2.9-9.1 0-5 1.6-11.7 5-20.6 1.998-5.54 3.34-9.46 4.095-12.043 1.417 1.825 3.44 2.743 6.105 2.743 3.6 0 8-1.6 13-5 4.8-2.8 7.9-5.7 9.8-8.6.9-1.5 1.9-3.6 2.6-6.5.9-3.1 1.4-5.5 1.4-7.4 0-4.6-.7-8.7-1.7-11.8-1.6-4.3-5-9.4-9.8-14.9 4.8-7.2 8.4-12.7 10.8-16.8 3.9-6.5 5.8-11.8 5.8-15.6 0-3.3-.3-4.8-.3-4.9-.5 0-1.2 1.2-2.4 4.1-1.2 2.8-3.8 7.6-8.4 14.6-5.3 8.2-8.6 13-9.6 14.4-4.1-2.9-8-6.5-11.8-11.3-.9-1.2-1.4-1.7-1.4-1.9 0-.3 1.7-.5 4.8-.5 1.7 0 2.4-.3 2.4-.5v-.2s-.5-.7-1.7-1.4c-1.9-1.6-5.1-3.6-8.9-6.2-4.1-2.6-6.3-3.8-7-3.8-.2 0-.7 1.2-1.4 4.1-.5 2.8-.7 5.2-.7 7.4 0 1.4.4 2.6 1.4 3.6 1.9 1.9 3.1 3.1 3.6 3.8 5 7.2 9.6 12.9 13.9 17-5.1 7.9-8.2 13.9-10.1 18.5-1.9 5.3-2.9 11-2.9 16.8 0 3.511.465 6.294 1.391 8.379-.097.171-.193.326-.291.521-7.4 14.7-11 26.4-11 35.3 0 6.5 1.7 12.3 5.5 16.6 3.6 4.5 7.9 6.7 12.7 6.7 5.8 0 11.5-3.4 17.3-10.1 9.6-11 17.1-18.5 22.1-22.3 2.6-2.2 7.7-4.8 15.1-8.4 3.578-1.59 9.072-3.988 16.7-7.357v.157l16.1-7c1.7 2.9 4.1 5.8 7 8.2 5.132 4.248 10.03 6.61 14.9 7.098v.102c.343 0 .694-.012 1.045-.027.252.011.503.024.754.025v-.07c6.165-.44 13.44-3.077 18.9-7.627 4.1-3.6 6.701-7.002 8.401-10.102.7 5.5 2.9 9.9 6.7 12.5 2.9 1.9 6.5 2.9 10.3 2.9h.02v.02c5.7 0 11.28-3.32 15.58-10.02 5.1-8.2 7.7-19.2 7.7-33.4 0-5-1-20.199-2.8-45.199-1.9-25.4-2.9-38.4-2.9-38.6 0-1.2.2-1.5.7-1 4 4.8 6.2 6 6.2 3.8 0-.5-.3-1.7-.5-3.1-.7-1.7-2.4-6.5-5.3-14.4-2.9-7.5-4.8-12-5.5-13.7-.5-1-.8-1.2-1-1.2zm-56.5 159.198v.002h.1l-.1-.002zM339.98 3.191c-1.612.108-3.504 1.16-5.68 3.11-2.9 2.4-4.3 5.298-4.3 8.398 0 2.6 2.1 5 6.7 7.4-3.4 3.6-8.4 7.402-15.4 11.702-6 3.3-11.7 6.699-17.5 10.299-1.4.7-1.9 1.5-1.9 1.7 0 0 0 .2.2.2s1.2-.2 2.4-.7c7.7-2.8 12-4.5 13-5 3.6-1.4 7.6-4.1 12.2-7.2 3.8-2.9 7-6 9.6-9.6 2.2 1.2 3.6 2.4 4.1 3.4 2.1-2.8 3.1-5 3.1-6.2-.5-1-1.9-2.2-4.3-3.4 1.2-3.4 1.7-6.3 1.7-8.9 0-2.8-.7-4.5-2.4-5a3.646 3.646 0 0 0-1.52-.209zM211.596 6.777c-.258-.032-.67.173-1.196.323-20.1 7.5-39.3 14.7-57.8 21.4-1.2 2.4-1.9 4.6-2.5 6.7 22.6-9.4 42.5-17.1 59.3-23.3.5-.4 1.2-1.6 2.2-3.8.2-.7.2-1.2.2-1.2a.273.273 0 0 0-.204-.123zM337.6 9.301c1.2 0 2 .799 2.2 2.199.3 1.4.3 2.9-.2 4.3-3.6-1.7-5.6-3.1-5.6-4.4 0-.4.4-.9 1.4-1.4 1-.5 1.7-.7 2.2-.7zm40.2.1c-.3 0-.7.899-1.7 2.599-3.8 7-5.5 13.9-5.5 20.4 0 5.3 1.5 7.9 4.6 7.9 3.1 0 5.3-3.6 6.5-10.8.2-.2.2-.5 0-.7 0-.2 0-.2-.2 0 0 0-.2.3-.2.5-1.7 2.8-3.1 4.5-4.7 4.6-2.1 0-3.1-2.2-3.1-6 0-3.1 1.2-8.2 3.6-15.6.5-1.7.7-2.7.7-2.9zm-151.5 5.298c5 2.8 7.4 5.001 7.4 6.201-.5.9-1.7 1.9-3.3 2.7-1.7.9-3.1 1.4-4.3 1.4-1.5 0-2.2-1-2.2-2.4 0-2.4.7-5 2.4-7.9zM137.2 19.5c-3.3 0-5.2 1.9-6.2 6-.2.9-.2 1.4-.2 1.4 0 .2.2.2.2.2.2 0 .5-.3 1.2-.5.7-.5 1.6-.7 2.6-.7 1.6 0 2.6.9 2.6 2.6 0 2.2-2.9 6-8.4 12-.9 1.2-1.4 1.7-1.4 1.9v.2c.2 0 1-.4 2.4-1.4 3.4-2.4 6-5.3 8.2-8.4 1.9-3.1 3.1-6 3.1-8.6 0-3.1-1.4-4.8-4.1-4.7zm-38.6 9.3c-.5 0-.8.2-1 .7l-3.8 7.9c-1-.9-3.1-2.6-6.2-4.5-3.1-2.2-4.8-3.4-5.3-3.4-.3 0-.8.5-1 1l-4.6 9.6c-.2.5-.2.8 0 1 3.9 2.4 7.7 5 11.3 7.9.5.3 1 0 1.2-.7 1.5-2.2 2.7-4.8 4.1-7.7 4.1 2.6 7.7 5 10.8 7.4.4.2.9.2 1.4-.5 3.1-5.3 4.8-8.9 4.8-10.6 0-.5-1.9-1.9-5.5-4.3-3.8-2.6-5.7-3.8-6.2-3.8zm341.011 2.776c-.173-.033-.586.174-1.111.324-26 9.6-51.2 18.7-75.4 27.8-1.2 2.4-1.9 4.6-2.4 6.8 2.7-1.7 16.4-7.2 40.6-16.1 23.7-8.9 36-13.5 36.2-13.7.5-.4 1.2-1.6 2.2-3.8.2-.7.2-1.2 0-1.2 0-.076-.03-.113-.089-.124zm-243.115 3.1c-.258-.033-.67.174-1.195.324C175.2 42.5 156 49.7 137.5 56.4c-1.2 2.4-1.9 4.5-2.5 6.7 22.6-9.4 42.5-17.1 59.3-23.3.5-.4 1.2-1.6 2.2-3.8.2-.7.2-1.2.2-1.2a.272.272 0 0 0-.204-.124zm292.186 4.656c-1.613.056-3.507 1.067-5.682 2.867-2.9 2.6-4.3 5.502-4.3 8.602 0 2.6 2.1 4.998 6.7 7.398C482 61.8 475.1 66.6 465 72.4c-7.7 4.4-15.1 8.7-22.8 13-1.4.9-1.9 1.4-1.9 1.9 0 0 0 .2.2.2.5 0 1.2-.2 2.4-.7 1.2-.7 6.5-2.6 15.4-6.2 4.8-2 9.3-4.4 13.9-7 6.7-4.1 12-8.9 15.8-13.9 2.1 1.2 3.1 2.1 3.1 2.6 0 .2-.8 2.4-2.2 6.7-1.4 4.3-1.9 7.7-1.9 10.3 0 5.3 1.5 7.9 4.6 7.9 2.9 0 5.1-3.6 6.5-10.8v-.7c0-.2-.2-.2-.2-.2-.3.2-.3.5-.5.7-1.7 2.9-3.1 4.6-4.3 4.6-2.1 0-3.1-2.1-3.1-6.2 0-3.4 1.2-7.9 3.6-13.7.5-1.4.8-2.6.7-3.4 0-1.4-1-2.9-3.4-4.3 1.2-3.1 1.7-6 1.7-8.6 0-2.8-1-4.5-2.4-5a3.54 3.54 0 0 0-1.518-.268zM486.4 45.6c1.2 0 2 .8 2.2 2.2.3 1.4.3 2.9-.2 4.3-3.6-1.7-5.6-3.2-5.6-4.4 0-.4.4-.9 1.4-1.4 1-.5 1.7-.7 2.2-.7zm-261.7 2.2c-.3 0-.7.9-1.7 2.6-3.8 7-5.5 13.9-5.5 20.4 0 5.3 1.5 7.9 4.6 7.9 3.1 0 5.3-3.6 6.5-10.8.2-.2.2-.5 0-.7 0-.2 0-.2-.2 0 0 0-.2.3-.2.5-1.7 2.8-3.1 4.5-4.7 4.6-2.1 0-3.1-2.2-3.1-6 0-3.1 1.2-8.2 3.6-15.6.5-1.7.7-2.7.7-2.9zM55.6 49.5c-3.3 0-5.2 1.9-6.2 6-.2.9-.2 1.4-.2 1.4 0 .2.2.2.2.2.2 0 .5-.3 1.2-.5.7-.5 1.6-.7 2.6-.7 1.6 0 2.6.9 2.6 2.6 0 2.2-2.9 6-8.4 12-.9 1.2-1.4 1.7-1.4 1.9v.2c.2 0 1-.4 2.4-1.4 3.4-2.4 6-5.3 8.2-8.4 1.9-3.1 3.1-6 3.1-8.6 0-3.1-1.4-4.8-4.1-4.7zm278 .4c-.5 0-.8.2-1 .7l-3.8 7.9c-1-.9-3.2-2.6-6.2-4.5-3.1-2.2-4.8-3.4-5.3-3.4-.3 0-.8.5-1 1l-4.6 9.6c-.2.5-.2.8 0 1 3.9 2.4 7.7 5 11.3 7.9.5.3 1 0 1.2-.7 1.5-2.2 2.7-4.8 4.1-7.7 4.1 2.6 7.7 5 10.8 7.4.4.2.9.2 1.4-.5 3.1-5.3 4.8-8.9 4.8-10.6 0-.5-1.9-1.9-5.5-4.3-3.8-2.6-5.7-3.8-6.2-3.8zm92.3 9.8c-2.2 0-4.1 2.2-6 6.5-1.7 6.3-2.9 11.1-3.4 14.2 0 .5-.2.8-.2 1h-.2c0-.3 0-.5-.2-1-.8-5.3-2.4-9.6-4.6-12.7-2.1-3.4-4.5-4.8-7.4-4.8-.3 0-1 .7-2 2.6-1.2 2-1.7 3.2-1.7 3.4 0 .7.4 1.7 1.9 2.9s2.4 1.9 3.4 1.9c.7 0 1-.3 1.2-.5.3-.5.5-.5 1-.5 1 0 2.2 2.2 4.1 7 1.9 4.6 2.8 7.7 2.6 9.4.2 1 .2 1.7.7 1.7.5 0 1-.7 1.7-1.7.7-1.6 1.7-4.5 2.4-8.6 1.7-9.1 3.4-13.7 5.3-13.7.9 0 1.9.4 2.6 1.4 1 1 1.5 1.7 1.7 1.7.4 0 .9-.8 1.4-2.2.5-1 .5-1.9.5-2.4 0-1-.4-2-1.4-3.4-1-1.5-2.2-2.2-3.4-2.2zM182.4 66c-.5 0-.8.2-1 .7l-3.8 7.9c-1-.9-3.2-2.6-6.2-4.5-3.1-2.2-4.8-3.4-5.3-3.4-.3 0-.8.5-1 1l-4.6 9.6c-.2.5-.2.8 0 1 3.9 2.4 7.7 5 11.3 7.9.5.3 1 0 1.2-.7 1.5-2.2 2.7-4.8 4.1-7.7 4.1 2.6 7.7 5 10.8 7.4.4.2.9.2 1.4-.5 3.1-5.3 4.8-8.9 4.8-10.6 0-.5-1.9-1.9-5.5-4.3-3.8-2.6-5.7-3.8-6.2-3.8zm168.9 5.6c-.5 0-1.2 1.2-2.4 4.1-1.2 2.8-3.8 7.6-8.4 14.6-5.3 8.2-8.6 13-9.6 14.4-4.1-2.9-8-6.5-11.8-11.3-.9-1.2-1.4-1.7-1.4-1.9 0-.3 1.7-.5 4.8-.5 1.7 0 2.4-.3 2.4-.5v-.2s-.5-.7-1.7-1.4c-1.9-1.6-5.1-3.6-8.9-6.2-4.1-2.6-6.3-3.8-7-3.8-.2 0-.7 1.2-1.4 4.1-.5 2.8-.7 5.2-.7 7.4 0 1.4.4 2.6 1.4 3.6 1.9 1.9 3.1 3.1 3.6 3.8 5 7.2 9.6 12.9 13.9 17-5.1 7.9-8.2 13.9-10.1 18.5-1.9 5.3-2.9 11-2.9 16.8 0 8.7 2.8 13 8.6 13 3.6 0 8-1.6 13-5 4.8-2.8 7.9-5.7 9.8-8.6.9-1.5 1.9-3.6 2.6-6.5.9-3.1 1.4-5.5 1.4-7.4 0-4.6-.7-8.7-1.7-11.8-1.6-4.3-5-9.4-9.8-14.9 4.8-7.2 8.4-12.7 10.8-16.8 3.9-6.5 5.8-11.8 5.8-15.6 0-3.3-.3-4.8-.3-4.9zm-287 12.3c-2.4 0-4.3 2.2-6.2 6.5-1.7 6.2-2.6 11-3.1 13.9-.3.8-.5 1-.5 1 0 .2 0 .2-.2 0v-1c-1-5.1-2.4-9.4-4.6-12.5-2.1-3.4-4.8-4.8-7.4-4.8-.4 0-1.6 1.9-3.8 6-.01.024-.01.054-.016.08-1.437 2.375-4.3 5.405-8.984 8.82-11.8 7.9-20.9 13.7-27.6 17.3-1.2.7-1.9 1.5-1.9 1.7 0 0 0 .2.2.2.5 0 1.2-.2 2.4-.7 8-2.8 12.3-4.5 13-5 3.6-1.6 7.6-4 12.2-7.4 4.3-3.1 7.7-6.7 10.1-11.3a39.1 39.1 0 0 0 1.11-2.216c.283.416.65.876 1.19 1.416 1.4 1.2 2.6 1.9 3.6 1.9.7 0 1.2-.3 1.4-.5 0-.5.5-.5 1-.5.7 0 2.1 2.2 3.8 7 1.9 4.6 2.9 7.7 2.9 9.4 0 .9.3 1.4.5 1.4.5 0 1-.5 1.7-1.7 1-1.7 1.7-4.3 2.4-8.4 1.7-9.1 3.6-13.7 5.5-13.7.7 0 1.7.4 2.4 1.4 1 1 1.5 1.7 1.7 1.7.7 0 1.2-.8 1.7-2.2.3-1 .5-1.9.5-2.4 0-1-.5-2-1.6-3.2-1.2-1.5-2.4-2.2-3.4-2.2zm86.3 1.9c-2.2 0-4.1 2.2-6 6.5-1.7 6.3-2.9 11.1-3.4 14.2 0 .5-.2.8-.2 1h-.2c0-.3 0-.5-.2-1-.8-5.3-2.4-9.6-4.6-12.7-2.1-3.4-4.5-4.8-7.4-4.8-.2 0-1 .7-2 2.6-1.2 2-1.7 3.2-1.7 3.4 0 .7.5 1.7 1.9 2.9 1.5 1.2 2.4 1.9 3.4 1.9.7 0 1-.3 1.2-.5.3-.5.5-.5 1-.5 1 0 2.2 2.2 4.1 7 1.9 4.6 2.8 7.7 2.6 9.4.2 1 .2 1.7.7 1.7.5 0 1-.7 1.7-1.7.7-1.6 1.7-4.5 2.4-8.6 1.7-9.1 3.4-13.7 5.3-13.7.9 0 1.9.4 2.6 1.4 1 1 1.5 1.7 1.7 1.7.4 0 .9-.8 1.4-2.2.5-1 .5-1.9.5-2.4 0-1-.4-2-1.4-3.4-1-1.5-2.2-2.2-3.4-2.2zm96.638.276c-.187-.033-.488.174-1.238.324-15.1 5.5-29.5 10.8-43.2 15.6-1.2 2.4-2 4.5-2.4 6.7 17.1-7.2 31.9-12.9 44.9-17.5.5-.4 1.2-1.6 1.9-3.8.4-.7.4-1.2.2-1.2-.05-.076-.1-.113-.162-.124zM370.301 88.6c-.5 0-.8.5-1 1.7-.5 1.2-.701 3.4-1.201 6.5-.5 3.3-.5 5-.5 5.5.2.4.7 1.2 1.4 2.6 1 1.2 1.7 2.8 2.2 5 1.2 4.1 3.6 9.8 6.9 16.9 2.9 6.3 4.3 9.6 4.3 10.1 0 2-2.9 5.1-8.4 9.4-4.82 3.583-11.11 7.682-18.814 12.227.736-4.425 1.992-9.698 3.814-15.927.3-1.5.5-2.7.5-3.4 0-.5 0-.7-.2-.7-.5 0-1 1-2.2 3.4-2.337 6.309-4.038 12.442-5.067 18.47a455.726 455.726 0 0 1-10.433 5.83c-9.4 5.1-21.1 10.6-35.3 16.6-20.4 8.6-31.5 13.4-33.4 14.4-5.3 2.4-7.9 3.9-7.9 4.1 0 .2 0 .2.5.2 1 0 3.4-.3 7.2-1 3.6-.5 12.7-2.6 27.1-6 13.7-3.3 20.9-5 21.4-5 2.6 0 11-4.1 25.4-12.5 1.504-.843 2.922-1.675 4.345-2.508.225 7.302 2.182 13.608 5.754 18.309 4.3 6 10.501 9.1 18.701 9.1 9.6 0 20.6-5 33.6-14.6 8.7-6.5 16.6-14.002 23.8-22.602 3.1-3.6 5.7-8.199 7.4-13.699 1.5-4.4 2.2-7.7 2.2-10.6l.5-.5v.3c8.4-3.9 14.9-7.9 18.7-12.5 0 11 4.8 16.8 14.9 16.8 8.4 0 15.3-4.8 20.6-14.4 3.2 5.8 6.8 8.9 10.6 8.9 5.8 0 10.1-2.6 13-7.9 2.7-4.4 4.1-9.4 4.1-15.4 0-3.9-1.2-7.2-3.1-10.1-.7-1-1.2-1.2-1.7-1.2s-1 .8-1.2 2.2c-1.4 4.5-2.4 7.9-2.6 9.8 2.1 3.6 3.1 5.6 3.1 5.8-1 1.6-3.1 2.6-6.5 2.6-2.6 0-5-1-6.7-2.4-1.9-1.4-2.9-3.1-2.9-4.8 0 .5.7-1.4 1.7-5.5.5-2.1.3-3.1-.7-3.1-.7 0-1.4.4-2.4 1.4-2.4 3.9-5 7.7-7.4 11.8-3.9 5.1-8.9 7.7-14.9 7.7-7.5 0-11.3-2.9-11.3-8.2 0-1.2.2-2.7.7-4.6.5-1.9.7-3.4.7-4.1 0-.9-.2-1.4-.7-1.4-.7 0-1.7.4-2.9 1.4-3.8 3.4-7.6 6.3-11.6 8.1-1.2.8-5.3 2.7-11.5 5.8v-.2c-1 .5-1.5.5-1.7.5-2.4-5-5.3-9.1-8.4-12.7-3.6-3.6-6.7-5.5-9.8-5.5-4.1 0-7.9 2.1-11.5 6.2-3.8 4.8-5.5 10.1-5.5 16.1 0 7.9 5.8 12 17.3 12 5.3 0 9.6-.7 12.5-1.7.5 1.7 1 3.4 1 4.8 0 2.1-3.6 6.5-10.6 13.3-7.7 7.2-15.6 13.2-23.8 18.2-10.4 6.3-19 9.4-26.2 9.4-8.4 0-14.4-2.7-18.2-7.7-1.475-2.212-2.492-4.729-3.06-7.498 12.218-7.465 21.206-14.508 26.96-21.002 2-2.2 3.4-5.3 4.6-9.4.9-3.6 1.4-6.5 1.4-8.9 0-5.1-1.5-10.6-4.1-17.3-1.7-3.8-3.6-7.9-5.3-12 2.9.7 4.8 1.2 5.5 1.2.5 0 .7-.3.7-.5 0-.5-.7-1.4-2.4-3.1-4-4.1-7.6-8-11-11.8-.5-.5-.8-.7-1-.7zM99.1 102c6.2 5.3 10.8 10.8 13.4 16.1.3.7-.2 1.6-1.7 3.1-3.4 3.3-7.5 6-11.8 7.9-3.1 1.2-5.5 1.9-7.4 1.9-4.3 0-6.2-1.4-6.2-4.3 0-2.1 1.7-6.2 5.5-12.7 3.4-5.8 6-9.8 8.2-12zm81.1 7.2c2.2 0 4.6 1.9 7.2 5.5 2.4 3.3 3.6 5.7 3.6 7.4 0 1-1.4 2.4-4.7 4.6-2.7 1.9-4.8 3.3-7 4.3-.8-1.2-2-3.1-3.4-6.2-1.4-3.6-2.4-6-2.4-7.4 0-1.7.7-3.4 2.4-5.3 1.4-1.9 2.9-2.9 4.3-2.9zm148.6 10.3c6.2 5.3 10.8 10.8 13.4 16.1.2.7-.2 1.7-1.7 3.1-3.4 3.3-7.5 6-11.8 7.9-3.1 1.2-5.5 1.9-7.4 1.9-4.3 0-6.2-1.4-6.2-4.3 0-2.1 1.7-6.2 5.5-12.7 3.4-5.8 6-9.8 8.2-12zm90.9 2.7c2.9 0 6 2.1 9.6 6.7-2.6.4-5 .9-7.2 1-5.7 0-8.6-1.4-8.6-4.3 0-2.4 1.9-3.4 6.2-3.4zm-359.8 9c-2.2 0-4.1 2.2-6 6.5-1.7 6.3-2.9 11.1-3.4 14.2 0 .5-.2.8-.2 1h-.2c0-.3 0-.5-.2-1-.8-5.3-2.4-9.6-4.6-12.7-2.1-3.4-4.5-4.8-7.4-4.8-.3 0-1 .7-2 2.6-1.2 2-1.7 3.2-1.7 3.4 0 .7.5 1.7 1.9 2.9 1.5 1.2 2.4 1.9 3.4 1.9.7 0 1-.3 1.2-.5.3-.5.5-.5 1-.5 1 0 2.2 2.2 4.1 7 1.9 4.6 2.8 7.7 2.6 9.4.2 1 .2 1.7.7 1.7.5 0 1-.7 1.7-1.7.7-1.6 1.7-4.5 2.4-8.6 1.7-9.1 3.4-13.7 5.3-13.7.9 0 1.9.4 2.6 1.4 1 1 1.5 1.7 1.7 1.7.4 0 .9-.8 1.4-2.2.5-1 .5-1.9.5-2.4 0-1-.4-2-1.4-3.4-1-1.5-2.2-2.2-3.4-2.2zm62.038 14.677c-.188-.033-.489.172-1.239.322-11.1 3.8-21.4 7.6-31 11C88.5 159.6 87.8 161.7 87.4 164c12.2-5.6 23-9.6 32.6-13 .5-.4 1.2-1.6 1.9-3.8.4-.7.4-1.2.2-1.2-.05-.075-.1-.112-.162-.123zm389.843 10.19c-.291.023-.707.746-1.582 2.234-.7 1-.899 1.699-.699 2.199.5 1.6.7 2.6.7 2.6 0 .2-.2.2-.7.2-3.6 0-5.5-.3-5-1 .5-1.4.7-2.6.7-3.1s0-.7-.2-.7c-.5 0-1.2.4-1.7 1.4-.9 1.5-1.9 2.7-2.6 4.1-1.2 1.5-2.7 2.2-4.6 2.2-1 0-2.2-.2-3.4-.7-1.5-.5-2.7-.7-3.4-.7-3.6 0-7 1.2-10.6 3.8-2.9 1.9-5.5 4.5-7.9 7.4-3.6 4.4-6.5 7.5-8.4 9.4-4.1 3.1-7 5-8.9 6.2-1.9 1.2-2.9 1.9-2.9 1.9v.2c.5 0 2-.5 4.6-1.2 2.4-.8 4.6-2 6.8-3.5l10.8-10.8c5.1-4.8 10.1-7 14.9-7 .7 0 1.7.2 2.9.7 1.2.5 2.4.7 3.1.7 2.8 0 5.7-1.7 8.6-4.6 3.6 1.7 6.2 2 7.9 1 .5-.4 1.2-1.6 1.9-3.8.7-1.9 1.2-3.6 1.2-5.3 0-1.6-.4-3.1-1.4-3.8a.185.185 0 0 0-.119-.034zM268 165c-3.3 0-5.2 1.9-6.2 6-.2.9-.2 1.4-.2 1.4 0 .2.2.2.2.2.2 0 .5-.3 1.2-.5.7-.5 1.6-.7 2.6-.7 1.6 0 2.6.9 2.6 2.6 0 2.2-2.9 6-8.4 12-.9 1.2-1.4 1.7-1.4 1.9v.2c.2 0 1-.4 2.4-1.4 3.4-2.4 6-5.3 8.2-8.4 1.9-3.1 3.1-6 3.1-8.6 0-3.2-1.4-4.8-4.1-4.7zm-86.7 4.8c-2.2 0-4.1 2.2-6 6.5-1.7 6.3-2.9 11.1-3.4 14.2 0 .5-.2.8-.2 1h-.2c0-.3 0-.5-.2-1-.8-5.3-2.4-9.6-4.6-12.7-2.1-3.4-4.5-4.8-7.4-4.8-.2 0-.9.7-2 2.6-1.2 2-1.7 3.2-1.7 3.4 0 .7.5 1.7 1.9 2.9 1.5 1.2 2.4 1.9 3.4 1.9.7 0 1-.3 1.2-.5.3-.5.5-.5 1-.5 1 0 2.2 2.2 4.1 7 1.9 4.6 2.8 7.7 2.6 9.4.2 1 .2 1.7.7 1.7.5 0 1-.7 1.7-1.7.7-1.6 1.7-4.5 2.4-8.6 1.7-9.1 3.4-13.7 5.3-13.7.9 0 1.9.4 2.6 1.4 1 1 1.5 1.7 1.7 1.7.4 0 .9-.8 1.4-2.2.5-1 .5-1.9.5-2.4 0-1-.4-2-1.4-3.4-1-1.5-2.2-2.2-3.4-2.2zm44.6 12.3c-.3 0-.8.2-1 .7l-4.6 9.6c-.2.5-.2.8 0 1 3.8 2.4 7.7 5.1 11.4 7.9.5.3.7 0 1.2-.7 3.3-5.3 5-8.6 5-10.3 0-.5-2-2-5.8-4.6-3.6-2.4-5.7-3.6-6.2-3.6z"/></svg>