<svg xmlns="http://www.w3.org/2000/svg" viewBox="0 0 576 203"><path d="M333.8 0c-.2 0-.5.5-.7 1.2-2.9 6.2-4.1 10.3-4.1 12 1.5 3.2 2.2 7 2.2 11.8 0 4 1.2 23 3.7 56.9 2.4 33.8 3.6 53 3.6 57.8 0 5.1-.2 9.6-.7 13.7-.2 2.6-.4 4.5-.2 5.5.2.7.5.7 1.2-.5.5-.9.9-2.1 1.9-3.8 3.3-8.6 5-18.7 5-30 0-3.8-.9-20.4-3.1-49.9-2.2-29.7-3.4-44.6-3.4-45.1 0-1.2.2-1.7.7-1 4.3 4.8 6.2 6 6.2 3.8 0-.5 0-1.7-.5-2.9-.5-1.9-2.2-6.7-5.3-14.6-2.9-7.5-4.6-12-5.3-13.7-.5-.7-.7-1.2-1.2-1.2zM187.6.2c-2.2 0-4.1 2.2-6 6.5-1.7 6.3-2.9 11.1-3.4 14.2 0 .5-.2.8-.2 1h-.2c0-.3 0-.5-.2-1-.8-5.3-2.4-9.6-4.6-12.7-2.1-3.4-4.5-4.8-7.4-4.8-.3 0-1 .7-2 2.6-1.2 2-1.7 3.2-1.7 3.4 0 .7.5 1.7 1.9 2.9 1.5 1.2 2.4 1.9 3.4 1.9.7 0 1-.3 1.2-.5.3-.5.5-.5 1-.5 1 0 2.2 2.2 4.1 7 1.9 4.6 2.8 7.7 2.6 9.4.2 1 .2 1.7.7 1.7.5 0 1-.7 1.7-1.7.7-1.6 1.7-4.5 2.4-8.6 1.7-9.1 3.4-13.7 5.3-13.7.9 0 1.9.4 2.6 1.4 1 1 1.5 1.7 1.7 1.7.4 0 .9-.8 1.4-2.2.5-1 .5-1.9.5-2.4 0-1-.4-2-1.4-3.4-1-1.5-2.2-2.2-3.4-2.2zm105.9.9c-3.3 0-5.2 1.9-6.2 6-.2.9-.2 1.4-.2 1.4 0 .2.2.2.2.2.2 0 .5-.3 1.2-.5.7-.5 1.6-.7 2.6-.7 1.6 0 2.6.9 2.6 2.6 0 2.2-2.9 6-8.4 12-.9 1.2-1.4 1.7-1.4 1.9v.2c.2 0 1-.4 2.4-1.4 3.4-2.4 6-5.3 8.2-8.4 1.9-3.1 3.1-6 3.1-8.6 0-3.2-1.5-4.8-4.1-4.7zm19.3 1.6c-.3 0-.5.3-1 1-2.7 6.4-4.1 10.5-4.1 12.2 1.5 3.1 2.2 6.9 2.2 11.5s1.2 23.3 3.6 56.4c2.4 33.1 3.6 52.5 3.6 58.3 0 3.3-.7 5.7-1.9 6.7-7.9 7.4-17.7 14.6-29 21.6-15.6 9.6-29.1 14.4-40.1 14.4-12 0-20.7-4.4-26.2-13-3.3-5.3-5-11.1-5-17.3 0-6.5 1.2-13.4 4.1-21.1 1-1.9 1.2-3.3 1.2-4.3 0-.488-.003-.686-.188-.696a21.369 21.369 0 0 0 1.888-2.304c2.6-3.6 3.8-7.2 3.8-10.6 0-8.38-3.884-15.367-11.747-20.861 26.375-11.489 51.568-22.247 74.348-32.338 1.2-.5 1.9-1.201 2.6-2.201l5-8.9c.7-1.2.699-2.2.199-2.4-.2-.5-1.2-.3-2.6.2-7.9 3.3-15.9 6.7-23.5 10.2-7 2.4-12.3 3.8-16.1 3.8-8.9 0-17.3-4.1-25-12-6.2-6.7-10.1-13.2-10.8-19.7.5-2.4 4.8-4.8 12.7-7.2 8.4-2.4 17-3.6 25.9-3.6 6.5 0 12.3.5 17.3 1.9 1.4.5 2.6.7 3.1.7h.5c0-.4-1.2-1.6-3.6-3.8-3.2-2.1-7-4.3-11.8-6.2-6.2-2.4-12.2-3.4-18-3.4-9.2 0-17.3 2.9-23.8 8.9-5.7 5.3-8.6 12-8.6 20.2 0 8.1 2.4 15.6 7.4 22.3 4.1 5.1 8.9 9.4 14.9 12.5-12.223 4.77-19.131 7.294-20.2 7.816V81.4c-13 5.3-19.7 9.6-19.7 12.7 0 .2 0 .5.2.7-.4-.3-.7-.5-1.4-.5-.9 0-1.6.8-2.6 2.2-3.6 6.5-6.2 10.4-7.4 11.8-5.473 6.369-11.44 9.762-18.1 9.796v-.196c-3.3 0-6-.7-7.4-2.6-.7-.5-1.7-2.2-3.1-5.3-.7-1.4-1.2-2.4-1.7-2.4s-1 .7-1.2 1.9c-1.9 6-2.9 9.6-2.9 10.3 0 1 .4 2.4 1.4 4.1 4.6 9.1 7 17.7 7 25.9-1 2.2-5.1 6-11.8 11.8-7.9 6.2-15.6 11.5-23.5 15.8-9.9 5.3-18.3 7.9-25 7.9-5.5 0-10.3-2.4-13.9-7.7-3.2-4-4.6-8.6-4.6-13.4 0-5.5 1.4-13.4 4.3-24 .232-.698.393-1.32.506-1.868.398-.212.794-.415 1.193-.633 12.5-7.2 22.102-14.399 28.602-21.799 4-4.8 6.199-11.8 6.199-20.9 0-4.5-1.7-10-4.9-16.1-3.8-8-6-12.3-6.2-13 2.7.7 4.6 1.2 5.8 1.2 1.2 0 1.7-.3 1.7-1s-.4-1.4-1.4-2.4c-6-6-10.1-10-12-12.2-.4-.5-.9-.7-1.4-.7-.5 0-.8.5-1 1.7-1.2 6.5-1.9 10.1-1.9 10.8 0 .9.4 1.6 1.4 2.6.7.7 1.7 2.1 2.4 4.3 1.7 6.7 4.3 13.6 7.9 20.6 3.1 6 4.8 9.1 4.8 9.6 0 2.4-3.8 6.4-11 12.2-8.2 6.2-17.3 11.5-27.6 15.8-12.5 5.3-24.5 7.9-35.8 7.9-12.7 0-22.6-4.3-29.3-12.5-5-6.4-7.4-13.2-7.4-20.6 0-2.2.4-5.5 1.4-10.1.5-2.4 1-5 1.7-7.4.113-.609.166-1.094.183-1.507 3.056-.064 5.229-3.657 6.418-10.793.2-.2.2-.5 0-.7 0-.2-.001-.2-.201 0 0 0-.2.3-.2.5-1.6 2.9-3.1 4.6-4.7 4.6-2.1 0-3.1-2.2-3.1-6 0-3.1 1.2-8.2 3.6-15.6.5-1.7.7-2.7.7-2.9-.3 0-.7.9-1.7 2.6-3.8 7-5.5 13.9-5.5 20.4 0 4.453 1.064 6.991 3.24 7.692-.198.283-.404.605-.64 1.008-1.4 4.1-2.6 8.9-3.6 14.4-.5 3.8-.7 7.4-.7 11 0 5.5.5 9.8 1.9 13.4 6.9 18 19.7 27.1 37.9 27.1 12.9 0 26.49-3.968 41.007-11.412l-.006.012c-4 10.8-6.201 21.1-6.201 31.4 0 6.5 1.2 12.5 4.1 17.5 3.9 7.4 10.1 11 18.5 11 9.1 0 20.2-4 32.9-12.2 10.1-6.4 18-12.9 23.3-19.4 5.3-6 7.9-18 7.9-35.8.686.49 1.857.5 3.5.5v.2c10.4 0 18.5-7.7 24.4-22.4 1.5 6.2 4.8 11.5 10.1 15.8 4.6 4 8.9 6.2 13 6.2 2.183 0 4.322-.877 6.343-2.581-.474.705-1.007 1.685-1.543 2.98-3.8 7.2-5.5 16.4-5.5 27.4 0 9.3 2 17.302 5.8 24.202 5.8 10.1 15.1 15.1 28.1 15.1 12.7 0 27.4-6 44.4-18 10.8-7.9 18.7-14.601 23.5-20.401 3.3-4.1 6-8.7 7.4-14.2 1.9-7.2 3.1-17.5 3.1-31.2 0-4.8-1-20-2.9-45.4-1.9-25.5-2.9-38.2-2.9-38.2 0-1.2.2-1.4.7-.7 4 4.8 6.2 6 6.2 3.8 0-.7-.2-1.7-.7-3.1-.4-1.7-2.1-6.7-5-14.4-2.9-7.4-4.8-12-5.5-13.9-.3-.8-.8-1-1-1zm78.782.193C389.97 3 388.075 4.05 385.9 6c-2.9 2.4-4.3 5.3-4.3 8.4 0 2.6 2.1 5 6.7 7.4-3.4 3.6-8.4 7.5-15.4 11.7-6 3.3-11.7 6.7-17.5 10.3-1.4.7-1.9 1.5-1.9 1.7 0 0 0 .2.2.2s1.2-.2 2.4-.7c7.7-2.8 12-4.5 13-5 3.6-1.4 7.6-4.1 12.2-7.2 3.8-2.9 7-6 9.6-9.6 2.2 1.2 3.6 2.4 4.1 3.4 2.1-2.8 3.1-5 3.1-6.2-.5-1-1.9-2.2-4.3-3.4 1.2-3.4 1.7-6.3 1.7-8.9 0-2.8-.7-4.5-2.4-5a3.636 3.636 0 0 0-1.518-.207zM128.301 9.1c-.2 0-.501.3-.701 1-2.9 6.4-4.1 10.5-4.1 12.2 1.5 3.1 2.2 6.9 2.2 11.5 0 4.1 1.2 21.6 3.6 52.5 2.4 30.7 3.6 48.2 3.6 53 0 5-.2 9.6-.7 13.4-.4 2.9-.4 4.8-.2 5.8.2.7.5.5 1.2-.5.5-.9 1.2-2.1 1.9-3.8 3.4-8.6 5.3-18.7 5.3-30 0-3.9-1.2-18.8-3.4-45.4-2.1-26.4-3.1-39.9-3.1-40.1 0-1.5.2-1.7.7-1 4 4.8 6.2 6 6.2 3.8 0-.7-.2-1.7-.7-3.1-.5-1.7-2.2-6.5-5.3-14.4-2.9-7.5-4.6-12-5.3-13.7-.5-1-.7-1.2-1.2-1.2zm260.898 0c1.2 0 2.001.8 2.201 2.2.3 1.4.3 2.9-.2 4.3-3.6-1.7-5.6-3.1-5.6-4.4 0-.4.4-.9 1.4-1.4 1-.5 1.7-.7 2.2-.7zm40.201 0c-.3 0-.7.9-1.7 2.6-3.8 7-5.5 13.9-5.5 20.4 0 5.3 1.5 7.9 4.6 7.9 3.1 0 5.3-3.6 6.5-10.8.2-.2.2-.5 0-.7 0-.2 0-.2-.2 0 0 0-.2.3-.2.5-1.7 2.9-3.1 4.6-4.7 4.6-2.1 0-3.1-2.2-3.1-6 0-3.1 1.2-8.2 3.6-15.6.5-1.7.7-2.7.7-2.9zM105.137 19.377c-.188-.033-.487.172-1.237.322-11.1 3.8-21.4 7.6-31 11-1.2 2.4-1.9 4.601-2.3 6.801 12.2-5.6 23-9.6 32.6-13 .5-.4 1.2-1.6 1.9-3.8.4-.7.4-1.2.2-1.2-.05-.075-.1-.112-.163-.123zm386.074 12c-.173-.033-.586.172-1.111.322-26 9.6-51.2 18.701-75.4 27.801-1.2 2.4-1.9 4.6-2.4 6.8 2.7-1.7 16.4-7.2 40.6-16.1 23.7-8.9 36-13.5 36.2-13.7.5-.4 1.2-1.6 2.2-3.8.2-.7.2-1.2 0-1.2 0-.075-.031-.112-.089-.123zm-292.973 6.2c-.187-.034-.488.173-1.238.323-15.1 5.5-29.5 10.8-43.2 15.6-1.2 2.4-1.9 4.6-2.4 6.7 17.1-7.2 31.9-12.9 44.9-17.5.5-.4 1.2-1.6 1.9-3.8.4-.7.4-1.2.2-1.2-.05-.076-.1-.113-.162-.124zm342.043 1.554c-1.612.056-3.506 1.069-5.681 2.869-2.9 2.6-4.3 5.5-4.3 8.6 0 2.6 2.1 5 6.7 7.4-3.4 3.6-10.3 8.4-20.4 14.2-7.7 4.4-15.1 8.7-22.8 13-1.4.9-1.9 1.4-1.9 1.9 0 0 0 .2.2.2.5 0 1.2-.2 2.4-.7 1.2-.7 6.5-2.6 15.4-6.2 4.8-2 9.3-4.4 13.9-7 6.7-4.1 12-8.9 15.8-13.9 2.1 1.2 3.1 2.1 3.1 2.6 0 .2-.8 2.4-2.2 6.7-1.4 4.3-1.9 7.7-1.9 10.3 0 5.3 1.5 7.9 4.6 7.9 2.9 0 5.1-3.6 6.5-10.8v-.7c0-.2-.2-.2-.2-.2-.3.2-.3.5-.5.7-1.7 2.9-3.1 4.6-4.3 4.6-2.1 0-3.1-2.1-3.1-6.2 0-3.4 1.2-7.9 3.6-13.7.5-1.4.8-2.6.7-3.4 0-1.4-1-2.9-3.4-4.3 1.2-3.1 1.7-6 1.7-8.6 0-2.8-1-4.5-2.4-5a3.55 3.55 0 0 0-1.519-.27zM44.2 42c-.3 0-.8.2-1 .7l-4.6 9.6c-.2.5-.2.8 0 1 3.8 2.4 7.701 5 11.401 7.9.5.3.7 0 1.2-.7 3.3-5.3 5-8.6 5-10.3 0-.5-2-2-5.8-4.6-3.6-2.4-5.7-3.6-6.2-3.6zM538 45.3c1.2 0 2 .8 2.2 2.2.3 1.4.3 2.9-.2 4.3-3.6-1.6-5.6-3.1-5.6-4.4 0-.4.4-.9 1.4-1.4 1-.5 1.7-.7 2.2-.7zm-152.8 4.4c-.5 0-.8.2-1 .7l-3.8 7.9c-1-.9-3.2-2.6-6.2-4.5-3.1-2.2-4.8-3.4-5.3-3.4-.3 0-.8.5-1 1l-4.6 9.6c-.2.5-.2.8 0 1 3.9 2.4 7.7 5 11.3 7.9.5.3 1 0 1.2-.7 1.5-2.2 2.7-4.8 4.1-7.7 4.1 2.6 7.7 5 10.8 7.4.4.2.9.2 1.4-.5 3.1-5.3 4.8-8.9 4.8-10.6 0-.5-1.9-1.9-5.5-4.3-3.8-2.6-5.7-3.8-6.2-3.8zm92.3 9.7c-2.2 0-4.1 2.2-6 6.5-1.7 6.3-2.9 11.1-3.4 14.2 0 .5-.2.8-.2 1h-.2c0-.3 0-.5-.2-1-.8-5.3-2.4-9.6-4.6-12.7-2.1-3.4-4.5-4.8-7.4-4.8-.3 0-1 .8-2 2.6-1.2 2-1.7 3.2-1.7 3.4 0 .7.5 1.7 1.9 2.9 1.5 1.2 2.4 1.9 3.4 1.9.7 0 1-.3 1.2-.5.3-.5.5-.5 1-.5 1 0 2.2 2.2 4.1 7 1.9 4.6 2.8 7.7 2.6 9.4.2 1 .2 1.7.7 1.7.5 0 1-.7 1.7-1.7.7-1.6 1.7-4.5 2.4-8.6 1.7-9.1 3.4-13.7 5.3-13.7.9 0 1.9.4 2.6 1.4 1 1 1.5 1.7 1.7 1.7.4 0 .9-.8 1.4-2.2.5-1 .5-1.9.5-2.4 0-1-.4-2-1.4-3.4-1-1.5-2.2-2.2-3.4-2.2zm-302.6 5.1c-.7 0-1.7.5-2.4 1.7-3.3 6.5-5.7 13.5-6.9 21.2-.2.9-.2 1.9-.2 2.6 0 3.8 1.4 6 4.8 6s6-1.7 8.4-4.6c.7-1 1.2-3.6 1.7-7.7.2-3.6-2.2-7.4-7.2-11 .7-2.4 1.6-4.8 2.6-7 0-.3.2-.5.2-.5 0-.5-.5-.7-1-.7zm228 6.9c-.5 0-1.2 1.2-2.4 4.1-1.2 2.8-3.8 7.6-8.4 14.6-5.3 8.2-8.6 13-9.6 14.4-4.1-2.9-8-6.5-11.8-11.3-.9-1.2-1.4-1.7-1.4-1.9 0-.3 1.7-.5 4.8-.5 1.7 0 2.4-.3 2.4-.5v-.2s-.5-.7-1.7-1.4c-1.9-1.6-5.1-3.6-8.9-6.2-4.1-2.6-6.3-3.8-7-3.8-.2 0-.7 1.2-1.4 4.1-.5 2.8-.7 5.2-.7 7.4 0 1.4.4 2.6 1.4 3.6 1.9 1.9 3.1 3.1 3.6 3.8 5 7.2 9.6 12.9 13.9 17-5.1 7.9-8.2 13.9-10.1 18.5-1.9 5.3-2.9 11-2.9 16.8 0 8.7 2.8 13 8.6 13 3.6 0 8-1.6 13-5 4.8-2.8 7.9-5.7 9.8-8.6.9-1.5 1.9-3.6 2.6-6.5.9-3.1 1.4-5.5 1.4-7.4 0-4.6-.7-8.7-1.7-11.8-1.6-4.3-5-9.4-9.8-14.9 4.8-7.2 8.4-12.7 10.8-16.8 3.9-6.5 5.8-11.8 5.8-15.6 0-3.3-.3-4.8-.3-4.9zm-232.5 7.8c5 2.8 7.4 5 7.4 6.2-.5 1-1.7 2-3.3 2.7-1.7.9-3.1 1.4-4.3 1.4-1.5 0-2.2-1-2.2-2.4 0-2.4.7-5 2.4-7.9zM65.4 83c-2.2 0-4.1 2.2-6 6.5-1.7 6.3-2.9 11.1-3.4 14.2 0 .5-.2.8-.2 1h-.2c0-.3 0-.5-.2-1-.8-5.3-2.4-9.6-4.6-12.7-2.1-3.4-4.5-4.8-7.4-4.8-.2 0-1 .7-2 2.6-1.2 2-1.7 3.2-1.7 3.4 0 .7.5 1.7 1.9 2.9C43.1 96.3 44 97 45 97c.7 0 1-.3 1.2-.5.3-.5.5-.5 1-.5 1 0 2.2 2.2 4.1 7 1.9 4.6 2.8 7.7 2.6 9.4.2 1 .2 1.7.7 1.7.5 0 1-.7 1.7-1.7.7-1.6 1.7-4.5 2.4-8.6 1.7-9.1 3.4-13.7 5.3-13.7.9 0 1.9.4 2.6 1.4 1 1 1.5 1.7 1.7 1.7.4 0 .9-.8 1.4-2.2.5-1 .5-1.9.5-2.4 0-1-.4-2-1.4-3.4-1-1.5-2.2-2.2-3.4-2.2zm228.995 2.076c-.258-.033-.67.174-1.196.324-20.1 7.5-39.299 14.7-57.799 21.4-1.2 2.4-1.9 4.6-2.5 6.7 22.6-9.4 42.5-17.1 59.3-23.3.5-.4 1.2-1.6 2.2-3.8.2-.7.2-1.2.2-1.2a.273.273 0 0 0-.205-.124zM421.9 88.4c-.5 0-.8.5-1 1.7-.5 1.2-.7 3.4-1.2 6.5-.5 3.3-.5 5-.5 5.5.2.4.7 1.2 1.4 2.6 1 1.2 1.7 2.8 2.2 5 1.2 4.1 3.6 9.8 6.9 16.9 2.9 6.3 4.3 9.6 4.3 10.1 0 2-2.9 5.1-8.4 9.4-4.82 3.582-11.109 7.681-18.813 12.226.737-4.425 1.99-9.696 3.813-15.926.3-1.5.5-2.7.5-3.4 0-.5 0-.7-.2-.7-.5 0-1 1-2.2 3.4-2.337 6.308-4.039 12.443-5.067 18.47a455.748 455.748 0 0 1-10.434 5.83c-9.4 5.1-21.099 10.6-35.299 16.6-20.4 8.6-31.5 13.4-33.4 14.4-5.3 2.4-7.9 3.9-7.9 4.1 0 .2 0 .2.5.2 1 0 3.4-.3 7.2-1 3.6-.5 12.7-2.6 27.1-6 13.7-3.3 20.9-5 21.4-5 2.6 0 11-4.1 25.4-12.5 1.503-.842 2.921-1.674 4.345-2.507.224 7.3 2.183 13.606 5.756 18.307 4.3 6 10.499 9.1 18.699 9.1 9.6 0 20.6-5 33.6-14.6 8.7-6.5 16.6-14 23.8-22.6 3.1-3.6 5.7-8.2 7.4-13.7 1.5-4.4 2.2-7.7 2.2-10.6l.5-.5v.3c8.4-3.9 14.9-7.9 18.7-12.5 0 11 4.8 16.8 14.9 16.8 8.4 0 15.3-4.8 20.6-14.4 3.2 5.8 6.8 8.9 10.6 8.9 5.8 0 10.1-2.6 13-7.9 2.7-4.4 4.1-9.4 4.1-15.4 0-3.9-1.2-7.2-3.1-10.1-.7-1-1.2-1.2-1.7-1.2s-1 .8-1.2 2.2c-1.4 4.5-2.4 7.9-2.6 9.8 2.1 3.6 3.1 5.6 3.1 5.8-1 1.6-3.1 2.6-6.5 2.6-2.6 0-5-1-6.7-2.4-1.9-1.4-2.9-3.1-2.9-4.8 0 .5.7-1.4 1.7-5.5.5-2.1.3-3.1-.7-3.1-.7 0-1.4.4-2.4 1.4-2.4 3.9-5 7.7-7.4 11.8-3.9 5.1-8.9 7.7-14.9 7.7-7.5 0-11.3-2.9-11.3-8.2 0-1.2.2-2.7.7-4.6.5-1.9.7-3.4.7-4.1 0-.9-.2-1.4-.7-1.4-.7 0-1.7.4-2.9 1.4-3.8 3.4-7.6 6.2-11.6 8.2-1.2.8-5.3 2.7-11.5 5.8v-.3c-1 .5-1.5.5-1.7.5-2.4-5-5.3-9.1-8.4-12.7-3.6-3.6-6.7-5.5-9.8-5.5-4.1 0-7.9 2.1-11.5 6.2-3.8 4.8-5.5 10.1-5.5 16.1 0 7.9 5.8 12 17.3 12 5.3 0 9.6-.7 12.5-1.7.5 1.7 1 3.4 1 4.8 0 2.1-3.6 6.4-10.6 13.3-7.7 7.2-15.6 13.2-23.8 18.2-10.4 6.3-19 9.4-26.2 9.4-8.4 0-14.4-2.7-18.2-7.7-1.475-2.212-2.492-4.728-3.06-7.498 12.218-7.465 21.205-14.507 26.96-21.002 2-2.2 3.4-5.3 4.6-9.4.9-3.6 1.4-6.5 1.4-8.9 0-5.1-1.5-10.6-4.1-17.3-1.7-3.8-3.6-7.9-5.3-12 2.9.7 4.8 1.2 5.5 1.2.5 0 .7-.3.7-.5 0-.5-.7-1.4-2.4-3.1-4-4.1-7.6-8-11-11.8-.5-.5-.8-.7-1-.7zm-223.537 17.776c.438-.025 1.088.025 1.938.125 7 1 11.599 3.599 14.199 7.699.7 1 1.2 1.7 1.2 2 0 .8-1 1-2.4 1-5 0-9.8-2.9-14.6-9.1-.5-.4-1-1.2-1-1.4 0-.2.226-.3.663-.324zM277.5 115.4c-1.9 0-4.3 1.6-7.4 5-3.2 3.4-4.6 6.3-4.6 8.9 0 2.9 2 4.8 5.8 6-4.3 5.5-6.5 10.8-6.5 15.8 0 1.9.8 3.6 2.2 4.8 1.5 1.2 3.6 1.9 5.8 1.9 7.7 0 14.2-2.4 19-6.7 1.2-1 1.7-1.5 1.7-1.7 0-.3-.8-.3-2.2.2-5.8 1.6-10.8 2.6-15.6 2.6-5.3 0-7.9-1.5-8.1-3.6 0-.7.2-1.7.7-2.9 3.1-5.5 7.9-10.6 14.4-14.9 1.4-2.4 2.4-4.6 2.4-7 0-1-.2-1.2-.7-1-1.2 1.2-2.4 2.4-3.8 3.4-2 1.9-3.6 2.9-4.6 2.9-2.8 0-5-1.2-6.2-3.1 0-.7.5-1.7 1.7-2.9 1-1.2 1.7-1.7 2.4-1.7 1.4 0 2.1.8 2.6 2.2 0 .2.7-.3 1.7-1.7.9-1.5 1.4-2.4 1.4-2.9 0-1-.2-1.7-.7-2.4-.4-1-.9-1.2-1.4-1.2zm102.9 3.9c6.2 5.3 10.8 10.8 13.4 16.1.2.7-.2 1.6-1.7 3.1-3.4 3.3-7.5 6-11.8 7.9-3.1 1.2-5.5 1.9-7.4 1.9-4.3 0-6.2-1.4-6.2-4.3 0-2.1 1.7-6.2 5.5-12.7 3.4-5.8 6-9.8 8.2-12zm90.9 2.6c2.9 0 6 2.1 9.6 6.7-2.6.5-5 1-7.2 1-5.7 0-8.6-1.4-8.6-4.3 0-2.4 1.9-3.4 6.2-3.4zM109 138c-.3 0-.7.9-1.7 2.6-3.8 7-5.5 13.9-5.5 20.4 0 5.3 1.5 7.9 4.6 7.9 3.1 0 5.3-3.6 6.5-10.8.2-.2.2-.5 0-.7 0-.2 0-.2-.2 0 0 0-.2.3-.2.5-1.7 2.9-3.1 4.6-4.7 4.6-2.1 0-3.1-2.2-3.1-6 0-3.1 1.2-8.2 3.6-15.6.5-1.7.7-2.7.7-2.9zm134.8 1.3c-3.3 0-5.2 1.9-6.2 6-.2.9-.2 1.4-.2 1.4 0 .2.2.2.2.2.2 0 .5-.3 1.2-.5.7-.5 1.6-.7 2.6-.7 1.6 0 2.6.9 2.6 2.6 0 2.2-2.9 6-8.4 12-.9 1.2-1.4 1.7-1.4 1.9v.2c.2 0 1-.4 2.4-1.4 3.4-2.4 6-5.3 8.2-8.4 1.9-3.1 3.1-6 3.1-8.6 0-3.1-1.5-4.8-4.1-4.7zm-59.3 4c-2.9 0-4.8 3.1-5.5 9.5-.3.9 0 1.4.2 1.4 0 0 .7-.5 1.7-1.9 1-1.2 1.7-1.7 2.2-1.7 1.2 0 2.4.5 3.6 1.7-2.9.9-5 1.9-6 2.6-2.4 1.9-3.4 4.8-3.4 8.9 0 1 .7 5.8 2.4 13.7 1.6 7.9 2.6 14.9 2.6 20.4 0 3.4 0 5.3.2 5.3.2-.3.5-.7.7-1.7.5-3.1 1-6 1-8.9 0-9.9-1.6-19.7-5-29.8 1.2-1.2 3.1-2.4 6.2-3.4 2.4-.8 4.8-1.5 7.2-2.2.2 0 .7-.7 1.4-2.4.8-1.7 1.2-2.6 1-3.1-.2-1.5-1.7-3.4-4.3-5.3-2.6-2.1-4.5-3.1-6.2-3.1zm378.883 12.468c-.291.023-.707.745-1.582 2.232-.7 1-.901 1.7-.701 2.2.5 1.6.7 2.6.7 2.6 0 .2-.2.2-.7.2-3.6 0-5.5-.3-5-1 .5-1.4.7-2.6.7-3.1s0-.7-.2-.7c-.5 0-1.2.4-1.7 1.4-.9 1.5-1.9 2.7-2.6 4.1-1.2 1.5-2.7 2.2-4.6 2.2-1 0-2.2-.2-3.4-.7-1.5-.5-2.7-.7-3.4-.7-3.6 0-7 1.2-10.6 3.8-2.9 1.9-5.5 4.5-7.9 7.4-3.6 4.4-6.5 7.5-8.4 9.4-4.1 3.1-7 5-8.9 6.2-1.9 1.2-2.9 1.9-2.9 1.9v.2c.5 0 2-.5 4.6-1.2 2.4-.7 4.6-1.9 6.8-3.5l10.8-10.8c5.1-4.8 10.1-7 14.9-7 .7 0 1.7.2 2.9.7 1.2.5 2.4.7 3.1.7 2.8 0 5.7-1.7 8.6-4.6 3.6 1.7 6.2 2 7.9 1 .5-.4 1.2-1.6 1.9-3.8.7-1.9 1.2-3.6 1.2-5.3 0-1.6-.4-3.1-1.4-3.8a.18.18 0 0 0-.117-.032zM52.5 159.699c-3.3 0-5.2 1.9-6.2 6-.2.9-.2 1.4-.2 1.4 0 .2.2.202.2.202.2 0 .5-.3 1.2-.5.7-.5 1.6-.701 2.6-.701 1.6 0 2.6.9 2.6 2.6 0 2.2-2.9 6-8.4 12-.9 1.2-1.4 1.7-1.4 1.9v.2c.2 0 1-.4 2.4-1.4 3.4-2.4 6-5.3 8.2-8.4 1.9-3.1 3.1-6 3.1-8.6 0-3.1-1.4-4.8-4.1-4.7zM327.8 165c-3.3 0-5.2 1.9-6.2 6-.2.9-.2 1.4-.2 1.4 0 .2.2.2.2.2.2 0 .5-.3 1.2-.5.7-.5 1.6-.7 2.6-.7 1.6 0 2.6.9 2.6 2.6 0 2.2-2.9 6-8.4 12-.9 1.2-1.4 1.7-1.4 1.9v.2c.2 0 1-.4 2.4-1.4 3.4-2.4 6-5.3 8.2-8.4 1.9-3.1 3.1-6 3.1-8.6 0-3.1-1.5-4.8-4.1-4.7z"/></svg>