<svg xmlns="http://www.w3.org/2000/svg" viewBox="0 0 590.7 203.8"><path d="M417.4 76.6c0 3.8-1.9 9.1-5.8 15.6-2.4 4.1-6 9.6-10.8 16.8 4.8 5.5 8.2 10.6 9.8 14.9 1 3.1 1.7 7.2 1.7 11.8 0 1.9-.5 4.3-1.4 7.4-.7 2.9-1.7 5-2.6 6.5-1.9 2.9-5 5.8-9.8 8.6-5 3.4-9.4 5-13 5-5.8 0-8.6-4.3-8.6-13 0-5.8 1-11.5 2.9-16.8 1.9-4.6 5-10.6 10.1-18.5-4.3-4.1-8.9-9.8-13.9-17-.5-.7-1.7-1.9-3.6-3.8-1-1-1.4-2.2-1.4-3.6 0-2.2.2-4.6.7-7.4.7-2.9 1.2-4.1 1.4-4.1.7 0 2.9 1.2 7 3.8 3.8 2.6 7 4.6 8.9 6.2 1.2.7 1.7 1.4 1.7 1.4v.2c0 .2-.7.5-2.4.5-3.1 0-4.8.2-4.8.5 0 .2.5.7 1.4 1.9 3.8 4.8 7.7 8.4 11.8 11.3 1-1.4 4.3-6.2 9.6-14.4 4.6-7 7.2-11.8 8.4-14.6 1.2-2.9 1.9-4.1 2.4-4.1.1.1.3 1.5.3 4.9zm-9.3 59c-2.6-5.3-7.2-10.8-13.4-16.1-2.2 2.2-4.8 6.2-8.2 12-3.8 6.5-5.5 10.6-5.5 12.7 0 2.9 1.9 4.3 6.2 4.3 1.9 0 4.3-.7 7.4-1.9 4.3-1.9 8.4-4.6 11.8-7.9 1.4-1.4 1.9-2.3 1.7-3.1zm-13.5-77l3.8-7.9c.2-.5.5-.7 1-.7s2.4 1.2 6.2 3.8c3.6 2.4 5.5 3.8 5.5 4.3 0 1.7-1.7 5.3-4.8 10.6-.5.7-1 .7-1.4.5-3.1-2.4-6.7-4.8-10.8-7.4-1.4 2.9-2.6 5.5-4.1 7.7-.2.7-.7 1-1.2.7-3.6-2.9-7.4-5.5-11.3-7.9-.2-.2-.2-.5 0-1l4.6-9.6c.2-.5.7-1 1-1 .5 0 2.2 1.2 5.3 3.4 3.1 1.9 5.3 3.5 6.2 4.5zm126.5 133.7c-2.6.7-4.1 1.2-4.6 1.2v-.2s1-.7 2.9-1.9 4.8-3.1 8.9-6.2c1.9-1.9 4.8-5 8.4-9.4 2.4-2.9 5-5.5 7.9-7.4 3.6-2.6 7-3.8 10.6-3.8.7 0 1.9.2 3.4.7 1.2.5 2.4.7 3.4.7 1.9 0 3.4-.7 4.6-2.2.7-1.4 1.7-2.6 2.6-4.1.5-1 1.2-1.4 1.7-1.4.2 0 .2.2.2.7 0 .5-.2 1.7-.7 3.1-.5.7 1.4 1 5 1 .5 0 .7 0 .7-.2 0 0-.2-1-.7-2.6-.2-.5 0-1.2.7-2.2 1-1.7 1.4-2.4 1.7-2.2 1 .7 1.4 2.2 1.4 3.8 0 1.7-.5 3.4-1.2 5.3-.7 2.2-1.4 3.4-1.9 3.8-1.7 1-4.3.7-7.9-1-2.9 2.9-5.8 4.6-8.6 4.6-.7 0-1.9-.2-3.1-.7-1.2-.5-2.2-.7-2.9-.7-4.8 0-9.8 2.2-14.9 7l-10.8 10.8c-2.2 1.6-4.4 2.8-6.8 3.5zM469.5 62.7c2.9 0 5.3 1.4 7.4 4.8 2.2 3.1 3.8 7.4 4.6 12.7.2.5.2.7.2 1h.2c0-.2.2-.5.2-1 .5-3.1 1.7-7.9 3.4-14.2 1.9-4.3 3.8-6.5 6-6.5 1.2 0 2.4.7 3.4 2.2 1 1.4 1.4 2.4 1.4 3.4 0 .5 0 1.4-.5 2.4-.5 1.4-1 2.2-1.4 2.2-.2 0-.7-.7-1.7-1.7-.7-1-1.7-1.4-2.6-1.4-1.9 0-3.6 4.6-5.3 13.7-.7 4.1-1.7 7-2.4 8.6-.7 1-1.2 1.7-1.7 1.7s-.5-.7-.7-1.7c.2-1.7-.7-4.8-2.6-9.4-1.9-4.8-3.1-7-4.1-7-.5 0-.7 0-1 .5-.2.2-.5.5-1.2.5-1 0-1.9-.7-3.4-1.9-1.4-1.2-1.9-2.2-1.9-2.9 0-.2.5-1.4 1.7-3.4 1-1.9 1.8-2.6 2-2.6zm-40.6-2.9c24.2-9.1 49.4-18.2 75.4-27.8.7-.2 1.2-.5 1.2-.2.2 0 .2.5 0 1.2-1 2.2-1.7 3.4-2.2 3.8-.2.2-12.5 4.8-36.2 13.7-24.2 8.9-37.9 14.4-40.6 16.1.5-2.2 1.2-4.4 2.4-6.8zm-23.5-43.9c.5-1.4.5-2.9.2-4.3-.2-1.4-1-2.2-2.2-2.2-.5 0-1.2.2-2.2.7-1 .5-1.4 1-1.4 1.4.1 1.3 2 2.7 5.6 4.4zm-2.9 6.2c-4.6-2.4-6.7-4.8-6.7-7.4 0-3.1 1.4-6 4.3-8.4 2.9-2.6 5.3-3.6 7.2-2.9 1.7.5 2.4 2.2 2.4 5 0 2.6-.5 5.5-1.7 8.9 2.4 1.2 3.8 2.4 4.3 3.4 0 1.2-1 3.4-3.1 6.2-.5-1-1.9-2.2-4.1-3.4-2.6 3.6-5.8 6.7-9.6 9.6-4.6 3.1-8.6 5.8-12.2 7.2-1 .5-5.3 2.2-13 5-1.2.5-2.2.7-2.4.7-.2 0-.2-.2-.2-.2 0-.2.5-1 1.9-1.7 5.8-3.6 11.5-7 17.5-10.3 7-4.2 12.1-8.1 15.4-11.7zm151.7 30c.5-1.4.5-2.9.2-4.3-.2-1.4-1-2.2-2.2-2.2-.5 0-1.2.2-2.2.7-1 .5-1.4 1-1.4 1.4.1 1.3 2 2.7 5.6 4.4zm5.3 8.9c-2.4 5.8-3.6 10.3-3.6 13.7 0 4.1 1 6.2 3.1 6.2 1.2 0 2.6-1.7 4.3-4.6.2-.2.2-.5.5-.7 0 0 .2 0 .2.2v.7c-1.4 7.2-3.6 10.8-6.5 10.8-3.1 0-4.6-2.6-4.6-7.9 0-2.6.5-6 1.9-10.3 1.4-4.3 2.2-6.5 2.2-6.7 0-.5-1-1.4-3.1-2.6-3.8 5-9.1 9.8-15.8 13.9-4.6 2.6-9.1 5-13.9 7-8.9 3.6-14.2 5.5-15.4 6.2-1.2.5-1.9.7-2.4.7-.2 0-.2-.2-.2-.2 0-.5.5-1 1.9-1.9 7.7-4.3 15.1-8.6 22.8-13 10.1-5.8 17-10.6 20.4-14.2-4.6-2.4-6.7-4.8-6.7-7.4 0-3.1 1.4-6 4.3-8.6 2.9-2.4 5.3-3.4 7.2-2.6 1.4.5 2.4 2.2 2.4 5 0 2.6-.5 5.5-1.7 8.6 2.4 1.4 3.4 2.9 3.4 4.3 0 .8-.2 2-.7 3.4zM446.9 29.3c0-.2.2-.5.2-.5.2-.2.2-.2.2 0 .2.2.2.5 0 .7-1.2 7.2-3.4 10.8-6.5 10.8s-4.6-2.6-4.6-7.9c0-6.5 1.7-13.4 5.5-20.4 1-1.7 1.4-2.6 1.7-2.6 0 .2-.2 1.2-.7 2.9-2.4 7.4-3.6 12.5-3.6 15.6 0 3.8 1 6 3.1 6 1.6 0 3.1-1.7 4.7-4.6zm-9.8 80.7c-.5-2.2-1.2-3.8-2.2-5-.7-1.4-1.2-2.2-1.4-2.6 0-.5 0-2.2.5-5.5.5-3.1.7-5.3 1.2-6.5.2-1.2.5-1.7 1-1.7.2 0 .5.2 1 .7 3.4 3.8 7 7.7 11 11.8 1.7 1.7 2.4 2.6 2.4 3.1 0 .2-.2.5-.7.5-.7 0-2.6-.5-5.5-1.2 1.7 4.1 3.6 8.2 5.3 12 2.6 6.7 4.1 12.2 4.1 17.3 0 2.4-.5 5.3-1.4 8.9-1.2 4.1-2.6 7.2-4.6 9.4-7 7.9-18.7 16.6-35.3 25.9-14.4 8.4-22.8 12.5-25.4 12.5-.5 0-7.7 1.7-21.4 5-14.4 3.4-23.5 5.5-27.1 6-3.8.7-6.2 1-7.2 1-.5 0-.5 0-.5-.2s2.6-1.7 7.9-4.1c1.9-1 13-5.8 33.4-14.4 14.2-6 25.9-11.5 35.3-16.6 14.2-7.7 25-14.4 32.4-19.9 5.5-4.3 8.4-7.4 8.4-9.4 0-.5-1.4-3.8-4.3-10.1-3.3-7.1-5.7-12.9-6.9-16.9zM16.9 91.5c0-.2.2-.5.2-.5.2-.2.2-.2.2 0 .2.2.2.5 0 .7-1.2 7.2-3.4 10.8-6.5 10.8s-4.6-2.6-4.6-7.9c0-6.5 1.7-13.4 5.5-20.4 1-1.7 1.4-2.6 1.7-2.6 0 .2-.2 1.2-.7 2.9-2.4 7.4-3.6 12.5-3.6 15.6 0 3.8 1 6 3.1 6 1.5-.1 3-1.7 4.7-4.6zm210 80.9c2.9 0 5.3 1.4 7.4 4.8 2.2 3.1 3.8 7.4 4.6 12.7.2.5.2.7.2 1h.2c0-.2.2-.5.2-1 .5-3.1 1.7-7.9 3.4-14.2 1.9-4.3 3.8-6.5 6-6.5 1.2 0 2.4.7 3.4 2.2 1 1.4 1.4 2.4 1.4 3.4 0 .5 0 1.4-.5 2.4-.5 1.4-1 2.2-1.4 2.2-.2 0-.7-.7-1.7-1.7-.7-1-1.7-1.4-2.6-1.4-1.9 0-3.6 4.6-5.3 13.7-.7 4.1-1.7 7-2.4 8.6-.7 1-1.2 1.7-1.7 1.7s-.5-.7-.7-1.7c.2-1.7-.7-4.8-2.6-9.4-1.9-4.8-3.1-7-4.1-7-.5 0-.7 0-1 .5-.2.2-.5.5-1.2.5-1 0-1.9-.7-3.4-1.9-1.4-1.2-1.9-2.2-1.9-2.9 0-.2.5-1.4 1.7-3.4 1-1.9 1.7-2.6 2-2.6zM164.5 10.8c2.9 0 5.3 1.4 7.4 4.8 2.2 3.1 3.8 7.4 4.6 12.7.2.5.2.7.2 1h.2c0-.2.2-.5.2-1 .5-3.1 1.7-7.9 3.4-14.2 1.9-4.3 3.8-6.5 6-6.5 1.2 0 2.4.7 3.4 2.2 1 1.4 1.4 2.4 1.4 3.4 0 .5 0 1.4-.5 2.4-.5 1.4-1 2.2-1.4 2.2-.2 0-.7-.7-1.7-1.7-.7-1-1.7-1.4-2.6-1.4-1.9 0-3.6 4.6-5.3 13.7-.7 4.1-1.7 7-2.4 8.6-.7 1-1.2 1.7-1.7 1.7s-.5-.7-.7-1.7c.2-1.7-.7-4.8-2.6-9.4-1.9-4.8-3.1-7-4.1-7-.5 0-.7 0-1 .5-.2.2-.5.5-1.2.5-1 0-1.9-.7-3.4-1.9-1.4-1.2-1.9-2.2-1.9-2.9 0-.2.5-1.4 1.7-3.4 1-1.8 1.7-2.6 2-2.6zM78.3 60.3c0 .5-.2 1.4-.7 2.4-.2 1.4-.7 2.2-1.4 2.2-.2 0-.7-.7-1.7-1.7-.7-1-1.7-1.4-2.4-1.4-1.9 0-3.8 4.6-5.5 13.7-.7 4.1-1.4 7-2.4 8.6-.7 1-1.2 1.7-1.7 1.7-.2 0-.5-.7-.5-1.7 0-1.7-1-4.8-2.9-9.4-1.9-4.8-3.1-7-3.8-7-.7 0-1 0-1.2.5 0 .2-.5.5-1.2.5-1 0-1.9-.7-3.4-1.9-1.2-1.2-1.9-2.2-1.9-2.9 0-.2.5-1.4 1.7-3.4 1.2-1.9 1.9-2.6 2.2-2.6 2.6 0 5 1.4 7.2 4.8 2.4 3.4 3.8 7.4 4.8 12.7v1c.2.2.2.2.2 0s.2-.5.5-1c.2-3.1 1.4-7.9 3.1-14.2 1.9-4.3 3.8-6.5 6-6.5 1.2 0 2.4.7 3.6 2.2.9 1.5 1.4 2.4 1.4 3.4zM62.5 87.9c-1.7 3.8-5 7.7-10.1 11.3-4.6 3.4-8.6 5.8-12.2 7.4-.7.5-5 2.2-13 5-1.2.5-1.9.7-2.4.7-.2 0-.2-.2-.2-.2 0-.2.7-1 1.9-1.7 6.5-3.8 15.6-9.4 27.6-17.3 2.9-2.2 5-4.3 6.7-6.2 1.9-2.2 2.9-3.4 3.1-3.4v.2c0 .3-.5 1.8-1.4 4.2zm21.1 24.5c0 2.6-1.2 5.5-3.1 8.6-2.2 3.1-4.8 6-8.2 8.4-1.4 1-2.2 1.4-2.4 1.4v-.2c0-.2.5-.7 1.4-1.9 5.5-6 8.4-9.8 8.4-12 0-1.7-1-2.6-2.6-2.6-1 0-1.9.2-2.6.7-.7.2-1 .5-1.2.5 0 0-.2 0-.2-.2 0 0 0-.5.2-1.4 1-4.1 2.9-6 6.2-6 2.6-.1 4.1 1.5 4.1 4.7zm114.2 75.8c0-.2.2-.5.2-.5.2-.2.2-.2.2 0 .2.2.2.5 0 .7-1.2 7.2-3.4 10.8-6.5 10.8s-4.6-2.6-4.6-7.9c0-6.5 1.7-13.4 5.5-20.4 1-1.7 1.4-2.6 1.7-2.6 0 .2-.2 1.2-.7 2.9-2.4 7.4-3.6 12.5-3.6 15.6 0 3.8 1 6 3.1 6 1.6 0 3-1.7 4.7-4.6zm334.1-75.4c1.2-1 2.2-1.4 2.9-1.4.5 0 .7.5.7 1.4 0 .7-.2 2.2-.7 4.1-.5 1.9-.7 3.4-.7 4.6 0 5.3 3.8 8.2 11.3 8.2 6 0 11-2.6 14.9-7.7 2.4-4.1 5-7.9 7.4-11.8 1-1 1.7-1.4 2.4-1.4 1 0 1.2 1 .7 3.1-1 4.1-1.7 6-1.7 5.5 0 1.7 1 3.4 2.9 4.8 1.7 1.4 4.1 2.4 6.7 2.4 3.4 0 5.5-1 6.5-2.6 0-.2-1-2.2-3.1-5.8.2-1.9 1.2-5.3 2.6-9.8.2-1.4.7-2.2 1.2-2.2s1 .2 1.7 1.2c1.9 2.9 3.1 6.2 3.1 10.1 0 6-1.4 11-4.1 15.4-2.9 5.3-7.2 7.9-13 7.9-3.8 0-7.4-3.1-10.6-8.9-5.3 9.6-12.2 14.4-20.6 14.4-10.1 0-14.9-5.8-14.9-16.8-3.8 4.6-10.3 8.6-18.7 12.5v-13.2c6.2-3.1 10.3-5 11.5-5.8 3.9-1.9 7.8-4.8 11.6-8.2zm-36.7 15.9c-3.6-4.6-6.7-6.7-9.6-6.7-4.3 0-6.2 1-6.2 3.4 0 2.9 2.9 4.3 8.6 4.3 2.1-.1 4.5-.5 7.2-1zm7.4 17.5c0-1.4-.5-3.1-1-4.8-2.9 1-7.2 1.7-12.5 1.7-11.5 0-17.3-4.1-17.3-12 0-6 1.7-11.3 5.5-16.1 3.6-4.1 7.4-6.2 11.5-6.2 3.1 0 6.2 1.9 9.8 5.5 3.1 3.6 6 7.7 8.4 12.7.2 0 .7 0 1.7-.5v13.2l-.5.5c0 2.9-.7 6.2-2.2 10.6-1.7 5.5-4.3 10.1-7.4 13.7-7.2 8.6-15.1 16.1-23.8 22.6-13 9.6-24 14.6-33.6 14.6-8.2 0-14.4-3.1-18.7-9.1-3.8-5-5.8-11.8-5.8-19.7 0-10.1 2.2-20.4 6.2-31.2 1.2-2.4 1.7-3.4 2.2-3.4.2 0 .2.2.2.7 0 .7-.2 1.9-.5 3.4-3.1 10.6-4.6 18.5-4.6 24 0 5 1.2 9.4 3.6 13 3.8 5 9.8 7.7 18.2 7.7 7.2 0 15.8-3.1 26.2-9.4 8.2-5 16.1-11 23.8-18.2 7-6.8 10.6-11.1 10.6-13.3zM140.2 42.3c0-4.6-.7-8.4-2.2-11.5 0-1.7 1.2-5.8 4.1-12.2.2-.7.5-1 1-1 .2 0 .5.2 1 1.2.7 1.7 2.4 6.2 5.3 13.7 3.1 7.9 4.8 12.7 5.3 14.4.5 1.4.5 2.4.5 3.1 0 2.2-1.9 1-6.2-3.8-.5-.7-.7-.2-.7 1 0 .2 1 12.2 2.6 35.5 1.7 23.3 2.6 36.7 2.6 40.6 0 11.3-1.7 21.4-5.3 30-.7 1.7-1.2 3.1-1.7 3.8-.7 1.2-1.2 1.2-1.4.5 0-1 0-2.6.2-5.5.5-3.8.7-8.4.7-13.7 0-4.8-1-20.9-2.9-48.5-1.9-27.7-2.9-43.5-2.9-47.6zM46.1 148.4c15.8 0 33.6-3.4 54-9.6 16.3-5.3 26.9-9.6 31.7-13.2.5-.2.5-.7.5-1.4 0-1.9-2.9-7-9.1-14.6-1.2-1.4-1.7-3.1-1.2-4.8.7-3.4 1.7-6.2 2.9-8.6.7-1.7 1.4-2.6 1.9-2.6.2 0 1.2.7 2.4 2.2 1.7 1.7 3.4 4.3 5 8.2 2.6 4.6 3.8 8.6 3.8 12 0 11.3-3.6 19.7-11 24.7-4.8 3.6-15.6 7.9-32.2 13-20.9 6.5-38.9 9.6-54.7 9.6-15.4 0-26.2-4.1-33.1-12.2-4.8-5.5-7-12.7-7-21.4 0-9.1 2.2-17.5 6.5-25.4 1.4-2.4 2.4-3.8 2.9-3.8 0 0 .2.2.2.7 0 .7-.5 2.2-1.2 4.3-1 2.9-2.2 5.5-3.1 8.4-1.2 3.6-1.7 7.4-1.7 11.5 0 5.3 2.4 9.8 7.7 13.9 7.5 5.9 19 9.1 34.8 9.1zm116.2-18.3c-.2-.2-.2-.5 0-1l4.6-9.6c.2-.5.7-.7 1-.7.5 0 2.6 1.2 6.2 3.6 3.8 2.6 5.8 4.1 5.8 4.6 0 1.7-1.7 5-5 10.3-.5.7-.7 1-1.2.7-3.7-2.8-7.6-5.5-11.4-7.9zm-98.9 46.1c-.2-.2-.2-.5 0-1l4.6-9.6c.2-.5.7-.7 1-.7.5 0 2.6 1.2 6.2 3.6 3.8 2.6 5.8 4.1 5.8 4.6 0 1.7-1.7 5-5 10.3-.5.7-.7 1-1.2.7-3.7-2.9-7.5-5.5-11.4-7.9zM288.8 20.9c0-1.2-2.4-3.4-7.4-6.2-1.7 2.9-2.4 5.5-2.4 7.9 0 1.4.7 2.4 2.2 2.4 1.2 0 2.6-.5 4.3-1.4 1.6-.8 2.8-1.7 3.3-2.7zm-5.3-19.2c.7-1.2 1.7-1.7 2.4-1.7.5 0 1 .2 1 .7 0 0-.2.2-.2.5-1 2.2-1.9 4.6-2.6 7 5 3.6 7.4 7.4 7.2 11-.5 4.1-1 6.7-1.7 7.7-2.4 2.9-5 4.6-8.4 4.6-3.4 0-4.8-2.2-4.8-6 0-.7 0-1.7.2-2.6 1.1-7.7 3.5-14.7 6.9-21.2zM306.1 66c0-.2.2-.5.2-.5.2-.2.2-.2.2 0 .2.2.2.5 0 .7-1.2 7.2-3.4 10.8-6.5 10.8s-4.6-2.6-4.6-7.9c0-6.5 1.7-13.4 5.5-20.4 1-1.7 1.4-2.6 1.7-2.6 0 .2-.2 1.2-.7 2.9-2.4 7.4-3.6 12.5-3.6 15.6 0 3.8 1 6 3.1 6 1.5 0 3-1.7 4.7-4.6zM234.5 9.2c-.5 2.2-1 3.4-1.7 4.1-2.6 1.7-8.6 5.5-17.8 11.8-.2.2-.7.5-1.2 1-.2-.2-.2-.2-.2-.7l.5-3.1c.2-.7 1.7-2.2 4.6-4.3-3.6-1.2-5.3-2.9-5.3-4.8 0-2.2.7-4.3 2.6-6.5 3.6-4.3 6.7-6.5 9.1-6.5 2.2 0 3.1 1.2 3.1 3.6 0 1.4-.5 2.9-1.7 4.8-.2.5-.5.5-1-.2-.5-1.2-1.4-1.7-2.6-1.7-.7 0-1.7.2-2.9 1.2-1.2.7-1.9 1.4-1.9 1.9 0 .7.7 1.4 2.2 2.2 1.4 1 2.6 1.2 3.6 1.2.7 0 2.2-.5 4.3-1.7 1.4-1 2.6-1.9 4.1-2.9 1.2-.5 1.9-1 2.2-.7.3-.2.3.3 0 1.3zm-11.2 62.6c0-1.2-2.4-3.4-7.4-6.2-1.7 2.9-2.4 5.5-2.4 7.9 0 1.4.7 2.4 2.2 2.4 1.2 0 2.6-.5 4.3-1.4 1.6-.8 2.8-1.7 3.3-2.7zM218 52.6c.7-1.2 1.7-1.7 2.4-1.7.5 0 1 .2 1 .7 0 0-.2.2-.2.5-1 2.2-1.9 4.6-2.6 7 5 3.6 7.4 7.4 7.2 11-.5 4.1-1 6.7-1.7 7.7-2.4 2.9-5 4.6-8.4 4.6-3.4 0-4.8-2.2-4.8-6 0-.7 0-1.7.2-2.6 1.1-7.8 3.5-14.7 6.9-21.2zM159.4 61c18.5-6.7 37.7-13.9 57.8-21.4.7-.2 1.2-.5 1.4-.2 0 0 0 .5-.2 1.2-1 2.2-1.7 3.4-2.2 3.8-16.8 6.2-36.7 13.9-59.3 23.3.6-2.1 1.3-4.3 2.5-6.7zM66.5 193.7c9.6-3.4 19.9-7.2 31-11 1-.2 1.2-.5 1.4-.2.2 0 .2.5-.2 1.2-.7 2.2-1.4 3.4-1.9 3.8-9.6 3.4-20.4 7.4-32.6 13 .4-2.2 1.1-4.4 2.3-6.8zm230.7-22.5c-4.8 4.3-11.3 6.7-19 6.7-2.2 0-4.3-.7-5.8-1.9-1.4-1.2-2.2-2.9-2.2-4.8 0-3.4 1.2-6.7 4.1-10.1 2.9-3.1 5.8-6 8.4-9.1.7-.5.5-1-.5-1.4-1.9-.7-4.3-1-6.7-1-1.2 0-2.6.2-4.3 1.2-.2 0-.5.2-.7 0 0 0 0-.2.2-.7 1-2.4 1.9-4.1 2.9-4.8 1.2-1 3.1-1.4 5.8-1.4 5.8 0 8.4 1.2 8.4 4.1 0 2.2-1.7 5-5.3 9.1l-7.9 7.9c-1 1.4-1.4 2.9-1.4 3.8 0 2.4 2.6 3.6 7.7 3.6 5 0 10.1-1 15.8-2.6 1.4-.5 2.2-.5 2.2-.2 0-.1-.5.6-1.7 1.6zM100.4 80c.5-3.4 1.7-7.2 3.6-12 1.4-3.6 2.2-7.2 2.2-10.8 0-7-3.4-13.4-9.8-19.9-.5-.5-.5-1 0-1.4l2.2-3.8c.2-.5.5-.5 1 0 6.2 5 9.6 12.5 9.6 22.3 0 4.6-1.2 9.6-3.1 14.6-2.2 5.3-3.1 8.9-3.1 10.8 0 4.1 1 6.2 3.1 6.2 1.4 0 2.9-1.7 4.6-4.6 0-.2.2-.5.2-.5.2-.2.2-.2.2 0v.7c-1.2 7.2-3.4 10.8-6.5 10.8-2.9 0-4.6-3.1-4.6-8.9-.1-1.1.1-2.3.4-3.5zm49.2 89.2c5-5.8 11.8-10.8 20.2-15.4 4.8-2.6 13.2-6.5 25.2-11.5v13.3c-7.7 3.4-13.2 5.8-16.8 7.4-7.4 3.6-12.5 6.2-15.1 8.4-5 3.8-12.5 11.3-22.1 22.3-5.8 6.7-11.5 10.1-17.3 10.1-4.8 0-9.1-2.2-12.7-6.7-3.8-4.3-5.5-10.1-5.5-16.6 0-8.9 3.6-20.6 11-35.3.7-1.4 1.4-2.2 1.9-2.2 0 0 .2.2.2.5 0 1.4-1.7 6.5-4.8 15.1-3.4 8.9-5 15.6-5 20.6 0 3.8 1 7 2.9 9.1 1.9 2.6 4.6 3.8 7.9 3.8 6 0 12.2-3.1 18.2-9.1 4.1-4.4 7.9-9.2 11.8-13.8zm135.8-54.7l-3.4 9.8c-.5 1.2-.7 1.9-1 2.2-.2.5-.7.7-1.2.7-19.9 4.8-39.6 11-59.3 18.7.2 2.9.5 5.3.5 7 0 2.4-.5 3.6-1.2 3.6-1 0-3.1-2.6-6.2-8.4-3.6 1.2-9.8 3.8-18.7 7.7v-13.2c2.6-1.2 6.5-2.9 11-5-.5-.5-3.8-3.4-10.3-8.6-5.5-4.3-8.9-7.9-10.3-10.3-1.4-2.2-2.2-4.8-2.2-7.4 0-4.6 1.9-8.4 5.5-11.5 3.6-3.4 8.2-5 13.7-5 9.8 0 25.9 2.9 47.5 8.2 1 .2 12.5 3.4 34.6 9.4 1.3 0 1.5.9 1 2.1zm-24.7 6c-5.3-1.9-13.7-4.6-25-7.2-14.6-3.6-26.2-5.3-35-5.3-7 0-10.6.5-10.6 1.7 0 .5 1.2 1.7 3.1 3.6 4.1 3.1 8.2 6.5 12 9.8 6 4.8 9.6 8.4 11.3 10.6 15.9-5.5 30.5-10.1 44.2-13.2zm84.7-95.3c0-4.8-.7-8.6-2.2-11.8 0-1.7 1.2-5.8 4.1-12 .2-.7.5-1.2.7-1.2.5 0 .7.5 1.2 1.2.7 1.7 2.4 6.2 5.3 13.7 3.1 7.9 4.8 12.7 5.3 14.6.5 1.2.5 2.4.5 2.9 0 2.2-1.9 1-6.2-3.8-.5-.7-.7-.2-.7 1 0 .5 1.2 15.4 3.4 45.1 2.2 29.5 3.1 46.1 3.1 49.9 0 11.3-1.7 21.4-5 30-1 1.7-1.4 2.9-1.9 3.8-.7 1.2-1 1.2-1.2.5-.2-1 0-2.9.2-5.5.5-4.1.7-8.6.7-13.7 0-4.8-1.2-24-3.6-57.8-2.5-33.8-3.7-52.8-3.7-56.9zm-22.8 7.7c0-1.9-.5-4.3-1.4-7-1-2.6-1.4-4.1-1.4-4.3 0-.5.5-2.4 1.4-5.8 1-3.4 1.4-5.3 1.7-5.8.5-1 .7-1.2 1-1.2.3 0 .7.2 1.2 1 1 2.2 3.1 6.2 6.2 12.7 3.4 7.2 5.5 12 6.2 14.2.5 1.7.7 2.6.7 3.4 0 1.9-2.2.7-6.2-4.1-.5-.5-.7 0-.7 1.2 0 4.3 1.4 19.9 4.6 46.6 3.1 26.6 4.8 43.9 4.8 51.4 0 16.1-3.8 29.5-11.3 39.8-6 8.4-12.7 14.2-20.2 17.5-2.9 1.4-7.9 2.9-14.9 4.8-7.2 1.9-12.5 2.9-15.8 3.4-1.2 0-1.9 0-1.9-.5 0-.2.5-1 1.9-1.9 6.5-3.6 17-9.8 31.7-19 4.8-2.9 9.4-7 14.2-12.2 6.2-6.7 9.6-12.5 9.6-17 0-9.8-1.9-30.7-5.8-62.6-3.9-32.3-5.6-50.3-5.6-54.6zM232.4 43c-1.2-1.7-2.4-3.1-3.8-3.8-.7-.5-1-1.2-1-2.4v-9.6c0-1.9.2-2.9 1-2.9.5 0 1.4.5 2.6 1.2l18.5 14.4c1.4 1 2.2 1.9 2.2 2.4s-.5.7-1.7.7c-1.4 0-4.1-.5-7.7-1.4 2.2 3.8 21.6 24 58.3 60.7 17.3 17.3 25.9 32.4 25.9 45.1 0 1 0 2.2-.2 3.4-1 8.9-1.7 13.2-2.2 13.2-.5 0-1.2-3.6-2.2-11-1.9-11.8-10.8-25.4-26.6-40.8-25.4-24-43.4-42.7-54-55.9-2.2-2.6-4.1-5.3-5.8-7.9-.9-1.8-2.1-3.5-3.3-5.4z"/></svg>