<svg xmlns="http://www.w3.org/2000/svg" viewBox="0 0 602.9 202.5"><path d="M429.6 76.4c0 3.8-1.9 9.1-5.8 15.6-2.4 4.1-6 9.6-10.8 16.8 4.8 5.5 8.2 10.6 9.8 14.9 1 3.1 1.7 7.2 1.7 11.8 0 1.9-.5 4.3-1.4 7.4-.7 2.9-1.7 5-2.6 6.5-1.9 2.9-5 5.8-9.8 8.6-5 3.4-9.4 5-13 5-5.8 0-8.6-4.3-8.6-13 0-5.8 1-11.5 2.9-16.8 1.9-4.6 5-10.6 10.1-18.5-4.3-4.1-8.9-9.8-13.9-17-.5-.7-1.7-1.9-3.6-3.8-1-1-1.4-2.2-1.4-3.6 0-2.2.2-4.6.7-7.4.7-2.9 1.2-4.1 1.4-4.1.7 0 2.9 1.2 7 3.8 3.8 2.6 7 4.6 8.9 6.2 1.2.7 1.7 1.4 1.7 1.4v.2c0 .2-.7.5-2.4.5-3.1 0-4.8.2-4.8.5 0 .2.5.7 1.4 1.9 3.8 4.8 7.7 8.4 11.8 11.3 1-1.4 4.3-6.2 9.6-14.4 4.6-7 7.2-11.8 8.4-14.6 1.2-2.9 1.9-4.1 2.4-4.1.1.1.3 1.5.3 4.9zm-9.3 59c-2.6-5.3-7.2-10.8-13.4-16.1-2.2 2.2-4.8 6.2-8.2 12-3.8 6.5-5.5 10.6-5.5 12.7 0 2.9 1.9 4.3 6.2 4.3 1.9 0 4.3-.7 7.4-1.9 4.3-1.9 8.4-4.6 11.8-7.9 1.4-1.4 1.9-2.3 1.7-3.1zm-13.5-77l3.8-7.9c.2-.5.5-.7 1-.7s2.4 1.2 6.2 3.8c3.6 2.4 5.5 3.8 5.5 4.3 0 1.7-1.7 5.3-4.8 10.6-.5.7-1 .7-1.4.5-3.1-2.4-6.7-4.8-10.8-7.4-1.4 2.9-2.6 5.5-4.1 7.7-.2.7-.7 1-1.2.7-3.6-2.9-7.4-5.5-11.3-7.9-.2-.2-.2-.5 0-1l4.6-9.6c.2-.5.7-1 1-1 .5 0 2.2 1.2 5.3 3.4 3.1 1.9 5.3 3.5 6.2 4.5zm126.5 133.9c-2.6.7-4.1 1.2-4.6 1.2v-.2s1-.7 2.9-1.9 4.8-3.1 8.9-6.2c1.9-1.9 4.8-5 8.4-9.4 2.4-2.9 5-5.5 7.9-7.4 3.6-2.6 7-3.8 10.6-3.8.7 0 1.9.2 3.4.7 1.2.5 2.4.7 3.4.7 1.9 0 3.4-.7 4.6-2.2.7-1.4 1.7-2.6 2.6-4.1.5-1 1.2-1.4 1.7-1.4.2 0 .2.2.2.7 0 .5-.2 1.7-.7 3.1-.5.7 1.4 1 5 1 .5 0 .7 0 .7-.2 0 0-.2-1-.7-2.6-.2-.5 0-1.2.7-2.2 1-1.7 1.4-2.4 1.7-2.2 1 .7 1.4 2.2 1.4 3.8 0 1.7-.5 3.4-1.2 5.3-.7 2.2-1.4 3.4-1.9 3.8-1.7 1-4.3.7-7.9-1-2.9 2.9-5.8 4.6-8.6 4.6-.7 0-1.9-.2-3.1-.7-1.2-.5-2.2-.7-2.9-.7-4.8 0-9.8 2.2-14.9 7l-10.8 10.8c-2.2 1.6-4.4 2.8-6.8 3.5zM481.9 62.5c2.9 0 5.3 1.4 7.4 4.8 2.2 3.1 3.8 7.4 4.6 12.7.2.5.2.7.2 1h.2c0-.2.2-.5.2-1 .5-3.1 1.7-7.9 3.4-14.2 1.9-4.3 3.8-6.5 6-6.5 1.2 0 2.4.7 3.4 2.2 1 1.4 1.4 2.4 1.4 3.4 0 .5 0 1.4-.5 2.4-.5 1.4-1 2.2-1.4 2.2-.2 0-.7-.7-1.7-1.7-.7-1-1.7-1.4-2.6-1.4-1.9 0-3.6 4.6-5.3 13.7-.7 4.1-1.7 7-2.4 8.6-.7 1-1.2 1.7-1.7 1.7s-.5-.7-.7-1.7c.2-1.7-.7-4.8-2.6-9.4-1.9-4.8-3.1-7-4.1-7-.5 0-.7 0-1 .5-.2.2-.5.5-1.2.5-1 0-1.9-.7-3.4-1.9-1.4-1.2-1.9-2.2-1.9-2.9 0-.2.5-1.4 1.7-3.4 1.1-1.9 1.8-2.6 2-2.6zm-40.8-2.9c24.2-9.1 49.4-18.2 75.4-27.8.7-.2 1.2-.5 1.2-.2.2 0 .2.5 0 1.2-1 2.2-1.7 3.4-2.2 3.8-.2.2-12.5 4.8-36.2 13.7-24.2 8.9-37.9 14.4-40.6 16.1.5-2.2 1.2-4.4 2.4-6.8zm-23.5-43.9c.5-1.4.5-2.9.2-4.3-.2-1.4-1-2.2-2.2-2.2-.5 0-1.2.2-2.2.7-1 .5-1.4 1-1.4 1.4.1 1.3 2 2.7 5.6 4.4zm-2.9 6.2c-4.6-2.4-6.7-4.8-6.7-7.4 0-3.1 1.4-6 4.3-8.4 2.9-2.6 5.3-3.6 7.2-2.9 1.7.5 2.4 2.2 2.4 5 0 2.6-.5 5.5-1.7 8.9 2.4 1.2 3.8 2.4 4.3 3.4 0 1.2-1 3.4-3.1 6.2-.5-1-1.9-2.2-4.1-3.4-2.6 3.6-5.8 6.7-9.6 9.6-4.6 3.1-8.6 5.8-12.2 7.2-1 .5-5.3 2.2-13 5-1.2.5-2.2.7-2.4.7-.2 0-.2-.2-.2-.2 0-.2.5-1 1.9-1.7 5.8-3.6 11.5-7 17.5-10.3 7-4.2 12.1-8.1 15.4-11.7zm151.7 30c.5-1.4.5-2.9.2-4.3-.2-1.4-1-2.2-2.2-2.2-.5 0-1.2.2-2.2.7-1 .5-1.4 1-1.4 1.4.1 1.3 2 2.7 5.6 4.4zm5.3 8.9c-2.4 5.8-3.6 10.3-3.6 13.7 0 4.1 1 6.2 3.1 6.2 1.2 0 2.6-1.7 4.3-4.6.2-.2.2-.5.5-.7 0 0 .2 0 .2.2v.7c-1.4 7.2-3.6 10.8-6.5 10.8-3.1 0-4.6-2.6-4.6-7.9 0-2.6.5-6 1.9-10.3 1.4-4.3 2.2-6.5 2.2-6.7 0-.5-1-1.4-3.1-2.6-3.8 5-9.1 9.8-15.8 13.9-4.6 2.6-9.1 5-13.9 7-8.9 3.6-14.2 5.5-15.4 6.2-1.2.5-1.9.7-2.4.7-.2 0-.2-.2-.2-.2 0-.5.5-1 1.9-1.9 7.7-4.3 15.1-8.6 22.8-13 10.1-5.8 17-10.6 20.4-14.2-4.6-2.4-6.7-4.8-6.7-7.4 0-3.1 1.4-6 4.3-8.6 2.9-2.4 5.3-3.4 7.2-2.6 1.4.5 2.4 2.2 2.4 5 0 2.6-.5 5.5-1.7 8.6 2.4 1.4 3.4 2.9 3.4 4.3 0 .8-.2 2-.7 3.4zm-109.2-35c0-.2.2-.5.2-.5.2-.2.2-.2.2 0 .2.2.2.5 0 .7-1.2 7.2-3.4 10.8-6.5 10.8s-4.6-2.6-4.6-7.9c0-6.5 1.7-13.4 5.5-20.4 1-1.7 1.4-2.6 1.7-2.6 0 .2-.2 1.2-.7 2.9-2.4 7.4-3.6 12.5-3.6 15.6 0 3.8 1 6 3.1 6 1.6-.1 3-1.8 4.7-4.6zm-13.2 84c-.5-2.2-1.2-3.8-2.2-5-.7-1.4-1.2-2.2-1.4-2.6 0-.5 0-2.2.5-5.5.5-3.1.7-5.3 1.2-6.5.2-1.2.5-1.7 1-1.7.2 0 .5.2 1 .7 3.4 3.8 7 7.7 11 11.8 1.7 1.7 2.4 2.6 2.4 3.1 0 .2-.2.5-.7.5-.7 0-2.6-.5-5.5-1.2 1.7 4.1 3.6 8.2 5.3 12 2.6 6.7 4.1 12.2 4.1 17.3 0 2.4-.5 5.3-1.4 8.9-1.2 4.1-2.6 7.2-4.6 9.4-7 7.9-18.7 16.6-35.3 25.9-14.4 8.4-22.8 12.5-25.4 12.5-.5 0-7.7 1.7-21.4 5-14.4 3.4-23.5 5.5-27.1 6-3.8.7-6.2 1-7.2 1-.5 0-.5 0-.5-.2s2.6-1.7 7.9-4.1c1.9-1 13-5.8 33.4-14.4 14.2-6 25.9-11.5 35.3-16.6 14.2-7.7 25-14.4 32.4-19.9 5.5-4.3 8.4-7.4 8.4-9.4 0-.5-1.4-3.8-4.3-10.1-3.3-7.1-5.7-12.9-6.9-16.9zm-433.7-13c0-.2.2-.5.2-.5.2-.2.2-.2.2 0 .2.2.2.5 0 .7-1.2 7.2-3.4 10.8-6.5 10.8s-4.6-2.6-4.6-7.9c0-6.5 1.7-13.4 5.5-20.4 1-1.7 1.4-2.6 1.7-2.6 0 .2-.2 1.2-.7 2.9C9 87.2 7.8 92.3 7.8 95.4c0 3.8 1 6 3.1 6 1.6 0 3-1.7 4.7-4.6zm64.8-19c0 .5-.2 1.4-.7 2.4-.2 1.4-.7 2.2-1.4 2.2-.2 0-.7-.7-1.7-1.7-.7-1-1.7-1.4-2.4-1.4-1.9 0-3.8 4.6-5.5 13.7-.7 4.1-1.4 7-2.4 8.6-.7 1-1.2 1.7-1.7 1.7-.2 0-.5-.7-.5-1.7 0-1.7-1-4.8-2.9-9.4-1.9-4.8-3.1-7-3.8-7-.7 0-1 0-1.2.5 0 .2-.5.5-1.2.5-1 0-1.9-.7-3.4-1.9-1.2-1.2-1.9-2.2-1.9-2.9 0-.2.5-1.4 1.7-3.4s1.9-2.6 2.2-2.6c2.6 0 5 1.4 7.2 4.8 2.4 3.4 3.8 7.4 4.8 12.7v1c.2.2.2.2.2 0s.2-.5.5-1c.2-3.1 1.4-7.9 3.1-14.2 1.9-4.3 3.8-6.5 6-6.5 1.2 0 2.4.7 3.6 2.2.9 1.5 1.4 2.5 1.4 3.4zm-15.8 27.6c-1.7 3.8-5 7.7-10.1 11.3-4.6 3.4-8.6 5.8-12.2 7.4-.7.5-5 2.2-13 5-1.2.5-1.9.7-2.4.7-.2 0-.2-.2-.2-.2 0-.2.7-1 1.9-1.7 6.5-3.8 15.6-9.4 27.6-17.3 2.9-2.2 5-4.3 6.7-6.2 1.9-2.2 2.9-3.4 3.1-3.4v.2c0 .4-.5 1.8-1.4 4.2zm56.6 69.2c2.9 0 5.3 1.4 7.4 4.8 2.2 3.1 3.8 7.4 4.6 12.7.2.5.2.7.2 1h.2c0-.2.2-.5.2-1 .5-3.1 1.7-7.9 3.4-14.2 1.9-4.3 3.8-6.5 6-6.5 1.2 0 2.4.7 3.4 2.2 1 1.4 1.4 2.4 1.4 3.4 0 .5 0 1.4-.5 2.4-.5 1.4-1 2.2-1.4 2.2-.2 0-.7-.7-1.7-1.7-.7-1-1.7-1.4-2.6-1.4-1.9 0-3.6 4.6-5.3 13.7-.7 4.1-1.7 7-2.4 8.6-.7 1-1.2 1.7-1.7 1.7s-.5-.7-.7-1.7c.2-1.7-.7-4.8-2.6-9.4-1.9-4.8-3.1-7-4.1-7-.5 0-.7 0-1 .5-.2.2-.5.5-1.2.5-1 0-1.9-.7-3.4-1.9-1.4-1.2-1.9-2.2-1.9-2.9 0-.2.5-1.4 1.7-3.4 1.1-1.9 1.8-2.6 2-2.6zm66.3 16.3c0-.2.2-.5.2-.5.2-.2.2-.2.2 0 .2.2.2.5 0 .7-1.2 7.2-3.4 10.8-6.5 10.8s-4.6-2.6-4.6-7.9c0-6.5 1.7-13.4 5.5-20.4 1-1.7 1.4-2.6 1.7-2.6 0 .2-.2 1.2-.7 2.9-2.4 7.4-3.6 12.5-3.6 15.6 0 3.8 1 6 3.1 6 1.5-.1 3-1.7 4.7-4.6zm32.4-17.1c2.9 0 5.3 1.4 7.4 4.8 2.2 3.1 3.8 7.4 4.6 12.7.2.5.2.7.2 1h.2c0-.2.2-.5.2-1 .5-3.1 1.7-7.9 3.4-14.2 1.9-4.3 3.8-6.5 6-6.5 1.2 0 2.4.7 3.4 2.2 1 1.4 1.4 2.4 1.4 3.4 0 .5 0 1.4-.5 2.4-.5 1.4-1 2.2-1.4 2.2-.2 0-.7-.7-1.7-1.7-.7-1-1.7-1.4-2.6-1.4-1.9 0-3.6 4.6-5.3 13.7-.7 4.1-1.7 7-2.4 8.6-.7 1-1.2 1.7-1.7 1.7s-.5-.7-.7-1.7c.2-1.7-.7-4.8-2.6-9.4-1.9-4.8-3.1-7-4.1-7-.5 0-.7 0-1 .5-.2.2-.5.5-1.2.5-1 0-1.9-.7-3.4-1.9-1.4-1.2-1.9-2.2-1.9-2.9 0-.2.5-1.4 1.7-3.4 1-1.8 1.7-2.6 2-2.6zM66 182.7c9.6-3.4 19.9-7.2 31-11 1-.2 1.2-.5 1.4-.2.2 0 .2.5-.2 1.2-.7 2.2-1.4 3.4-1.9 3.8-9.6 3.4-20.4 7.4-32.6 13 .4-2.2 1.1-4.4 2.3-6.8zM242.4 78.6c0-1.2-2.4-3.4-7.4-6.2-1.7 2.9-2.4 5.5-2.4 7.9 0 1.4.7 2.4 2.2 2.4 1.2 0 2.6-.5 4.3-1.4 1.6-.8 2.8-1.8 3.3-2.7zm-5.3-19.2c.7-1.2 1.7-1.7 2.4-1.7.5 0 1 .2 1 .7 0 0-.2.2-.2.5-1 2.2-1.9 4.6-2.6 7 5 3.6 7.4 7.4 7.2 11-.5 4.1-1 6.7-1.7 7.7-2.4 2.9-5 4.6-8.4 4.6-3.4 0-4.8-2.2-4.8-6 0-.7 0-1.7.2-2.6 1.2-7.8 3.6-14.8 6.9-21.2zm-69.8-6c13.7-4.8 28.1-10.1 43.2-15.6 1-.2 1.2-.5 1.4-.2.2 0 .2.5-.2 1.2-.7 2.2-1.4 3.4-1.9 3.8-13 4.6-27.8 10.3-44.9 17.5.5-2.2 1.2-4.3 2.4-6.7zm1.4-47.8c2.9 0 5.3 1.4 7.4 4.8 2.2 3.1 3.8 7.4 4.6 12.7.2.5.2.7.2 1h.2c0-.2.2-.5.2-1 .5-3.1 1.7-7.9 3.4-14.2 1.9-4.3 3.8-6.5 6-6.5 1.2 0 2.4.7 3.4 2.2 1 1.4 1.4 2.4 1.4 3.4 0 .5 0 1.4-.5 2.4-.5 1.4-1 2.2-1.4 2.2-.2 0-.7-.7-1.7-1.7-.7-1-1.7-1.4-2.6-1.4-1.9 0-3.6 4.6-5.3 13.7-.7 4.1-1.7 7-2.4 8.6-.7 1-1.2 1.7-1.7 1.7s-.5-.7-.7-1.7c.2-1.7-.7-4.8-2.6-9.4-1.9-4.8-3.1-7-4.1-7-.5 0-.7 0-1 .5-.2.2-.5.5-1.2.5-1 0-1.9-.7-3.4-1.9-1.4-1.2-1.9-2.2-1.9-2.9 0-.2.5-1.4 1.7-3.4 1.1-1.9 1.8-2.6 2-2.6zm-56.4 19.2c0-.2.2-.5.2-.5.2-.2.2-.2.2 0 .2.2.2.5 0 .7-1.2 7.2-3.4 10.8-6.5 10.8s-4.6-2.6-4.6-7.9c0-6.5 1.7-13.4 5.5-20.4 1-1.7 1.4-2.6 1.7-2.6 0 .2-.2 1.2-.7 2.9-2.4 7.4-3.6 12.5-3.6 15.6 0 3.8 1 6 3.1 6 1.6 0 3.1-1.7 4.7-4.6zM39.9 35.1c2.9 0 5.3 1.4 7.4 4.8 2.2 3.1 3.8 7.4 4.6 12.7.2.5.2.7.2 1h.2c0-.2.2-.5.2-1 .5-3.1 1.7-7.9 3.4-14.2 1.9-4.3 3.8-6.5 6-6.5 1.2 0 2.4.7 3.4 2.2 1 1.4 1.4 2.4 1.4 3.4 0 .5 0 1.4-.5 2.4-.5 1.4-1 2.2-1.4 2.2-.2 0-.7-.7-1.7-1.7-.7-1-1.7-1.4-2.6-1.4-1.9 0-3.6 4.6-5.3 13.7-.7 4.1-1.7 7-2.4 8.6-.7 1-1.2 1.7-1.7 1.7s-.5-.7-.7-1.7c.2-1.7-.7-4.8-2.6-9.4-1.9-4.8-3.1-7-4.1-7-.5 0-.7 0-1 .5-.2.2-.5.5-1.2.5-1 0-1.9-.7-3.4-1.9-1.4-1.2-1.9-2.2-1.9-2.9 0-.2.5-1.4 1.7-3.4 1-1.9 1.7-2.6 2-2.6zm504.2 77.5c1.2-1 2.2-1.4 2.9-1.4.5 0 .7.5.7 1.4 0 .7-.2 2.2-.7 4.1-.5 1.9-.7 3.4-.7 4.6 0 5.3 3.8 8.2 11.3 8.2 6 0 11-2.6 14.9-7.7 2.4-4.1 5-7.9 7.4-11.8 1-1 1.7-1.4 2.4-1.4 1 0 1.2 1 .7 3.1-1 4.1-1.7 6-1.7 5.5 0 1.7 1 3.4 2.9 4.8 1.7 1.4 4.1 2.4 6.7 2.4 3.4 0 5.5-1 6.5-2.6 0-.2-1-2.2-3.1-5.8.2-1.9 1.2-5.3 2.6-9.8.2-1.4.7-2.2 1.2-2.2s1 .2 1.7 1.2c1.9 2.9 3.1 6.2 3.1 10.1 0 6-1.4 11-4.1 15.4-2.9 5.3-7.2 7.9-13 7.9-3.8 0-7.4-3.1-10.6-8.9-5.3 9.6-12.2 14.4-20.6 14.4-10.1 0-14.9-5.8-14.9-16.8-3.8 4.6-10.3 8.6-18.7 12.5v-13.2c6.2-3.1 10.3-5 11.5-5.8 3.9-1.9 7.8-4.8 11.6-8.2zm-36.7 15.9c-3.6-4.6-6.7-6.7-9.6-6.7-4.3 0-6.2 1-6.2 3.4 0 2.9 2.9 4.3 8.6 4.3 2.1-.1 4.5-.5 7.2-1zm7.4 17.5c0-1.4-.5-3.1-1-4.8-2.9 1-7.2 1.7-12.5 1.7-11.5 0-17.3-4.1-17.3-12 0-6 1.7-11.3 5.5-16.1 3.6-4.1 7.4-6.2 11.5-6.2 3.1 0 6.2 1.9 9.8 5.5 3.1 3.6 6 7.7 8.4 12.7.2 0 .7 0 1.7-.5v13.2l-.5.5c0 2.9-.7 6.2-2.2 10.6-1.7 5.5-4.3 10.1-7.4 13.7-7.2 8.6-15.1 16.1-23.8 22.6-13 9.6-24 14.6-33.6 14.6-8.2 0-14.4-3.1-18.7-9.1-3.8-5-5.8-11.8-5.8-19.7 0-10.1 2.2-20.4 6.2-31.2 1.2-2.4 1.7-3.4 2.2-3.4.2 0 .2.2.2.7 0 .7-.2 1.9-.5 3.4-3.1 10.6-4.6 18.5-4.6 24 0 5 1.2 9.4 3.6 13 3.8 5 9.8 7.7 18.2 7.7 7.2 0 15.8-3.1 26.2-9.4 8.2-5 16.1-11 23.8-18.2 7-6.8 10.6-11.1 10.6-13.3zm-300.9 12.7c-12.5 0-21.6-1.7-27.1-5-7 5-13.2 7.7-18.5 7.7v-14.6c3.6 0 7-1 10.3-2.4-1.7-2.9-2.4-6.7-2.4-11.5 0-6.7 2.6-13.7 7.7-20.4 4.8-6.2 8.6-9.6 12-9.6 3.1 0 5.8 2.4 7.4 7 1.2 3.6 1.9 7.4 1.9 11.3 0 9.4-2.2 16.8-6.2 22.1 2.6.7 7.7 1 14.9 1v14.4zm-14.2-28.1c0-1.9-.7-4.8-2.2-8.2-1.7-3.8-3.1-5.8-4.3-5.8-1.4 0-3.8 1.7-7 5-3.1 3.4-5 6.2-6.2 8.9.5 1.4 1.7 3.1 3.4 4.8 1.7 1.9 3.6 3.1 5.5 3.8 5.3-2.5 8.9-5.3 10.8-8.5zm-46.3 1c1.2 6.7 3.6 11.3 6.7 13.4 1.9 1 4.6 1.7 8.2 1.7v14.6c-5.3 0-9.4-1.2-12.2-3.4-4.3-3.1-7-8.6-8.4-17-1-5.3-1.9-20.4-2.6-45.8-1-27.4-1.7-44.2-2.2-50.4-1.2-10.1-3.1-19.4-5.8-28.6 0-2.4 1-5.8 2.9-10.6.5-1.2.7-1.9 1.2-1.9.2 0 .7.7 1.2 1.7 3.1 6 5.3 16.3 7 30.7 1 9.1 1.9 27.1 2.6 54 .4 25.3 1.1 39.2 1.4 41.6zm-31-26.9c-3.6-5.3-7.4-7.9-11.8-7.9-3.4 0-4.8 1.2-4.8 3.1 0 2.4 1.9 3.6 5.8 4.1 2.4.2 6 .5 10.8.7zm-76.3 49.2c15.6 0 33.6-3.6 53.5-10.6 15.1-5.3 26.4-10.3 33.8-15.1 0-3.1-1.7-5.5-5-7.4-2.9-1.7-6.2-2.6-10.3-2.6h-9.8c-3.6 0-6.5-1.2-8.4-3.6-2.2-2.2-3.4-5.3-3.4-8.9 0-5 1.9-10.1 5.3-15.1 3.6-5 7.2-7.7 10.8-7.7 6 0 11.8 3.4 16.8 10.1 5.8 7.4 8.6 16.3 8.6 26.4 0 5.5-.5 9.6-1.4 11.8-1 2.9-3.4 6-7.2 9.8-4.6 4.6-16.1 10.1-34.3 16.6-21.1 7.4-39.4 11-55 11-15.4 0-26.2-4.1-33.1-12-4.8-5.8-7-13-7-21.6 0-9.1 2.2-17.5 6.5-25.4 1.4-2.4 2.4-3.8 2.9-3.8 0 .2.2.2.2.7 0 .7-.5 2.2-1.2 4.3-1 2.9-2.2 5.5-3.1 8.4-1.2 3.6-1.7 7.4-1.7 11.5 0 5.3 2.4 9.8 7.7 13.9 7.4 6.2 19 9.3 34.8 9.3zm52.6-92.1c-.2-.2-.2-.5 0-1l4.6-9.6c.2-.5.7-.7 1-.7.5 0 2.6 1.2 6.2 3.6 3.8 2.6 5.8 4.1 5.8 4.6 0 1.7-1.7 5-5 10.3-.5.7-.7 1-1.2.7-3.8-2.9-7.6-5.5-11.4-7.9zm89.2 14.8l3.8-7.9c.2-.5.5-.7 1-.7s2.4 1.2 6.2 3.8c3.6 2.4 5.5 3.8 5.5 4.3 0 1.7-1.7 5.3-4.8 10.6-.5.7-1 .7-1.4.5-3.1-2.4-6.7-4.8-10.8-7.4-1.4 2.9-2.6 5.5-4.1 7.7-.2.7-.7 1-1.2.7-3.6-2.9-7.4-5.5-11.3-7.9-.2-.2-.2-.5 0-1l4.6-9.6c.2-.5.7-1 1-1 .5 0 2.2 1.2 5.3 3.4 3.1 1.9 5.3 3.6 6.2 4.5zm54.3-66.2c-.5 2.2-1 3.4-1.7 4.1-2.6 1.7-8.6 5.5-17.8 11.8-.2.2-.7.5-1.2 1-.2-.2-.2-.2-.2-.7l.5-3.1c.2-.7 1.7-2.2 4.6-4.3-3.6-1.2-5.3-2.9-5.3-4.8 0-2.2.7-4.3 2.6-6.5 3.6-4.3 6.7-6.5 9.1-6.5 2.2 0 3.1 1.2 3.1 3.6 0 1.4-.5 2.9-1.7 4.8-.2.5-.5.5-1-.2-.5-1.2-1.4-1.7-2.6-1.7-.7 0-1.7.2-2.9 1.2-1.2.7-1.9 1.4-1.9 1.9 0 .7.7 1.4 2.2 2.2 1.4 1 2.6 1.2 3.6 1.2.7 0 2.2-.5 4.3-1.7 1.4-1 2.6-1.9 4.1-2.9 1.2-.5 1.9-1 2.2-.7.2-.1.2.3 0 1.3zm61.4 12c0-1.2-2.4-3.4-7.4-6.2-1.7 2.9-2.4 5.5-2.4 7.9 0 1.4.7 2.4 2.2 2.4 1.2 0 2.6-.5 4.3-1.4 1.6-.8 2.8-1.7 3.3-2.7zm-5.3-19.2c.7-1.2 1.7-1.7 2.4-1.7.5 0 1 .2 1 .7 0 0-.2.2-.2.5-1 2.2-1.9 4.6-2.6 7 5 3.6 7.4 7.4 7.2 11-.5 4.1-1 6.7-1.7 7.7-2.4 2.9-5 4.6-8.4 4.6-3.4 0-4.8-2.2-4.8-6 0-.7 0-1.7.2-2.6 1.2-7.8 3.6-14.7 6.9-21.2zm18.5 66.7c0-.2.2-.5.2-.5.2-.2.2-.2.2 0 .2.2.2.5 0 .7-1.2 7.2-3.4 10.8-6.5 10.8s-4.6-2.6-4.6-7.9c0-6.5 1.7-13.4 5.5-20.4 1-1.7 1.4-2.6 1.7-2.6 0 .2-.2 1.2-.7 2.9-2.4 7.4-3.6 12.5-3.6 15.6 0 3.8 1 6 3.1 6 1.6 0 3-1.7 4.7-4.6zm-22.3 108.3c-4.8 4.3-11.3 6.7-19 6.7-2.2 0-4.3-.7-5.8-1.9-1.4-1.2-2.2-2.9-2.2-4.8 0-3.4 1.2-6.7 4.1-10.1 2.9-3.1 5.8-6 8.4-9.1.7-.5.5-1-.5-1.4-1.9-.7-4.3-1-6.7-1-1.2 0-2.6.2-4.3 1.2-.2 0-.5.2-.7 0 0 0 0-.2.2-.7 1-2.4 1.9-4.1 2.9-4.8 1.2-1 3.1-1.4 5.8-1.4 5.8 0 8.4 1.2 8.4 4.1 0 2.2-1.7 5-5.3 9.1l-7.9 7.9c-1 1.4-1.4 2.9-1.4 3.8 0 2.4 2.6 3.6 7.7 3.6s10.1-1 15.8-2.6c1.4-.5 2.2-.5 2.2-.2 0-.1-.5.6-1.7 1.6zM213.9 159v-14.6c5.3 0 12.7-1.7 22.1-5 4.1-1.4 12.5-4.6 25.7-9.8l-27.6-8.4c-1-.2-1.9.2-2.9 1.2-.7.7-1.9 1-3.4 1-4.6-.2-10.8-.7-18.7-1.2-1.4-.2-2.4-.7-2.4-1.4 0-.5.2-1.2 1-2.4l4.6-8.6c.7-1.4 1.7-2.2 2.6-2.2 5.8-1 12.5-1.4 20.2-1.4.2 0 6 1.9 16.8 5.5 12 3.8 20.4 6.5 25.2 7.4 4.8 1.2 12 2.4 21.6 4.1 8.9 1.4 13.9 2.2 15.1 2.2h1.2c.5.2.5 1-.2 1.9l-5 9.4c-.5 1-1.2 1.4-2.4 1.4-1 0-3.4-.2-7-.7-3.4-.5-6.5-.7-9.4-.7-8.4 0-18 1.9-28.6 5.8-8.6 3.6-17.3 7.2-25.7 10.8-9.6 3.7-17.1 5.7-22.8 5.7zM357.6 25c0-4.8-.7-8.6-2.2-11.8 0-1.7 1.2-5.8 4.1-12 .2-.7.5-1.2.7-1.2.5 0 .7.5 1.2 1.2.7 1.7 2.4 6.2 5.3 13.7 3.1 7.9 4.8 12.7 5.3 14.6.5 1.2.5 2.4.5 2.9 0 2.2-1.9 1-6.2-3.8-.5-.7-.7-.2-.7 1 0 .5 1.2 15.4 3.4 45.1 2.2 29.5 3.1 46.1 3.1 49.9 0 11.3-1.7 21.4-5 30-1 1.7-1.4 2.9-1.9 3.8-.7 1.2-1 1.2-1.2.5-.2-1 0-2.9.2-5.5.5-4.1.7-8.6.7-13.7 0-4.8-1.2-24-3.6-57.8-2.5-33.8-3.7-52.8-3.7-56.9zm-23.7 9.4c0-1.9-.5-4.3-1.4-7-1-2.6-1.4-4.1-1.4-4.3 0-.5.5-2.4 1.4-5.8 1-3.4 1.4-5.3 1.7-5.8.5-1 .7-1.2 1-1.2.2 0 .7.2 1.2 1 1 2.2 3.1 6.2 6.2 12.7 3.4 7.2 5.5 12 6.2 14.2.5 1.7.7 2.6.7 3.4 0 1.9-2.2.7-6.2-4.1-.5-.5-.7 0-.7 1.2 0 4.3 1.4 19.9 4.6 46.6 3.1 26.6 4.8 43.9 4.8 51.4 0 16.1-3.8 29.5-11.3 39.8-6 8.4-12.7 14.2-20.2 17.5-2.9 1.4-7.9 2.9-14.9 4.8-7.2 1.9-12.5 2.9-15.8 3.4-1.2 0-1.9 0-1.9-.5 0-.2.5-1 1.9-1.9 6.5-3.6 17-9.8 31.7-19 4.8-2.9 9.4-7 14.2-12.2 6.2-6.7 9.6-12.5 9.6-17 0-9.8-1.9-30.7-5.8-62.6-4-32.3-5.6-50.3-5.6-54.6zm-90.3 10.1c-1.2-1.7-2.4-3.1-3.8-3.8-.7-.5-1-1.2-1-2.4v-9.6c0-1.9.2-2.9 1-2.9.5 0 1.4.5 2.6 1.2l18.5 14.4c1.4 1 2.2 1.9 2.2 2.4s-.5.7-1.7.7c-1.4 0-4.1-.5-7.7-1.4 2.2 3.8 21.6 24 58.3 60.7 17.3 17.3 25.9 32.4 25.9 45.1 0 1 0 2.2-.2 3.4-1 8.9-1.7 13.2-2.2 13.2-.5 0-1.2-3.6-2.2-11-1.9-11.8-10.8-25.4-26.6-40.8-25.4-24-43.4-42.7-54-55.9-2.2-2.6-4.1-5.3-5.8-7.9-.9-1.8-2.1-3.5-3.3-5.4z"/></svg>