<svg xmlns="http://www.w3.org/2000/svg" viewBox="0 0 589.1 208.9"><path d="M415.8 83.7c0 3.8-1.9 9.1-5.8 15.6-2.4 4.1-6 9.6-10.8 16.8 4.8 5.5 8.2 10.6 9.8 14.9 1 3.1 1.7 7.2 1.7 11.8 0 1.9-.5 4.3-1.4 7.4-.7 2.9-1.7 5-2.6 6.5-1.9 2.9-5 5.8-9.8 8.6-5 3.4-9.4 5-13 5-5.8 0-8.6-4.3-8.6-13 0-5.8 1-11.5 2.9-16.8 1.9-4.6 5-10.6 10.1-18.5-4.3-4.1-8.9-9.8-13.9-17-.5-.7-1.7-1.9-3.6-3.8-1-1-1.4-2.2-1.4-3.6 0-2.2.2-4.6.7-7.4.7-2.9 1.2-4.1 1.4-4.1.7 0 2.9 1.2 7 3.8 3.8 2.6 7 4.6 8.9 6.2 1.2.7 1.7 1.4 1.7 1.4v.2c0 .2-.7.5-2.4.5-3.1 0-4.8.2-4.8.5 0 .2.5.7 1.4 1.9 3.8 4.8 7.7 8.4 11.8 11.3 1-1.4 4.3-6.2 9.6-14.4 4.6-7 7.2-11.8 8.4-14.6 1.2-2.9 1.9-4.1 2.4-4.1 0 .1.3 1.6.3 4.9zm-9.4 59.1c-2.6-5.3-7.2-10.8-13.4-16.1-2.2 2.2-4.8 6.2-8.2 12-3.8 6.5-5.5 10.6-5.5 12.7 0 2.9 1.9 4.3 6.2 4.3 1.9 0 4.3-.7 7.4-1.9 4.3-1.9 8.4-4.6 11.8-7.9 1.5-1.4 2-2.4 1.7-3.1zM393 65.5l3.8-7.9c.2-.5.5-.7 1-.7s2.4 1.2 6.2 3.8c3.6 2.4 5.5 3.8 5.5 4.3 0 1.7-1.7 5.3-4.8 10.6-.5.7-1 .7-1.4.5-3.1-2.4-6.7-4.8-10.8-7.4-1.4 2.9-2.6 5.5-4.1 7.7-.2.7-.7 1-1.2.7-3.6-2.9-7.4-5.5-11.3-7.9-.2-.2-.2-.5 0-1l4.6-9.6c.2-.5.7-1 1-1 .5 0 2.2 1.2 5.3 3.4 3.1 1.9 5.2 3.5 6.2 4.5zm126.5 133.9c-2.6.7-4.1 1.2-4.6 1.2v-.2s1-.7 2.9-1.9 4.8-3.1 8.9-6.2c1.9-1.9 4.8-5 8.4-9.4 2.4-2.9 5-5.5 7.9-7.4 3.6-2.6 7-3.8 10.6-3.8.7 0 1.9.2 3.4.7 1.2.5 2.4.7 3.4.7 1.9 0 3.4-.7 4.6-2.2.7-1.4 1.7-2.6 2.6-4.1.5-1 1.2-1.4 1.7-1.4.2 0 .2.2.2.7 0 .5-.2 1.7-.7 3.1-.5.7 1.4 1 5 1 .5 0 .7 0 .7-.2 0 0-.2-1-.7-2.6-.2-.5 0-1.2.7-2.2 1-1.7 1.4-2.4 1.7-2.2 1 .7 1.4 2.2 1.4 3.8 0 1.7-.5 3.4-1.2 5.3-.7 2.2-1.4 3.4-1.9 3.8-1.7 1-4.3.7-7.9-1-2.9 2.9-5.8 4.6-8.6 4.6-.7 0-1.9-.2-3.1-.7-1.2-.5-2.2-.7-2.9-.7-4.8 0-9.8 2.2-14.9 7l-10.8 10.8c-2.3 1.6-4.4 2.8-6.8 3.5zM467.9 69.8c2.9 0 5.3 1.4 7.4 4.8 2.2 3.1 3.8 7.4 4.6 12.7.2.5.2.7.2 1h.2c0-.2.2-.5.2-1 .5-3.1 1.7-7.9 3.4-14.2 1.9-4.3 3.8-6.5 6-6.5 1.2 0 2.4.7 3.4 2.2 1 1.4 1.4 2.4 1.4 3.4 0 .5 0 1.4-.5 2.4-.5 1.4-1 2.2-1.4 2.2-.2 0-.7-.7-1.7-1.7-.7-1-1.7-1.4-2.6-1.4-1.9 0-3.6 4.6-5.3 13.7-.7 4.1-1.7 7-2.4 8.6-.7 1-1.2 1.7-1.7 1.7s-.5-.7-.7-1.7c.2-1.7-.7-4.8-2.6-9.4-1.9-4.8-3.1-7-4.1-7-.5 0-.7 0-1 .5-.2.2-.5.5-1.2.5-1 0-1.9-.7-3.4-1.9-1.4-1.2-1.9-2.2-1.9-2.9 0-.2.5-1.4 1.7-3.4 1-1.9 1.7-2.6 2-2.6zm-40.6-2.9c24.2-9.1 49.4-18.2 75.4-27.8.7-.2 1.2-.5 1.2-.2.2 0 .2.5 0 1.2-1 2.2-1.7 3.4-2.2 3.8-.2.2-12.5 4.8-36.2 13.7-24.2 8.9-37.9 14.4-40.6 16.1.5-2.2 1.2-4.4 2.4-6.8zM403.8 23c.5-1.4.5-2.9.2-4.3-.2-1.4-1-2.2-2.2-2.2-.5 0-1.2.2-2.2.7-1 .5-1.4 1-1.4 1.4.1 1.3 2 2.7 5.6 4.4zm-2.9 6.3c-4.6-2.4-6.7-4.8-6.7-7.4 0-3.1 1.4-6 4.3-8.4 2.9-2.6 5.3-3.6 7.2-2.9 1.7.5 2.4 2.2 2.4 5 0 2.6-.5 5.5-1.7 8.9 2.4 1.2 3.8 2.4 4.3 3.4 0 1.2-1 3.4-3.1 6.2-.5-1-1.9-2.2-4.1-3.4-2.6 3.6-5.8 6.7-9.6 9.6-4.6 3.1-8.6 5.8-12.2 7.2-1 .5-5.3 2.2-13 5-1.2.5-2.2.7-2.4.7-.2 0-.2-.2-.2-.2 0-.2.5-1 1.9-1.7 5.8-3.6 11.5-7 17.5-10.3 7-4.3 12-8.1 15.4-11.7zM552.6 59c.5-1.4.5-2.9.2-4.3-.2-1.4-1-2.2-2.2-2.2-.5 0-1.2.2-2.2.7-1 .5-1.4 1-1.4 1.4.1 1.3 2 2.7 5.6 4.4zm5.3 8.9c-2.4 5.8-3.6 10.3-3.6 13.7 0 4.1 1 6.2 3.1 6.2 1.2 0 2.6-1.7 4.3-4.6.2-.2.2-.5.5-.7 0 0 .2 0 .2.2v.7c-1.4 7.2-3.6 10.8-6.5 10.8-3.1 0-4.6-2.6-4.6-7.9 0-2.6.5-6 1.9-10.3 1.4-4.3 2.2-6.5 2.2-6.7 0-.5-1-1.4-3.1-2.6-3.8 5-9.1 9.8-15.8 13.9-4.6 2.6-9.1 5-13.9 7-8.9 3.6-14.2 5.5-15.4 6.2-1.2.5-1.9.7-2.4.7-.2 0-.2-.2-.2-.2 0-.5.5-1 1.9-1.9 7.7-4.3 15.1-8.6 22.8-13 10.1-5.8 17-10.6 20.4-14.2-4.6-2.4-6.7-4.8-6.7-7.4 0-3.1 1.4-6 4.3-8.6 2.9-2.4 5.3-3.4 7.2-2.6 1.4.5 2.4 2.2 2.4 5 0 2.6-.5 5.5-1.7 8.6 2.4 1.4 3.4 2.9 3.4 4.3 0 .8-.3 2-.7 3.4zM448.7 33.1c0-.2.2-.5.2-.5.2-.2.2-.2.2 0 .2.2.2.5 0 .7-1.2 7.2-3.4 10.8-6.5 10.8s-4.6-2.6-4.6-7.9c0-6.5 1.7-13.4 5.5-20.4 1-1.7 1.4-2.6 1.7-2.6 0 .2-.2 1.2-.7 2.9-2.4 7.4-3.6 12.5-3.6 15.6 0 3.8 1 6 3.1 6 1.5 0 3-1.7 4.7-4.6zm-13.2 84c-.5-2.2-1.2-3.8-2.2-5-.7-1.4-1.2-2.2-1.4-2.6 0-.5 0-2.2.5-5.5.5-3.1.7-5.3 1.2-6.5.2-1.2.5-1.7 1-1.7.2 0 .5.2 1 .7 3.4 3.8 7 7.7 11 11.8 1.7 1.7 2.4 2.6 2.4 3.1 0 .2-.2.5-.7.5-.7 0-2.6-.5-5.5-1.2 1.7 4.1 3.6 8.2 5.3 12 2.6 6.7 4.1 12.2 4.1 17.3 0 2.4-.5 5.3-1.4 8.9-1.2 4.1-2.6 7.2-4.6 9.4-7 7.9-18.7 16.6-35.3 25.9-14.4 8.4-22.8 12.5-25.4 12.5-.5 0-7.7 1.7-21.4 5-14.4 3.4-23.5 5.5-27.1 6-3.8.7-6.2 1-7.2 1-.5 0-.5 0-.5-.2s2.6-1.7 7.9-4.1c1.9-1 13-5.8 33.4-14.4 14.2-6 25.9-11.5 35.3-16.6 14.2-7.7 25-14.4 32.4-19.9 5.5-4.3 8.4-7.4 8.4-9.4 0-.5-1.4-3.8-4.3-10.1-3.3-7.1-5.7-12.8-6.9-16.9zM40.7 197c9.6-3.4 19.9-7.2 31-11 1-.2 1.2-.5 1.4-.2.2 0 .2.5-.2 1.2-.7 2.2-1.4 3.4-1.9 3.8-9.6 3.4-20.4 7.4-32.6 13 .3-2.2 1.1-4.4 2.3-6.8zm162.9 2.7c-4.8 4.3-11.3 6.7-19 6.7-2.2 0-4.3-.7-5.8-1.9-1.4-1.2-2.2-2.9-2.2-4.8 0-3.4 1.2-6.7 4.1-10.1 2.9-3.1 5.8-6 8.4-9.1.7-.5.5-1-.5-1.4-1.9-.7-4.3-1-6.7-1-1.2 0-2.6.2-4.3 1.2-.2 0-.5.2-.7 0 0 0 0-.2.2-.7 1-2.4 1.9-4.1 2.9-4.8 1.2-1 3.1-1.4 5.8-1.4 5.8 0 8.4 1.2 8.4 4.1 0 2.2-1.7 5-5.3 9.1l-7.9 7.9c-1 1.4-1.4 2.9-1.4 3.8 0 2.4 2.6 3.6 7.7 3.6 5 0 10.1-1 15.8-2.6 1.4-.5 2.2-.5 2.2-.2 0-.1-.5.6-1.7 1.6zm137.1-24.8c0-.7-.5-1.7-1.4-2.6-.7-1-1.7-1.4-2.4-1.4-1.2 0-2.2.5-2.9 1.7 1.2 1.2 3.1 2.4 5.8 3.6.5.2.7.2 1 0 .1-.1.1-.5-.1-1.3zm-10.6-4.3c.5-.7 1-.7 1.4-.2 1.9-3.6 3.8-5.5 6-5.5 1.4 0 2.9.7 4.1 2.6 1.4 1.7 1.9 3.8 1.9 6 0 1 0 1.7-.2 2.6-.7 3.8-1.9 5.8-3.6 5.8-1.4 0-3.4-1-5.5-2.4-2.2-1.2-3.6-2.6-4.6-3.8-1.4 4.1-3.1 7.4-5.3 9.8-3.8 4.3-8.6 7.9-15.1 11.3-4.8 2.9-7.9 4.1-9.4 4.1 0 0-2.9.7-8.4 1.9-5.8 1.4-9.4 2.4-10.8 2.6-2.2.2-3.1.2-3.1.2 0-.2 1-.7 3.1-1.7 6-2.4 15.1-6.5 27.6-12.5 8.9-4.8 14.6-9.1 17-12.7 1.3-2.1 2.7-5 4.9-8.1zm-73-136.5c-.5-2.9-1.7-6.2-3.4-10.3-1.7-4.1-3.1-6.2-3.8-6.2-.5 0-.7 0-1 .5-.2.2-.5.5-1.2.5-1 0-1.9-.7-3.4-1.9-1.4-1.2-1.9-2.2-1.9-2.9 0-.2.5-1.4 1.7-3.4 1-1.9 1.7-2.6 1.9-2.6 2.9 0 5.3 1.4 7.4 4.8 2.2 3.1 3.8 7.4 4.6 12.7.2.5.2.7.2 1h.2c0-.2.2-.5.2-1 .5-3.1 1.7-7.9 3.4-14.2 1.9-4.3 3.8-6.5 6-6.5 1.2 0 2.4.7 3.4 2.2 1 1.4 1.4 2.4 1.4 3.4 0 .5 0 1.4-.5 2.4-.5 1.4-1 2.2-1.4 2.2-.2 0-.7-.7-1.7-1.7-.7-1-1.7-1.4-2.6-1.4-1.9 0-3.6 4.6-5.3 13.7-.7 3.6-1.4 6.5-2.6 8.6 1.7 0 3.6 1.2 6.2 3.1 2.4 2.2 3.8 3.8 4.1 5.3 0 .5-.2 1.4-1 3.1-.7 1.7-1.2 2.4-1.7 2.6-2.4.7-4.8 1.2-7.2 1.9-2.9 1-5 2.2-6.2 3.4 3.4 10.1 5 19.9 5 29.8 0 2.9-.5 5.8-1 8.9-.2 1-.5 1.4-.7 1.7-.2 0-.2-1.9-.2-5.3 0-5.5-1-12.5-2.6-20.4-1.4-7.9-2.4-12.5-2.4-13.7 0-4.1 1.2-7 3.4-8.9 1.2-.7 3.1-1.7 6.2-2.6-1.2-1.2-2.4-1.7-3.6-1.7-.5 0-1.2.7-2.2 1.9-1.2 1.2-1.7 1.9-1.9 1.9-.2 0-.2-.5 0-1.7.6-5.2 2.1-8.3 4.2-9.2zm35.6 22.5c0 2.6-1.2 5.5-3.1 8.6-2.2 3.1-4.8 6-8.2 8.4-1.4 1-2.2 1.4-2.4 1.4v-.1c0-.2.5-.7 1.4-1.9 5.5-6 8.4-9.8 8.4-12 0-1.7-1-2.6-2.6-2.6-1 0-1.9.2-2.6.7-.7.2-1 .5-1.2.5 0 0-.2 0-.2-.2 0 0 0-.5.2-1.4 1-4.1 2.9-6 6.2-6 2.6-.2 4.1 1.5 4.1 4.6zm-47.1 130.1c0 2.6-1.2 5.5-3.1 8.6-2.2 3.1-4.8 6-8.2 8.4-1.4 1-2.2 1.4-2.4 1.4v-.2c0-.2.5-.7 1.4-1.9 5.5-6 8.4-9.8 8.4-12 0-1.7-1-2.6-2.6-2.6-1 0-1.9.2-2.6.7-.7.2-1 .5-1.2.5 0 0-.2 0-.2-.2 0 0 0-.5.2-1.4 1-4.1 2.9-6 6.2-6 2.7-.1 4.1 1.6 4.1 4.7zM231.2 56.6c0-.2.2-.5.2-.5.2-.2.2-.2.2 0 .2.2.2.5 0 .7-1.2 7.2-3.4 10.8-6.5 10.8s-4.6-2.6-4.6-7.9c0-6.5 1.7-13.4 5.5-20.4 1-1.7 1.4-2.6 1.7-2.6 0 .2-.2 1.2-.7 2.9-2.4 7.4-3.6 12.5-3.6 15.6 0 3.8 1 6 3.1 6 1.6 0 3-1.7 4.7-4.6zM99.7 125.3c0 2.6-1.2 5.5-3.1 8.6-2.2 3.1-4.8 6-8.2 8.4-1.4 1-2.2 1.4-2.4 1.4v-.2c0-.2.5-.7 1.4-1.9 5.5-6 8.4-9.8 8.4-12 0-1.7-1-2.6-2.6-2.6-1 0-1.9.2-2.6.7-.7.2-1 .5-1.2.5 0 0-.2 0-.2-.2 0 0 0-.5.2-1.4 1-4.1 2.9-6 6.2-6 2.7-.1 4.1 1.5 4.1 4.7zm-89 10.5c0-.2.2-.5.2-.5.2-.2.2-.2.2 0 .2.2.2.5 0 .7-1.2 7.2-3.4 10.8-6.5 10.8S0 144.2 0 138.9c0-6.5 1.7-13.4 5.5-20.4 1-1.7 1.4-2.6 1.7-2.6 0 .2-.2 1.2-.7 2.9-2.4 7.4-3.6 12.5-3.6 15.6 0 3.8 1 6 3.1 6 1.5 0 3-1.7 4.7-4.6zm-3.4-53c2.9 0 5.3 1.4 7.4 4.8 2.2 3.1 3.8 7.4 4.6 12.7.2.5.2.7.2 1h.2c0-.2.2-.5.2-1 .5-3.1 1.7-7.9 3.4-14.2 1.9-4.3 3.8-6.5 6-6.5 1.2 0 2.4.7 3.4 2.2 1 1.4 1.4 2.4 1.4 3.4 0 .5 0 1.4-.5 2.4-.5 1.4-1 2.2-1.4 2.2-.2 0-.7-.7-1.7-1.7-.7-1-1.7-1.4-2.6-1.4-1.9 0-3.6 4.6-5.3 13.7-.7 4.1-1.7 7-2.4 8.6-.7 1-1.2 1.7-1.7 1.7s-.5-.7-.7-1.7c.2-1.7-.7-4.8-2.6-9.4-1.9-4.8-3.1-7-4.1-7-.5 0-.7 0-1 .5-.2.2-.5.5-1.2.5-1 0-1.9-.7-3.4-1.9-1.4-1.2-1.9-2.2-1.9-2.9 0-.2.5-1.4 1.7-3.4 1-1.9 1.8-2.6 2-2.6zm212.4 5.7c0 2.6-1.2 5.5-3.1 8.6-2.2 3.1-4.8 6-8.2 8.4-1.4 1-2.2 1.4-2.4 1.4v-.2c0-.2.5-.7 1.4-1.9 5.5-6 8.4-9.8 8.4-12 0-1.7-1-2.6-2.6-2.6-1 0-1.9.2-2.6.7-.7.2-1 .5-1.2.5 0 0-.2 0-.2-.2 0 0 0-.5.2-1.4 1-4.1 2.9-6 6.2-6 2.7-.1 4.1 1.6 4.1 4.7zm84.7-.7c.5-1.4.5-2.9.2-4.3-.2-1.4-1-2.2-2.2-2.2-.5 0-1.2.2-2.2.7-1 .5-1.4 1-1.4 1.4.1 1.3 2 2.7 5.6 4.4zm-2.9 6.3c-4.6-2.4-6.7-4.8-6.7-7.4 0-3.1 1.4-6 4.3-8.4 2.9-2.6 5.3-3.6 7.2-2.9 1.7.5 2.4 2.2 2.4 5 0 2.6-.5 5.5-1.7 8.9 2.4 1.2 3.8 2.4 4.3 3.4 0 1.2-1 3.4-3.1 6.2-.5-1-1.9-2.2-4.1-3.4-2.6 3.6-5.8 6.7-9.6 9.6-4.6 3.1-8.6 5.8-12.2 7.2-1 .5-5.3 2.2-13 5-1.2.5-2.2.7-2.4.7-.2 0-.2-.2-.2-.2 0-.2.5-1 1.9-1.7 5.8-3.6 11.5-7 17.5-10.3 7-4.3 12.1-8.1 15.4-11.7zm-177.8 94.5c0 2.6-1.2 5.5-3.1 8.6-2.2 3.1-4.8 6-8.2 8.4-1.4 1-2.2 1.4-2.4 1.4v-.1c0-.2.5-.7 1.4-1.9 5.5-6 8.4-9.8 8.4-12 0-1.7-1-2.6-2.6-2.6-1 0-1.9.2-2.6.7-.7.2-1 .5-1.2.5 0 0-.2 0-.2-.2 0 0 0-.5.2-1.4 1-4.1 2.9-6 6.2-6 2.7-.2 4.1 1.5 4.1 4.6zM530.3 120c1.2-1 2.2-1.4 2.9-1.4.5 0 .7.5.7 1.4 0 .7-.2 2.2-.7 4.1-.5 1.9-.7 3.4-.7 4.6 0 5.3 3.8 8.2 11.3 8.2 6 0 11-2.6 14.9-7.7 2.4-4.1 5-7.9 7.4-11.8 1-1 1.7-1.4 2.4-1.4 1 0 1.2 1 .7 3.1-1 4.1-1.7 6-1.7 5.5 0 1.7 1 3.4 2.9 4.8 1.7 1.4 4.1 2.4 6.7 2.4 3.4 0 5.5-1 6.5-2.6 0-.2-1-2.2-3.1-5.8.2-1.9 1.2-5.3 2.6-9.8.2-1.4.7-2.2 1.2-2.2s1 .2 1.7 1.2c1.9 2.9 3.1 6.2 3.1 10.1 0 6-1.4 11-4.1 15.4-2.9 5.3-7.2 7.9-13 7.9-3.8 0-7.4-3.1-10.6-8.9-5.3 9.6-12.2 14.4-20.6 14.4-10.1 0-14.9-5.8-14.9-16.8-3.8 4.6-10.3 8.6-18.7 12.5v-13.3c6.2-3.1 10.3-5 11.5-5.8 3.9-1.9 7.7-4.8 11.6-8.1zm-36.8 15.8c-3.6-4.6-6.7-6.7-9.6-6.7-4.3 0-6.2 1-6.2 3.4 0 2.9 2.9 4.3 8.6 4.3 2.2 0 4.6-.5 7.2-1zm7.5 17.5c0-1.4-.5-3.1-1-4.8-2.9 1-7.2 1.7-12.5 1.7-11.5 0-17.3-4.1-17.3-12 0-6 1.7-11.3 5.5-16.1 3.6-4.1 7.4-6.2 11.5-6.2 3.1 0 6.2 1.9 9.8 5.5 3.1 3.6 6 7.7 8.4 12.7.2 0 .7 0 1.7-.5v13.3l-.5.5c0 2.9-.7 6.2-2.2 10.6-1.7 5.5-4.3 10.1-7.4 13.7-7.2 8.6-15.1 16.1-23.8 22.6-13 9.6-24 14.6-33.6 14.6-8.2 0-14.4-3.1-18.7-9.1-3.8-5-5.8-11.8-5.8-19.7 0-10.1 2.2-20.4 6.2-31.2 1.2-2.4 1.7-3.4 2.2-3.4.2 0 .2.2.2.7 0 .7-.2 1.9-.5 3.4-3.1 10.6-4.6 18.5-4.6 24 0 5 1.2 9.4 3.6 13 3.8 5 9.8 7.7 18.2 7.7 7.2 0 15.8-3.1 26.2-9.4 8.2-5 16.1-11 23.8-18.2 7-6.9 10.6-11.2 10.6-13.4zM93.7 181.4c-5 0-8.6-.5-10.8-1-4.8-1.4-8.6-4.6-11.8-9.4-1.9-3.1-3.8-6.5-5.8-9.8-1.9-2.9-3.6-4.1-5.3-4.1-5.5 0-11.3 4.6-17.5 13.9-1 1.7-2.9 6-5.8 13-2.6 7-5 12-7.2 15.4-3.1 4.8-6.7 7.2-10.3 7.2-5.3 0-9.8-4.3-13.7-12.7-3.4-7.4-4.8-15.1-4.8-23 0-9.6 1-17.5 2.9-23.3.5-1.9 1-2.9 1.4-2.9.7 0 1 1.2.5 3.6-.7 6.2-1 11.5-1 15.8 0 20.4 4.6 30.7 14.2 30.7 3.8 0 7.2-3.1 10.6-9.1 3.1-7.2 6.5-14.4 9.8-21.6 2.9-5.8 6.5-10.8 10.8-15.1 4.1-4.3 8.2-6.2 11.5-6.2 2.6 0 5.3 1.7 7.4 4.8 1.9 3.1 3.6 6.2 5.5 9.4 2.6 3.6 5.3 6.2 8.2 7.7 2.9 1.2 6.5 1.9 11 1.9v14.8h.2zm88.1-123.1l3.8-7.9c.2-.5.5-.7 1-.7s2.4 1.2 6.2 3.8c3.6 2.4 5.5 3.8 5.5 4.3 0 1.7-1.7 5.3-4.8 10.6-.5.7-1 .7-1.4.5-3.1-2.4-6.7-4.8-10.8-7.4-1.4 2.9-2.6 5.5-4.1 7.7-.2.7-.7 1-1.2.7-3.6-2.9-7.4-5.5-11.3-7.9-.2-.2-.2-.5 0-1l4.6-9.6c.2-.5.7-1 1-1 .5 0 2.2 1.2 5.3 3.4 3.1 1.9 5.2 3.5 6.2 4.5zm-71.3 54c-.2-.2-.2-.5 0-1l4.6-9.6c.2-.5.7-.7 1-.7.5 0 2.6 1.2 6.2 3.6 3.8 2.6 5.8 4.1 5.8 4.6 0 1.7-1.7 5-5 10.3-.5.7-.7 1-1.2.7-3.7-2.9-7.6-5.5-11.4-7.9zm196.8-91.4c0-1.2-2.4-3.4-7.4-6.2-1.7 2.9-2.4 5.5-2.4 7.9 0 1.4.7 2.4 2.2 2.4 1.2 0 2.6-.5 4.3-1.4 1.6-.8 2.8-1.8 3.3-2.7zM302 1.7c.7-1.2 1.7-1.7 2.4-1.7.5 0 1 .2 1 .7 0 0-.2.2-.2.5-1 2.2-1.9 4.6-2.6 7 5 3.6 7.4 7.4 7.2 11-.5 4.1-1 6.7-1.7 7.7-2.4 2.9-5 4.6-8.4 4.6-3.4 0-4.8-2.2-4.8-6 0-.7 0-1.7.2-2.6 1.2-7.8 3.6-14.8 6.9-21.2zm-54.9 119.2c0-1.2-2.4-3.4-7.4-6.2-1.7 2.9-2.4 5.5-2.4 7.9 0 1.4.7 2.4 2.2 2.4 1.2 0 2.6-.5 4.3-1.4 1.6-.7 2.8-1.7 3.3-2.7zm-5.3-19.2c.7-1.2 1.7-1.7 2.4-1.7.5 0 1 .2 1 .7 0 0-.2.2-.2.5-1 2.2-1.9 4.6-2.6 7 5 3.6 7.4 7.4 7.2 11-.5 4.1-1 6.7-1.7 7.7-2.4 2.9-5 4.6-8.4 4.6-3.4 0-4.8-2.2-4.8-6 0-.7 0-1.7.2-2.6 1.1-7.7 3.5-14.7 6.9-21.2zM50 73.7c7.2-3.4 32.2-13.2 75.1-29.5 33.4-12.2 67-25 101.3-37.7 1-.2 1.2-.5 1.4-.2 0 0 0 .5-.2 1.2-1 1.9-1.7 3.1-2.4 3.8C207.9 18 175 30.5 126.3 49c-47 18-73.4 28.6-78.7 31.7.5-2.2 1.2-4.6 2.4-7zm27.4 15.8c24.2-9.1 49.4-18.2 75.4-27.8.7-.2 1.2-.5 1.2-.2.2 0 .2.5 0 1.2-1 2.2-1.7 3.4-2.2 3.8-.2.2-12.5 4.8-36.2 13.7C91.4 89.1 77.7 94.6 75 96.3c.5-2.2 1.2-4.4 2.4-6.8zm-43-33.8C75 40.3 116.2 25 158.5 9.1c.7-.2 1.2-.5 1.2-.2.2 0 .2.5 0 1.2-1 2.2-1.7 3.4-2.2 3.8C118.9 28.3 76.9 44.4 32 62.4c.5-2.2 1.2-4.3 2.4-6.7zm19 60.7l3.8-7.9c.2-.5.5-.7 1-.7s2.4 1.2 6.2 3.8c3.6 2.4 5.5 3.8 5.5 4.3 0 1.7-1.7 5.3-4.8 10.6-.5.7-1 .7-1.4.5-3.1-2.4-6.7-4.8-10.8-7.4-1.4 2.9-2.6 5.5-4.1 7.7-.2.7-.7 1-1.2.7-3.6-2.9-7.4-5.5-11.3-7.9-.2-.2-.2-.5 0-1l4.6-9.6c.2-.5.7-1 1-1 .5 0 2.2 1.2 5.3 3.4 3.1 1.8 5.2 3.5 6.2 4.5zm84.2 62.6c-3.8 0-7.4-1-10.3-2.9-3.8-2.6-6-7-6.7-12.5-1.7 3.1-4.3 6.5-8.4 10.1-6 5-12.2 7.7-18.7 7.7v-14.6c8.2 0 15.1-2.4 20.6-6.7.5-.5 2.6-2.6 6.5-7 3.6-4.1 5.5-6 6-6s1 .5 1 1.4c0 .5-.2 1.2-.5 1.7-.5 1.9-.7 3.6-.7 5.3 0 6 3.8 8.9 11.3 8.9V179h-.1zm90.3-36.7l-5 10.1c-.7 1.2-1.2 1.7-2.2 1.7-16.3 0-30.5 2.4-42.5 7.4-2.9 1.2-10.3 4.8-22.8 11.3-8.4 4.3-14.2 6.5-17.5 6.5v-14.6c7.2 0 19.4-4.8 36.5-14.4-15.4-2.4-30.5-4.1-45.4-5.3-2.9-.2-4.3-.7-4.3-1.2 0-.2 0-.5.2-.7 1.2-2.4 2.9-5.8 5-10.1h25.2c3.4.7 12 1.9 26.2 3.8 17.8 2.4 32.2 3.4 43 3.4 2.6 0 4.1.2 4.1 1-.1.1-.1.6-.5 1.1zm45.6 20.2c.7 2.2 1.2 5 1.2 8.2 0 3.8-.7 7.2-1.9 10.1-.7 1.4-1.2 2.4-1.9 2.4-1 0-2.2-.7-4.1-1.7-5.8-3.4-9.8-7.4-12-12.2-1.2-2.6-2.2-7.2-2.6-13-.2-1-.2-1.7-.5-1.7-.5 0-1 .7-1.4 1.7-2.4 2.6-4.8 5.5-7.2 8.6-4.3 3.8-9.1 6-14.6 6V156c7 0 12.5-1.7 17-5 1-.7 3.4-3.4 7-7.4 1.4-1.9 2.6-2.6 3.6-2.6.5 0 1.2.2 2.2 1 2.9 2.4 4.8 3.8 5.8 4.3 2.4 1.2 5.5 1.7 9.6 1.7v14.5h-.2zm-45.2 8.1c-9.8 0-17.5-1.4-23-4.6-7.7-4.3-12.5-11.8-14.6-22.8-.5-3.4-1.7-13.2-3.6-29.8-1.2-11.8-2.4-17.5-3.8-17.5s-2.9 1.9-4.8 6.2c-2.6 6.5-5 11.3-7.2 14.6-4.1 6.5-9.4 12-15.8 16.3h-25.4c.5-.7 5-3.6 13.9-8.6 9.6-5.5 16.8-10.8 21.8-16.3 3.8-4.3 7.9-10.6 12.5-18.5 3.1-5.8 5.8-8.4 7.7-8.6 2.2.2 3.8 3.6 5.3 10.8 1 4.6 1.9 12.2 3.1 23.3 1 11 1.9 18.2 2.6 22.1 1.2 6.5 5.3 11.5 12.2 14.9 5.5 2.6 11.8 3.8 19.2 3.8v14.7h-.1zm92.9-25.4c-2.6-4.1-7.4-6.5-14.2-7.7-1.7-.2-2.6 0-2.6.5 0 .2.2.7.7 1.4 5 6 9.8 9.1 14.9 9.1 1.4 0 2.2-.5 2.2-1 0-.4-.3-1.1-1-2.3zM297 127.9c1-1.7 1.9-2.4 2.6-2.4.5 0 1 .2 1.4.5.5-.7.7-1.4 1-2.4.7-1.2 1.7-1.9 2.9-2.4.7 0 3.4.7 8.2 2.2 4.6 1.4 7.7 2.9 9.4 3.8 6.7 4.6 10.1 11 10.1 19.4 0 3.6-1.4 7.2-4.1 10.8-2.9 4.1-6 6-9.6 6-3.8 0-8.2-1.9-13-6-5-4.6-8.4-9.8-10.1-15.8-4.3 13.9-11.8 21.1-22.6 21.1v-14.6c5 0 9.6-1.4 13.2-4.3 2.6-1.9 5-4.8 7.2-8.6 1.2-2.5 2.4-4.9 3.4-7.3zm50.6-97.4c0-4.8-.7-8.6-2.2-11.8 0-1.7 1.2-5.8 4.1-12 .2-.7.5-1.2.7-1.2.5 0 .7.5 1.2 1.2.7 1.7 2.4 6.2 5.3 13.7 3.1 7.9 4.8 12.7 5.3 14.6.5 1.2.5 2.4.5 2.9 0 2.2-1.9 1-6.2-3.8-.5-.7-.7-.2-.7 1 0 .5 1.2 15.4 3.4 45.1 2.2 29.5 3.1 46.1 3.1 49.9 0 11.3-1.7 21.4-5 30-1 1.7-1.4 2.9-1.9 3.8-.7 1.2-1 1.2-1.2.5-.2-1 0-2.9.2-5.5.5-4.1.7-8.6.7-13.7 0-4.8-1.2-24-3.6-57.8-2.5-33.9-3.7-52.9-3.7-56.9zm-30.7 104.4l-12-13.4c11.5-2.2 19-3.8 22.8-5.5 1.9-1 3.1-4.1 3.1-9.6 0-1.2-.2-3.8-.2-7.4-.2-3.8-.2-7-.2-9.4 0-5-.7-15.6-1.9-32.2-1.2-16.3-1.7-26.6-1.7-30.7 0-4.6-.7-8.4-2.2-11.5 0-1.7 1.4-5.8 4.1-12.2.2-.7.7-1 1-1 .2 0 .5.2 1 1.2.7 1.7 2.4 6.2 5.5 13.7 2.9 7.9 4.6 12.7 5 14.2.5 1.7.7 2.9.7 3.4 0 2.2-2.2 1-6.2-3.8-.5-.7-.7-.2-.7 1 0 .2.5 7 1.4 19.7 1 13 1.4 21.8 1.4 26.6 0 19.4-1.9 33.6-5.8 42-2.6 6-7.7 11-15.1 14.9z"/></svg>