<svg xmlns="http://www.w3.org/2000/svg" viewBox="0 0 639 207.5"><path d="M465.8 81c0 3.8-1.9 9.1-5.8 15.6-2.4 4.1-6 9.6-10.8 16.8 4.8 5.5 8.2 10.6 9.8 14.9 1 3.1 1.7 7.2 1.7 11.8 0 1.9-.5 4.3-1.4 7.4-.7 2.9-1.7 5-2.6 6.5-1.9 2.9-5 5.8-9.8 8.6-5 3.4-9.4 5-13 5-5.8 0-8.6-4.3-8.6-13 0-5.8 1-11.5 2.9-16.8 1.9-4.6 5-10.6 10.1-18.5-4.3-4.1-8.9-9.8-13.9-17-.5-.7-1.7-1.9-3.6-3.8-1-1-1.4-2.2-1.4-3.6 0-2.2.2-4.6.7-7.4.7-2.9 1.2-4.1 1.4-4.1.7 0 2.9 1.2 7 3.8 3.8 2.6 7 4.6 8.9 6.2 1.2.7 1.7 1.4 1.7 1.4v.2c0 .2-.7.5-2.4.5-3.1 0-4.8.2-4.8.5 0 .2.5.7 1.4 1.9 3.8 4.8 7.7 8.4 11.8 11.3 1-1.4 4.3-6.2 9.6-14.4 4.6-7 7.2-11.8 8.4-14.6 1.2-2.9 1.9-4.1 2.4-4.1 0 .1.3 1.5.3 4.9zm-9.4 59c-2.6-5.3-7.2-10.8-13.4-16.1-2.2 2.2-4.8 6.2-8.2 12-3.8 6.5-5.5 10.6-5.5 12.7 0 2.9 1.9 4.3 6.2 4.3 1.9 0 4.3-.7 7.4-1.9 4.3-1.9 8.4-4.6 11.8-7.9 1.5-1.4 1.9-2.4 1.7-3.1zM443 63l3.8-7.9c.2-.5.5-.7 1-.7s2.4 1.2 6.2 3.8c3.6 2.4 5.5 3.8 5.5 4.3 0 1.7-1.7 5.3-4.8 10.6-.5.7-1 .7-1.4.5-3.1-2.4-6.7-4.8-10.8-7.4-1.4 2.9-2.6 5.5-4.1 7.7-.2.7-.7 1-1.2.7-3.6-2.9-7.4-5.5-11.3-7.9-.2-.2-.2-.5 0-1l4.6-9.6c.2-.5.7-1 1-1 .5 0 2.2 1.2 5.3 3.4 3 1.8 5.2 3.5 6.2 4.5zm126.4 133.6c-2.6.7-4.1 1.2-4.6 1.2v-.2s1-.7 2.9-1.9 4.8-3.1 8.9-6.2c1.9-1.9 4.8-5 8.4-9.4 2.4-2.9 5-5.5 7.9-7.4 3.6-2.6 7-3.8 10.6-3.8.7 0 1.9.2 3.4.7 1.2.5 2.4.7 3.4.7 1.9 0 3.4-.7 4.6-2.2.7-1.4 1.7-2.6 2.6-4.1.5-1 1.2-1.4 1.7-1.4.2 0 .2.2.2.7 0 .5-.2 1.7-.7 3.1-.5.7 1.4 1 5 1 .5 0 .7 0 .7-.2 0 0-.2-1-.7-2.6-.2-.5 0-1.2.7-2.2 1-1.7 1.4-2.4 1.7-2.2 1 .7 1.4 2.2 1.4 3.8 0 1.7-.5 3.4-1.2 5.3-.7 2.2-1.4 3.4-1.9 3.8-1.7 1-4.3.7-7.9-1-2.9 2.9-5.8 4.6-8.6 4.6-.7 0-1.9-.2-3.1-.7-1.2-.5-2.2-.7-2.9-.7-4.8 0-9.8 2.2-14.9 7l-10.8 10.8c-2.2 1.6-4.4 2.8-6.8 3.5zM518.1 67c2.9 0 5.3 1.4 7.4 4.8 2.2 3.1 3.8 7.4 4.6 12.7.2.5.2.7.2 1h.2c0-.2.2-.5.2-1 .5-3.1 1.7-7.9 3.4-14.2 1.9-4.3 3.8-6.5 6-6.5 1.2 0 2.4.7 3.4 2.2 1 1.4 1.4 2.4 1.4 3.4 0 .5 0 1.4-.5 2.4-.5 1.4-1 2.2-1.4 2.2-.2 0-.7-.7-1.7-1.7-.7-1-1.7-1.4-2.6-1.4-1.9 0-3.6 4.6-5.3 13.7-.7 4.1-1.7 7-2.4 8.6-.7 1-1.2 1.7-1.7 1.7s-.5-.7-.7-1.7c.2-1.7-.7-4.8-2.6-9.4-1.9-4.8-3.1-7-4.1-7-.5 0-.7 0-1 .5-.2.2-.5.5-1.2.5-1 0-1.9-.7-3.4-1.9-1.4-1.2-1.9-2.2-1.9-2.9 0-.2.5-1.4 1.7-3.4 1-1.8 1.7-2.6 2-2.6zm-40.8-2.8c24.2-9.1 49.4-18.2 75.4-27.8.7-.2 1.2-.5 1.2-.2.2 0 .2.5 0 1.2-1 2.2-1.7 3.4-2.2 3.8-.2.2-12.5 4.8-36.2 13.7-24.2 8.9-37.9 14.4-40.6 16.1.5-2.3 1.2-4.4 2.4-6.8zm-23.5-44c.5-1.4.5-2.9.2-4.3-.2-1.4-1-2.2-2.2-2.2-.5 0-1.2.2-2.2.7-1 .5-1.4 1-1.4 1.4 0 1.3 2 2.8 5.6 4.4zm-2.9 6.3c-4.6-2.4-6.7-4.8-6.7-7.4 0-3.1 1.4-6 4.3-8.4 2.9-2.6 5.3-3.6 7.2-2.9 1.7.5 2.4 2.2 2.4 5 0 2.6-.5 5.5-1.7 8.9 2.4 1.2 3.8 2.4 4.3 3.4 0 1.2-1 3.4-3.1 6.2-.5-1-1.9-2.2-4.1-3.4-2.6 3.6-5.8 6.7-9.6 9.6-4.6 3.1-8.6 5.8-12.2 7.2-1 .5-5.3 2.2-13 5-1.2.5-2.2.7-2.4.7-.2 0-.2-.2-.2-.2 0-.2.5-1 1.9-1.7 5.8-3.6 11.5-7 17.5-10.3 7-4.3 12-8.1 15.4-11.7zm151.7 29.7c.5-1.4.5-2.9.2-4.3-.2-1.4-1-2.2-2.2-2.2-.5 0-1.2.2-2.2.7-1 .5-1.4 1-1.4 1.4 0 1.3 2 2.8 5.6 4.4zm5.2 8.9c-2.4 5.8-3.6 10.3-3.6 13.7 0 4.1 1 6.2 3.1 6.2 1.2 0 2.6-1.7 4.3-4.6.2-.2.2-.5.5-.7 0 0 .2 0 .2.2v.7c-1.4 7.2-3.6 10.8-6.5 10.8-3.1 0-4.6-2.6-4.6-7.9 0-2.6.5-6 1.9-10.3 1.4-4.3 2.2-6.5 2.2-6.7 0-.5-1-1.4-3.1-2.6-3.8 5-9.1 9.8-15.8 13.9-4.6 2.6-9.1 5-13.9 7-8.9 3.6-14.2 5.5-15.4 6.2-1.2.5-1.9.7-2.4.7-.2 0-.2-.2-.2-.2 0-.5.5-1 1.9-1.9 7.7-4.3 15.1-8.6 22.8-13 10.1-5.8 17-10.6 20.4-14.2-4.6-2.4-6.7-4.8-6.7-7.4 0-3.1 1.4-6 4.3-8.6 2.9-2.4 5.3-3.4 7.2-2.6 1.4.5 2.4 2.2 2.4 5 0 2.6-.5 5.5-1.7 8.6 2.4 1.4 3.4 2.9 3.4 4.3.1.8-.2 2-.7 3.4zM498.6 30.3c0-.2.2-.5.2-.5.2-.2.2-.2.2 0 .2.2.2.5 0 .7-1.2 7.2-3.4 10.8-6.5 10.8s-4.6-2.6-4.6-7.9c0-6.5 1.7-13.4 5.5-20.4 1-1.7 1.4-2.6 1.7-2.6 0 .2-.2 1.2-.7 2.9-2.4 7.4-3.6 12.5-3.6 15.6 0 3.8 1 6 3.1 6 1.6 0 3.1-1.7 4.7-4.6zm-13.2 84c-.5-2.2-1.2-3.8-2.2-5-.7-1.4-1.2-2.2-1.4-2.6 0-.5 0-2.2.5-5.5.5-3.1.7-5.3 1.2-6.5.2-1.2.5-1.7 1-1.7.2 0 .5.2 1 .7 3.4 3.8 7 7.7 11 11.8 1.7 1.7 2.4 2.6 2.4 3.1 0 .2-.2.5-.7.5-.7 0-2.6-.5-5.5-1.2 1.7 4.1 3.6 8.2 5.3 12 2.6 6.7 4.1 12.2 4.1 17.3 0 2.4-.5 5.3-1.4 8.9-1.2 4.1-2.6 7.2-4.6 9.4-7 7.9-18.7 16.6-35.3 25.9-14.4 8.4-22.8 12.5-25.4 12.5-.5 0-7.7 1.7-21.4 5-14.4 3.4-23.5 5.5-27.1 6-3.8.7-6.2 1-7.2 1-.5 0-.5 0-.5-.2s2.6-1.7 7.9-4.1c1.9-1 13-5.8 33.4-14.4 14.2-6 25.9-11.5 35.3-16.6 14.2-7.7 25-14.4 32.4-19.9 5.5-4.3 8.4-7.4 8.4-9.4 0-.5-1.4-3.8-4.3-10.1-3.3-7-5.7-12.8-6.9-16.9zm58.1 18.7c-3.6-4.6-6.7-6.7-9.6-6.7-4.3 0-6.2 1-6.2 3.4 0 2.9 2.9 4.3 8.6 4.3 2.2 0 4.6-.5 7.2-1zm7.5 17.6c0-1.4-.5-3.1-1-4.8-2.9 1-7.2 1.7-12.5 1.7-11.5 0-17.3-4.1-17.3-12 0-6 1.7-11.3 5.5-16.1 3.6-4.1 7.4-6.2 11.5-6.2 3.1 0 6.2 1.9 9.8 5.5 3.1 3.6 6 7.7 8.4 12.7.2 0 .7 0 1.7-.5v13.2l-.5.5c0 2.9-.7 6.2-2.2 10.6-1.7 5.5-4.3 10.1-7.4 13.7-7.2 8.6-15.1 16.1-23.8 22.6-13 9.6-24 14.6-33.6 14.6-8.2 0-14.4-3.1-18.7-9.1-3.8-5-5.8-11.8-5.8-19.7 0-10.1 2.2-20.4 6.2-31.2 1.2-2.4 1.7-3.4 2.2-3.4.2 0 .2.2.2.7 0 .7-.2 1.9-.5 3.4-3.1 10.6-4.6 18.5-4.6 24 0 5 1.2 9.4 3.6 13 3.8 5 9.8 7.7 18.2 7.7 7.2 0 15.8-3.1 26.2-9.4 8.2-5 16.1-11 23.8-18.2 7-6.9 10.6-11.2 10.6-13.3zM12.9 79c0-.2.2-.5.2-.5.2-.2.2-.2.2 0 .2.2.2.5 0 .7C12.1 86.4 9.9 90 6.8 90s-4.6-2.6-4.6-7.9c0-6.5 1.7-13.4 5.5-20.4 1-1.7 1.4-2.6 1.7-2.6 0 .2-.2 1.2-.7 2.9-2.4 7.4-3.6 12.5-3.6 15.6 0 3.8 1 6 3.1 6 1.6 0 3-1.7 4.7-4.6zM346 26.7c0-1.2-2.4-3.4-7.4-6.2-1.7 2.9-2.4 5.5-2.4 7.9 0 1.4.7 2.4 2.2 2.4 1.2 0 2.6-.5 4.3-1.4 1.6-.8 2.8-1.7 3.3-2.7zm-5.3-19.2c.7-1.2 1.7-1.7 2.4-1.7.5 0 1 .2 1 .7 0 0-.2.2-.2.5-1 2.2-1.9 4.6-2.6 7 5 3.6 7.4 7.4 7.2 11-.5 4.1-1 6.7-1.7 7.7-2.4 2.9-5 4.6-8.4 4.6-3.4 0-4.8-2.2-4.8-6 0-.7 0-1.7.2-2.6 1.2-7.7 3.6-14.7 6.9-21.2zm14.2 89.3c.5-1.4.5-2.9.2-4.3-.2-1.4-1-2.2-2.2-2.2-.5 0-1.2.2-2.2.7-1 .5-1.4 1-1.4 1.4.1 1.3 2 2.7 5.6 4.4zM352 103c-4.6-2.4-6.7-4.8-6.7-7.4 0-3.1 1.4-6 4.3-8.4 2.9-2.6 5.3-3.6 7.2-2.9 1.7.5 2.4 2.2 2.4 5 0 2.6-.5 5.5-1.7 8.9 2.4 1.2 3.8 2.4 4.3 3.4 0 1.2-1 3.4-3.1 6.2-.5-1-1.9-2.2-4.1-3.4-2.6 3.6-5.8 6.7-9.6 9.6-4.6 3.1-8.6 5.8-12.2 7.2-1 .5-5.3 2.2-13 5-1.2.5-2.2.7-2.4.7-.2 0-.2-.2-.2-.2 0-.2.5-1 1.9-1.7 5.8-3.6 11.5-7 17.5-10.3 7-4.2 12-8.1 15.4-11.7zm-47 91c0-.2.2-.5.2-.5.2-.2.2-.2.2 0 .2.2.2.5 0 .7-1.2 7.2-3.4 10.8-6.5 10.8s-4.6-2.6-4.6-7.9c0-6.5 1.7-13.4 5.5-20.4 1-1.7 1.4-2.6 1.7-2.6 0 .2-.2 1.2-.7 2.9-2.4 7.4-3.6 12.5-3.6 15.6 0 3.8 1 6 3.1 6 1.5 0 3-1.7 4.7-4.6zM277.4 8.2c2.9 0 5.3 1.4 7.4 4.8 2.2 3.1 3.8 7.4 4.6 12.7.2.5.2.7.2 1h.2c0-.2.2-.5.2-1 .5-3.1 1.7-7.9 3.4-14.2 1.9-4.3 3.8-6.5 6-6.5 1.2 0 2.4.7 3.4 2.2 1 1.4 1.4 2.4 1.4 3.4 0 .5 0 1.4-.5 2.4-.5 1.4-1 2.2-1.4 2.2-.2 0-.7-.7-1.7-1.7-.7-1-1.7-1.4-2.6-1.4-1.9 0-3.6 4.6-5.3 13.7-.7 4.1-1.7 7-2.4 8.6-.7 1-1.2 1.7-1.7 1.7s-.5-.7-.7-1.7c.2-1.7-.7-4.8-2.6-9.4-1.9-4.8-3.1-7-4.1-7-.5 0-.7 0-1 .5-.2.2-.5.5-1.2.5-1 0-1.9-.7-3.4-1.9-1.4-1.2-1.9-2.2-1.9-2.9 0-.2.5-1.4 1.7-3.4 1-1.8 1.7-2.6 2-2.6zm-1.5 79c24.2-9.1 49.4-18.2 75.4-27.8.7-.2 1.2-.5 1.2-.2.2 0 .2.5 0 1.2-1 2.2-1.7 3.4-2.2 3.8-.2.2-12.5 4.8-36.2 13.7-24.2 8.9-37.9 14.4-40.6 16.1.5-2.2 1.2-4.4 2.4-6.8zm43.5-38.9c0-.2.2-.5.2-.5.2-.2.2-.2.2 0 .2.2.2.5 0 .7-1.2 7.2-3.4 10.8-6.5 10.8s-4.6-2.6-4.6-7.9c0-6.5 1.7-13.4 5.5-20.4 1-1.7 1.4-2.6 1.7-2.6 0 .2-.2 1.2-.7 2.9-2.4 7.4-3.6 12.5-3.6 15.6 0 3.8 1 6 3.1 6 1.5 0 3-1.7 4.7-4.6zM285 57.4c0 2.6-1.2 5.5-3.1 8.6-2.2 3.1-4.8 6-8.2 8.4-1.4 1-2.2 1.4-2.4 1.4v-.2c0-.2.5-.7 1.4-1.9 5.5-6 8.4-9.8 8.4-12 0-1.7-1-2.6-2.6-2.6-1 0-1.9.2-2.6.7-.7.2-1 .5-1.2.5 0 0-.2 0-.2-.2 0 0 0-.5.2-1.4 1-4.1 2.9-6 6.2-6 2.7-.1 4.1 1.6 4.1 4.7zm54.3 129.4c0 2.6-1.2 5.5-3.1 8.6-2.2 3.1-4.8 6-8.2 8.4-1.4 1-2.2 1.4-2.4 1.4v-.2c0-.2.5-.7 1.4-1.9 5.5-6 8.4-9.8 8.4-12 0-1.7-1-2.6-2.6-2.6-1 0-1.9.2-2.6.7-.7.2-1 .5-1.2.5 0 0-.2 0-.2-.2 0 0 0-.5.2-1.4 1-4.1 2.9-6 6.2-6 2.6-.1 4.1 1.6 4.1 4.7zM209 200c13.7-4.8 28.1-10.1 43.2-15.6 1-.2 1.2-.5 1.4-.2.2 0 .2.5-.2 1.2-.7 2.2-1.4 3.4-1.9 3.8-13 4.6-27.8 10.3-44.9 17.5.4-2.1 1.2-4.3 2.4-6.7zM180.6 18.6c.5-1.4.5-2.9.2-4.3-.2-1.4-1-2.2-2.2-2.2-.5 0-1.2.2-2.2.7-1 .5-1.4 1-1.4 1.4.1 1.2 2 2.7 5.6 4.4zm-2.8 6.2c-4.6-2.4-6.7-4.8-6.7-7.4 0-3.1 1.4-6 4.3-8.4 2.9-2.6 5.3-3.6 7.2-2.9 1.7.5 2.4 2.2 2.4 5 0 2.6-.5 5.5-1.7 8.9 2.4 1.2 3.8 2.4 4.3 3.4 0 1.2-1 3.4-3.1 6.2-.5-1-1.9-2.2-4.1-3.4-2.6 3.6-5.8 6.7-9.6 9.6-4.6 3.1-8.6 5.8-12.2 7.2-1 .5-5.3 2.2-13 5-1.2.5-2.2.7-2.4.7-.2 0-.2-.2-.2-.2 0-.2.5-1 1.9-1.7 5.8-3.6 11.5-7 17.5-10.3 7-4.3 12-8.1 15.4-11.7zm-31 59c0-.2.2-.5.2-.5.2-.2.2-.2.2 0 .2.2.2.5 0 .7-1.2 7.2-3.4 10.8-6.5 10.8s-4.6-2.6-4.6-7.9c0-6.5 1.7-13.4 5.5-20.4 1-1.7 1.4-2.6 1.7-2.6 0 .2-.2 1.2-.7 2.9-2.4 7.4-3.6 12.5-3.6 15.6 0 3.8 1 6 3.1 6 1.6 0 3-1.7 4.7-4.6zm-61.2 83.8c9.6-3.4 19.9-7.2 31-11 1-.2 1.2-.5 1.4-.2.2 0 .2.5-.2 1.2-.7 2.2-1.4 3.4-1.9 3.8-9.6 3.4-20.4 7.4-32.6 13 .4-2.2 1.1-4.4 2.3-6.8zM47.9 89.8c2.9 0 5.3 1.4 7.4 4.8 2.2 3.1 3.8 7.4 4.6 12.7.2.5.2.7.2 1h.2c0-.2.2-.5.2-1 .5-3.1 1.7-7.9 3.4-14.2 1.9-4.3 3.8-6.5 6-6.5 1.2 0 2.4.7 3.4 2.2 1 1.4 1.4 2.4 1.4 3.4 0 .5 0 1.4-.5 2.4-.5 1.4-1 2.2-1.4 2.2-.2 0-.7-.7-1.7-1.7-.7-1-1.7-1.4-2.6-1.4-1.9 0-3.6 4.6-5.3 13.7-.7 4.1-1.7 7-2.4 8.6-.7 1-1.2 1.7-1.7 1.7s-.5-.7-.7-1.7c.2-1.7-.7-4.8-2.6-9.4-1.9-4.8-3.1-7-4.1-7-.5 0-.7 0-1 .5-.2.2-.5.5-1.2.5-1 0-1.9-.7-3.4-1.9-1.4-1.2-1.9-2.2-1.9-2.9 0-.2.5-1.4 1.7-3.4 1.1-1.8 1.8-2.6 2-2.6zM143.7 14c0 .5-.2 1.4-.5 2.4-.5 1.4-1 2.2-1.7 2.2-.2 0-.7-.7-1.7-1.7-.7-1-1.7-1.4-2.4-1.4-1.9 0-3.8 4.6-5.5 13.7-.7 4.1-1.4 6.7-2.4 8.4-.7 1.2-1.2 1.7-1.7 1.7-.2 0-.5-.5-.5-1.4 0-1.7-1-4.8-2.9-9.4-1.7-4.8-3.1-7-3.8-7-.5 0-1 0-1 .5-.2.2-.7.5-1.4.5-1 0-2.2-.7-3.6-1.9-1.4-1.4-1.9-2.4-1.7-2.9 2.2-4.1 3.4-6 3.8-6 2.6 0 5.3 1.4 7.4 4.8 2.2 3.1 3.6 7.4 4.6 12.5v1c.2.2.2.2.2 0 0 0 .2-.2.5-1 .5-2.9 1.4-7.7 3.1-13.9 1.9-4.3 3.8-6.5 6.2-6.5 1 0 2.2.7 3.4 2.2 1.1 1.3 1.6 2.2 1.6 3.2zM113 17.6c.5-1 1-1.4 1.2-1.4 0 0 .2.2 0 .2.2.7-.5 2.4-1.9 5-2.4 4.6-5.8 8.2-10.1 11.3-4.6 3.4-8.6 5.8-12.2 7.4-.7.5-5 2.2-13 5-1.2.5-1.9.7-2.4.7-.2 0-.2-.2-.2-.2 0-.2.7-1 1.9-1.7 6.7-3.6 15.8-9.4 27.6-17.3 4.7-3.5 7.6-6.6 9.1-9zm111.3 6.7c0-.2.2-.5.2-.5.2-.2.2-.2.2 0 .2.2.2.5 0 .7-1.2 7.2-3.4 10.8-6.5 10.8s-4.6-2.6-4.6-7.9c0-6.5 1.7-13.4 5.5-20.4 1-1.7 1.4-2.6 1.7-2.6 0 .2-.2 1.2-.7 2.9-2.4 7.4-3.6 12.5-3.6 15.6 0 3.8 1 6 3.1 6 1.6 0 3-1.7 4.7-4.6zm67 99.4c0 2.6-1.2 5.5-3.1 8.6-2.2 3.1-4.8 6-8.2 8.4-1.4 1-2.2 1.4-2.4 1.4v-.2c0-.2.5-.7 1.4-1.9 5.5-6 8.4-9.8 8.4-12 0-1.7-1-2.6-2.6-2.6-1 0-1.9.2-2.6.7-.7.2-1 .5-1.2.5 0 0-.2 0-.2-.2 0 0 0-.5.2-1.4 1-4.1 2.9-6 6.2-6 2.6-.1 4.1 1.6 4.1 4.7zM166.5 175c2.9 0 5.3 1.4 7.4 4.8 2.2 3.1 3.8 7.4 4.6 12.7.2.5.2.7.2 1h.2c0-.2.2-.5.2-1 .5-3.1 1.7-7.9 3.4-14.2 1.9-4.3 3.8-6.5 6-6.5 1.2 0 2.4.7 3.4 2.2 1 1.4 1.4 2.4 1.4 3.4 0 .5 0 1.4-.5 2.4-.5 1.4-1 2.2-1.4 2.2-.2 0-.7-.7-1.7-1.7-.7-1-1.7-1.4-2.6-1.4-1.9 0-3.6 4.6-5.3 13.7-.7 4.1-1.7 7-2.4 8.6-.7 1-1.2 1.7-1.7 1.7s-.5-.7-.7-1.7c.2-1.7-.7-4.8-2.6-9.4-1.9-4.8-3.1-7-4.1-7-.5 0-.7 0-1 .5-.2.2-.5.5-1.2.5-1 0-1.9-.7-3.4-1.9-1.4-1.2-1.9-2.2-1.9-2.9 0-.2.5-1.4 1.7-3.4 1-1.8 1.7-2.6 2-2.6zm64.8-8.6c0 2.6-1.2 5.5-3.1 8.6-2.2 3.1-4.8 6-8.2 8.4-1.4 1-2.2 1.4-2.4 1.4v-.2c0-.2.5-.7 1.4-1.9 5.5-6 8.4-9.8 8.4-12 0-1.7-1-2.6-2.6-2.6-1 0-1.9.2-2.6.7-.7.2-1 .5-1.2.5 0 0-.2 0-.2-.2 0 0 0-.5.2-1.4 1-4.1 2.9-6 6.2-6 2.6-.1 4.1 1.6 4.1 4.7zm348.9-49.2c1.2-1 2.2-1.4 2.9-1.4.5 0 .7.5.7 1.4 0 .7-.2 2.2-.7 4.1-.5 1.9-.7 3.4-.7 4.6 0 5.3 3.8 8.2 11.3 8.2 6 0 11-2.6 14.9-7.7 2.4-4.1 5-7.9 7.4-11.8 1-1 1.7-1.4 2.4-1.4 1 0 1.2 1 .7 3.1-1 4.1-1.7 6-1.7 5.5 0 1.7 1 3.4 2.9 4.8 1.7 1.4 4.1 2.4 6.7 2.4 3.4 0 5.5-1 6.5-2.6 0-.2-1-2.2-3.1-5.8.2-1.9 1.2-5.3 2.6-9.8.2-1.4.7-2.2 1.2-2.2s1 .2 1.7 1.2c1.9 2.9 3.1 6.2 3.1 10.1 0 6-1.4 11-4.1 15.4-2.9 5.3-7.2 7.9-13 7.9-3.8 0-7.4-3.1-10.6-8.9-5.3 9.6-12.2 14.4-20.6 14.4-10.1 0-14.9-5.8-14.9-16.8-3.8 4.6-10.3 8.6-18.7 12.5v-13.2c6.2-3.1 10.3-5 11.5-5.8 4-2 7.8-4.8 11.6-8.2zM119 100.4c0 9.1-2.2 16.1-6.2 20.9-6.5 7.4-16.1 14.6-28.6 21.8-15.8 8.6-30.5 13.2-44.4 13.2-18.2 0-31-9.1-37.9-27.1-1.4-3.6-1.9-7.9-1.9-13.4 0-3.6.2-7.2.7-11 1-5.5 2.2-10.3 3.6-14.4.7-1.2 1.2-1.9 1.7-1.9s.5 1 .2 2.6c-.7 2.4-1.2 5-1.7 7.4-1 4.6-1.4 7.9-1.4 10.1 0 7.4 2.4 14.2 7.4 20.6 6.7 8.2 16.6 12.5 29.3 12.5 11.3 0 23.3-2.6 35.8-7.9 10.3-4.3 19.4-9.6 27.6-15.8 7.2-5.8 11-9.8 11-12.2 0-.5-1.7-3.6-4.8-9.6-3.6-7-6.2-13.9-7.9-20.6-.7-2.2-1.7-3.6-2.4-4.3-1-1-1.4-1.7-1.4-2.6 0-.7.7-4.3 1.9-10.8.2-1.2.5-1.7 1-1.7s1 .2 1.4.7c1.9 2.2 6 6.2 12 12.2 1 1 1.4 1.7 1.4 2.4s-.5 1-1.7 1-3.1-.5-5.8-1.2c.2.7 2.4 5 6.2 13 3.2 6 4.9 11.5 4.9 16.1zm90.2-41.5c-.2-.2-.2-.5 0-1l4.6-9.6c.2-.5.7-.7 1-.7.5 0 2.6 1.2 6.2 3.6 3.8 2.6 5.8 4.1 5.8 4.6 0 1.7-1.7 5-5 10.3-.5.7-.7 1-1.2.7-3.7-2.9-7.6-5.5-11.4-7.9zM178 63l3.8-7.9c.2-.5.5-.7 1-.7s2.4 1.2 6.2 3.8c3.6 2.4 5.5 3.8 5.5 4.3 0 1.7-1.7 5.3-4.8 10.6-.5.7-1 .7-1.4.5-3.1-2.4-6.7-4.8-10.8-7.4-1.4 2.9-2.6 5.5-4.1 7.7-.2.7-.7 1-1.2.7-3.6-2.9-7.4-5.5-11.3-7.9-.2-.2-.2-.5 0-1l4.6-9.6c.2-.5.7-1 1-1 .5 0 2.2 1.2 5.3 3.4 3.1 1.8 5.2 3.5 6.2 4.5zM41.4 57c-.2-.2-.2-.5 0-1l4.6-9.6c.2-.5.7-.7 1-.7.5 0 2.6 1.2 6.2 3.6 3.8 2.6 5.8 4.1 5.8 4.6 0 1.7-1.7 5-5 10.3-.5.7-.7 1-1.2.7-3.7-2.9-7.5-5.5-11.4-7.9zm254.4 54c-.2-.2-.2-.5 0-1l4.6-9.6c.2-.5.7-.7 1-.7.5 0 2.6 1.2 6.2 3.6 3.8 2.6 5.8 4.1 5.8 4.6 0 1.7-1.7 5-5 10.3-.5.7-.7 1-1.2.7-3.7-2.9-7.5-5.5-11.4-7.9zm68.2 53.2c.7 2.2 1.2 5 1.2 8.2 0 3.8-.7 7.2-1.9 10.1-.7 1.4-1.2 2.4-1.9 2.4-1 0-2.2-.7-4.1-1.7-5.8-3.4-9.8-7.4-12-12.2-1.2-2.6-2.2-7.2-2.6-13-.2-1-.2-1.7-.5-1.7-.5 0-1 .7-1.4 1.7-2.4 2.6-4.8 5.5-7.2 8.6-4.3 3.8-9.1 6-14.6 6v-14.9c7 0 12.5-1.7 17-5 1-.7 3.4-3.4 7-7.4 1.4-1.9 2.6-2.6 3.6-2.6.5 0 1.2.2 2.2 1 2.9 2.4 4.8 3.8 5.8 4.3 2.4 1.2 5.5 1.7 9.6 1.7v14.5h-.2zm-3.8 7.5c0-2.2-1-4.3-3.1-6.7-2.2-2.4-4.6-3.8-6.7-4.6 0 2.4 1.2 4.8 3.6 7.2 2.1 2.6 4.2 4.1 6.2 4.1zm-41.3.9c-8.6 0-13.2-5-13.7-15.1 0-.5-.2-.7-.7-1-.7.2-1.4.5-2.2 1.4-5 5.8-8.2 9.1-9.6 10.3-6.2 5.5-12.7 8.2-19.4 8.2v-14.6c7 0 13.2-1.9 18.7-5.8 2.2-1.4 7-6 14.6-13.7.7-.7 1.7-1.2 2.6-1.2.9 0 1.2.5 1.2 1.4 0 .5 0 1.2-.2 2.2-.2 1-.2 1.7-.2 2.2 0 2.9.5 5.3 1.9 7.2 1.4 2.4 3.8 3.8 7 3.8v14.7zm-60.5-25.9c1.2 6.7 3.6 11.3 6.7 13.4 1.9 1 4.6 1.7 8.2 1.7v14.6c-5.3 0-9.4-1.2-12.2-3.4-4.3-3.1-7-8.6-8.4-17-1-5.3-1.9-23.5-3.1-55.2-1-33.8-1.9-53.8-2.4-60-1.2-9.8-3.1-19.4-5.8-28.3 0-2.4 1-6 2.9-10.8.5-1.2.7-1.7 1.2-1.7.2 0 .7.5 1.2 1.4 3.1 6 5.3 16.3 7 31 1 9.1 1.9 30 2.9 63.4.8 31.5 1.6 48.5 1.8 50.9zM244 117.4c0 9.1-2.9 16.6-8.4 22.3-9.6 9.6-21.1 14.4-34.6 14.4v-14.6c5.8 0 12.5-1.4 20.2-4.3 8.2-2.9 14.2-6.2 18.5-10.3 0-2.4-1.7-4.6-5.3-6.2-3.4-1.7-6.7-2.4-10.3-2.4h-9.6c-3.6 0-6.5-1.2-8.6-3.6-2.2-2.4-3.1-5.3-3.1-8.9 0-5 1.7-10.1 5.3-15.4 3.4-5 7-7.4 10.6-7.4 6 0 11.8 3.4 17 10.1 5.4 7.4 8.3 16 8.3 26.3zm-15.6-14.6c-3.4-5.3-7.4-7.9-11.8-7.9-3.1 0-4.8 1-4.8 3.1 0 2.2 1.9 3.6 6 4.1 2.2 0 5.8.2 10.6.7zM201 154.2c-5.5 0-11-2.4-16.8-7.2-2.9-2.4-5.3-5.3-7-8.2l-16.1 7v-13.2l11.8-5c-1.7-4.8-2.4-9.6-2.4-14.4 0-7.2 1-13.2 3.1-17.5 2.2-4.6 5-6.7 8.6-6.7 3.1 0 6.2 2.6 8.9 7.9 2.6 4.6 3.8 8.9 3.8 12.7 0 9.6-2.9 17.5-8.4 23.8 3.8 4.1 8.6 6.2 14.4 6.2v14.6h.1zm-9.8-38.4c0-1.7-1.2-4.1-3.6-7.4-2.6-3.6-5-5.5-7.2-5.5-1.4 0-2.9 1-4.3 2.9-1.7 1.9-2.4 3.6-2.4 5.3 0 1.4 1 3.8 2.4 7.4 1.4 3.1 2.6 5 3.4 6.2 2.2-1 4.3-2.4 7-4.3 3.3-2.2 4.7-3.7 4.7-4.6zm-43.7 18.7c-3.6-4.6-6.7-6.7-9.6-6.7-4.3 0-6.2 1-6.2 3.4 0 2.9 2.9 4.3 8.6 4.3 2.2-.1 4.6-.5 7.2-1zM155 152c0-1.4-.5-3.1-1-4.8-2.9 1-7.2 1.7-12.5 1.7-11.5 0-17.3-4.1-17.3-12 0-6 1.7-11.3 5.5-16.1 3.6-4.1 7.4-6.2 11.5-6.2 3.1 0 6.2 1.9 9.8 5.5 3.1 3.6 6 7.7 8.4 12.7.2 0 .7 0 1.7-.5v13.2l-.5.5c0 2.9-.7 6.2-2.2 10.6-1.7 5.5-4.3 10.1-7.4 13.7-7.2 8.6-15.1 16.1-23.8 22.6-13 9.6-24 14.6-33.6 14.6-8.2 0-14.4-3.1-18.7-9.1-3.8-5-5.8-11.8-5.8-19.7 0-10.1 2.2-20.4 6.2-31.2 1.2-2.4 1.7-3.4 2.2-3.4.2 0 .2.2.2.7 0 .7-.2 1.9-.5 3.4-3.1 10.6-4.6 18.5-4.6 24 0 5 1.2 9.4 3.6 13 3.8 5 9.8 7.7 18.2 7.7 7.2 0 15.8-3.1 26.2-9.4 8.2-5 16.1-11 23.8-18.2 7-6.8 10.6-11.1 10.6-13.3zM396.4 30.1c0-4.8-.7-8.6-2.2-11.8 0-1.7 1.2-5.8 4.1-12 .2-.7.5-1.2.7-1.2.5 0 .7.5 1.2 1.2.7 1.7 2.4 6.2 5.3 13.7 3.1 7.9 4.8 12.7 5.3 14.6.5 1.2.5 2.4.5 2.9 0 2.2-1.9 1-6.2-3.8-.5-.7-.7-.2-.7 1 0 .5 1.2 15.4 3.4 45.1 2.2 29.5 3.1 46.1 3.1 49.9 0 11.3-1.7 21.4-5 30-1 1.7-1.4 2.9-1.9 3.8-.7 1.2-1 1.2-1.2.5-.2-1 0-2.9.2-5.5.5-4.1.7-8.6.7-13.7 0-4.8-1.2-24-3.6-57.8-2.5-33.9-3.7-52.8-3.7-56.9zm-9.6 90.7c0 14.2-2.6 25.2-7.7 33.4-4.3 6.7-9.4 10.3-15.1 10.3v-14.6c4.6 0 9.1-1.9 13.4-5.5 1.2-1 1.9-5 1.9-11.8 0-4.1-1.2-20.6-3.4-49.4-2.2-28.8-3.1-45.8-3.1-51.1 0-4.6-.7-8.4-2.2-11.5 0-1.7 1.4-5.8 4.1-12.2.2-.7.5-1 1-1 .2 0 .5.2 1 1.2.7 1.7 2.6 6.2 5.5 13.7 2.9 7.9 4.6 12.7 5.3 14.4.2 1.4.5 2.6.5 3.1 0 2.2-2.2 1-6.2-3.8-.5-.5-.7-.2-.7 1 0 .2 1 13.2 2.9 38.6 1.8 25 2.8 40.2 2.8 45.2z"/></svg>