<svg xmlns="http://www.w3.org/2000/svg" viewBox="0 0 533.1 215.4"><path d="M359.8 82.8c0 3.8-1.9 9.1-5.8 15.6-2.4 4.1-6 9.6-10.8 16.8 4.8 5.5 8.2 10.6 9.8 14.9 1 3.1 1.7 7.2 1.7 11.8 0 1.9-.5 4.3-1.4 7.4-.7 2.9-1.7 5-2.6 6.5-1.9 2.9-5 5.8-9.8 8.6-5 3.4-9.4 5-13 5-5.8 0-8.6-4.3-8.6-13 0-5.8 1-11.5 2.9-16.8 1.9-4.6 5-10.6 10.1-18.5-4.3-4.1-8.9-9.8-13.9-17-.5-.7-1.7-1.9-3.6-3.8-1-1-1.4-2.2-1.4-3.6 0-2.2.2-4.6.7-7.4.7-2.9 1.2-4.1 1.4-4.1.7 0 2.9 1.2 7 3.8 3.8 2.6 7 4.6 8.9 6.2 1.2.7 1.7 1.4 1.7 1.4v.2c0 .2-.7.5-2.4.5-3.1 0-4.8.2-4.8.5 0 .2.5.7 1.4 1.9 3.8 4.8 7.7 8.4 11.8 11.3 1-1.4 4.3-6.2 9.6-14.4 4.6-7 7.2-11.8 8.4-14.6 1.2-2.9 1.9-4.1 2.4-4.1 0 .1.3 1.5.3 4.9zm-9.4 59c-2.6-5.3-7.2-10.8-13.4-16.1-2.2 2.2-4.8 6.2-8.2 12-3.8 6.5-5.5 10.6-5.5 12.7 0 2.9 1.9 4.3 6.2 4.3 1.9 0 4.3-.7 7.4-1.9 4.3-1.9 8.4-4.6 11.8-7.9 1.5-1.4 2-2.4 1.7-3.1zm-13.4-77l3.8-7.9c.2-.5.5-.7 1-.7s2.4 1.2 6.2 3.8c3.6 2.4 5.5 3.8 5.5 4.3 0 1.7-1.7 5.3-4.8 10.6-.5.7-1 .7-1.4.5-3.1-2.4-6.7-4.8-10.8-7.4-1.4 2.9-2.6 5.5-4.1 7.7-.2.7-.7 1-1.2.7-3.6-2.9-7.4-5.5-11.3-7.9-.2-.2-.2-.5 0-1l4.6-9.6c.2-.5.7-1 1-1 .5 0 2.2 1.2 5.3 3.4 3.1 1.8 5.2 3.5 6.2 4.5zm126.5 133.9c-2.6.7-4.1 1.2-4.6 1.2v-.2s1-.7 2.9-1.9 4.8-3.1 8.9-6.2c1.9-1.9 4.8-5 8.4-9.4 2.4-2.9 5-5.5 7.9-7.4 3.6-2.6 7-3.8 10.6-3.8.7 0 1.9.2 3.4.7 1.2.5 2.4.7 3.4.7 1.9 0 3.4-.7 4.6-2.2.7-1.4 1.7-2.6 2.6-4.1.5-1 1.2-1.4 1.7-1.4.2 0 .2.2.2.7 0 .5-.2 1.7-.7 3.1-.5.7 1.4 1 5 1 .5 0 .7 0 .7-.2 0 0-.2-1-.7-2.6-.2-.5 0-1.2.7-2.2 1-1.7 1.4-2.4 1.7-2.2 1 .7 1.4 2.2 1.4 3.8 0 1.7-.5 3.4-1.2 5.3-.7 2.2-1.4 3.4-1.9 3.8-1.7 1-4.3.7-7.9-1-2.9 2.9-5.8 4.6-8.6 4.6-.7 0-1.9-.2-3.1-.7-1.2-.5-2.2-.7-2.9-.7-4.8 0-9.8 2.2-14.9 7l-10.8 10.8c-2.3 1.6-4.4 2.8-6.8 3.5zM412.1 69.1c2.9 0 5.3 1.4 7.4 4.8 2.2 3.1 3.8 7.4 4.6 12.7.2.5.2.7.2 1h.2c0-.2.2-.5.2-1 .5-3.1 1.7-7.9 3.4-14.2 1.9-4.3 3.8-6.5 6-6.5 1.2 0 2.4.7 3.4 2.2 1 1.4 1.4 2.4 1.4 3.4 0 .5 0 1.4-.5 2.4-.5 1.4-1 2.2-1.4 2.2-.2 0-.7-.7-1.7-1.7-.7-1-1.7-1.4-2.6-1.4-1.9 0-3.6 4.6-5.3 13.7-.7 4.1-1.7 7-2.4 8.6-.7 1-1.2 1.7-1.7 1.7s-.5-.7-.7-1.7c.2-1.7-.7-4.8-2.6-9.4-1.9-4.8-3.1-7-4.1-7-.5 0-.7 0-1 .5-.2.2-.5.5-1.2.5-1 0-1.9-.7-3.4-1.9-1.4-1.2-1.9-2.2-1.9-2.9 0-.2.5-1.4 1.7-3.4 1-1.9 1.8-2.6 2-2.6zM371.3 66c24.2-9.1 49.4-18.2 75.4-27.8.7-.2 1.2-.5 1.2-.2.2 0 .2.5 0 1.2-1 2.2-1.7 3.4-2.2 3.8-.2.2-12.5 4.8-36.2 13.7-24.2 8.9-37.9 14.4-40.6 16.1.5-2.3 1.2-4.4 2.4-6.8zm-23.5-43.9c.5-1.4.5-2.9.2-4.3-.2-1.4-1-2.2-2.2-2.2-.5 0-1.2.2-2.2.7-1 .5-1.4 1-1.4 1.4.1 1.2 2 2.7 5.6 4.4zm-2.9 6.2c-4.6-2.4-6.7-4.8-6.7-7.4 0-3.1 1.4-6 4.3-8.4 2.9-2.6 5.3-3.6 7.2-2.9 1.7.5 2.4 2.2 2.4 5 0 2.6-.5 5.5-1.7 8.9 2.4 1.2 3.8 2.4 4.3 3.4 0 1.2-1 3.4-3.1 6.2-.5-1-1.9-2.2-4.1-3.4-2.6 3.6-5.8 6.7-9.6 9.6-4.6 3.1-8.6 5.8-12.2 7.2-1 .5-5.3 2.2-13 5-1.2.5-2.2.7-2.4.7-.2 0-.2-.2-.2-.2 0-.2.5-1 1.9-1.7 5.8-3.6 11.5-7 17.5-10.3 7-4.3 12-8.1 15.4-11.7zm151.7 30c.5-1.4.5-2.9.2-4.3-.2-1.4-1-2.2-2.2-2.2-.5 0-1.2.2-2.2.7-1 .5-1.4 1-1.4 1.4.1 1.3 2 2.7 5.6 4.4zm5.3 8.9c-2.4 5.8-3.6 10.3-3.6 13.7 0 4.1 1 6.2 3.1 6.2 1.2 0 2.6-1.7 4.3-4.6.2-.2.2-.5.5-.7 0 0 .2 0 .2.2v.7c-1.4 7.2-3.6 10.8-6.5 10.8-3.1 0-4.6-2.6-4.6-7.9 0-2.6.5-6 1.9-10.3 1.4-4.3 2.2-6.5 2.2-6.7 0-.5-1-1.4-3.1-2.6-3.8 5-9.1 9.8-15.8 13.9-4.6 2.6-9.1 5-13.9 7-8.9 3.6-14.2 5.5-15.4 6.2-1.2.5-1.9.7-2.4.7-.2 0-.2-.2-.2-.2 0-.5.5-1 1.9-1.9 7.7-4.3 15.1-8.6 22.8-13 10.1-5.8 17-10.6 20.4-14.2-4.6-2.4-6.7-4.8-6.7-7.4 0-3.1 1.4-6 4.3-8.6 2.9-2.4 5.3-3.4 7.2-2.6 1.4.5 2.4 2.2 2.4 5 0 2.6-.5 5.5-1.7 8.6 2.4 1.4 3.4 2.9 3.4 4.3 0 .7-.3 1.9-.7 3.4zM392.7 32.4c0-.2.2-.5.2-.5.2-.2.2-.2.2 0 .2.2.2.5 0 .7-1.2 7.2-3.4 10.8-6.5 10.8s-4.6-2.6-4.6-7.9c0-6.5 1.7-13.4 5.5-20.4 1-1.7 1.4-2.6 1.7-2.6 0 .2-.2 1.2-.7 2.9-2.4 7.4-3.6 12.5-3.6 15.6 0 3.8 1 6 3.1 6 1.5-.1 3-1.7 4.7-4.6zm-13.2 83.7c-.5-2.2-1.2-3.8-2.2-5-.7-1.4-1.2-2.2-1.4-2.6 0-.5 0-2.2.5-5.5.5-3.1.7-5.3 1.2-6.5.2-1.2.5-1.7 1-1.7.2 0 .5.2 1 .7 3.4 3.8 7 7.7 11 11.8 1.7 1.7 2.4 2.6 2.4 3.1 0 .2-.2.5-.7.5-.7 0-2.6-.5-5.5-1.2 1.7 4.1 3.6 8.2 5.3 12 2.6 6.7 4.1 12.2 4.1 17.3 0 2.4-.5 5.3-1.4 8.9-1.2 4.1-2.6 7.2-4.6 9.4-7 7.9-18.7 16.6-35.3 25.9-14.4 8.4-22.8 12.5-25.4 12.5-.5 0-7.7 1.7-21.4 5-14.4 3.4-23.5 5.5-27.1 6-3.8.7-6.2 1-7.2 1-.5 0-.5 0-.5-.2s2.6-1.7 7.9-4.1c1.9-1 13-5.8 33.4-14.4 14.2-6 25.9-11.5 35.3-16.6 14.2-7.7 25-14.4 32.4-19.9 5.5-4.3 8.4-7.4 8.4-9.4 0-.5-1.4-3.8-4.3-10.1-3.3-7-5.7-12.8-6.9-16.9zm-358.6 9.4c0-.2.2-.5.2-.5.2-.2.2-.2.2 0 .2.2.2.5 0 .7-1.2 7.2-3.4 10.8-6.5 10.8s-4.6-2.6-4.6-7.9c0-6.5 1.7-13.4 5.5-20.4 1-1.7 1.4-2.6 1.7-2.6 0 .2-.2 1.2-.7 2.9-2.4 7.4-3.6 12.5-3.6 15.6 0 3.8 1 6 3.1 6 1.6 0 3-1.7 4.7-4.6zM161.8 204c-4.8 4.3-11.3 6.7-19 6.7-2.2 0-4.3-.7-5.8-1.9-1.4-1.2-2.2-2.9-2.2-4.8 0-3.4 1.2-6.7 4.1-10.1 2.9-3.1 5.8-6 8.4-9.1.7-.5.5-1-.5-1.4-1.9-.7-4.3-1-6.7-1-1.2 0-2.6.2-4.3 1.2-.2 0-.5.2-.7 0 0 0 0-.2.2-.7 1-2.4 1.9-4.1 2.9-4.8 1.2-1 3.1-1.4 5.8-1.4 5.8 0 8.4 1.2 8.4 4.1 0 2.2-1.7 5-5.3 9.1l-7.9 7.9c-1 1.4-1.4 2.9-1.4 3.8 0 2.4 2.6 3.6 7.7 3.6 5 0 10.1-1 15.8-2.6 1.4-.5 2.2-.5 2.2-.2 0-.1-.5.6-1.7 1.6zm79.7-20.4c2.9 0 5.3 1.4 7.4 4.8 2.2 3.1 3.8 7.4 4.6 12.7.2.5.2.7.2 1h.2c0-.2.2-.5.2-1 .5-3.1 1.7-7.9 3.4-14.2 1.9-4.3 3.8-6.5 6-6.5 1.2 0 2.4.7 3.4 2.2 1 1.4 1.4 2.4 1.4 3.4 0 .5 0 1.4-.5 2.4-.5 1.4-1 2.2-1.4 2.2-.2 0-.7-.7-1.7-1.7-.7-1-1.7-1.4-2.6-1.4-1.9 0-3.6 4.6-5.3 13.7-.7 4.1-1.7 7-2.4 8.6-.7 1-1.2 1.7-1.7 1.7s-.5-.7-.7-1.7c.2-1.7-.7-4.8-2.6-9.4-1.9-4.8-3.1-7-4.1-7-.5 0-.7 0-1 .5-.2.2-.5.5-1.2.5-1 0-1.9-.7-3.4-1.9-1.4-1.2-1.9-2.2-1.9-2.9 0-.2.5-1.4 1.7-3.4 1-1.9 1.7-2.6 2-2.6zm-33.6 15.6c0-.2.2-.5.2-.5.2-.2.2-.2.2 0 .2.2.2.5 0 .7-1.2 7.2-3.4 10.8-6.5 10.8s-4.6-2.6-4.6-7.9c0-6.5 1.7-13.4 5.5-20.4 1-1.7 1.4-2.6 1.7-2.6 0 .2-.2 1.2-.7 2.9-2.4 7.4-3.6 12.5-3.6 15.6 0 3.8 1 6 3.1 6 1.5-.1 3-1.7 4.7-4.6zM71.8 33.3c2.9 0 5.3 1.4 7.4 4.8 2.2 3.1 3.8 7.4 4.6 12.7.2.5.2.7.2 1h.2c0-.2.2-.5.2-1 .5-3.1 1.7-7.9 3.4-14.2 1.9-4.3 3.8-6.5 6-6.5 1.2 0 2.4.7 3.4 2.2 1 1.4 1.4 2.4 1.4 3.4 0 .5 0 1.4-.5 2.4-.5 1.4-1 2.2-1.4 2.2-.2 0-.7-.7-1.7-1.7-.7-1-1.7-1.4-2.6-1.4-1.9 0-3.6 4.6-5.3 13.7-.7 4.1-1.7 7-2.4 8.6-.7 1-1.2 1.7-1.7 1.7s-.5-.7-.7-1.7c.2-1.7-.7-4.8-2.6-9.4-1.9-4.8-3.1-7-4.1-7-.5 0-.7 0-1 .5-.2.2-.5.5-1.2.5-1 0-1.9-.7-3.4-1.9-1.4-1.2-1.9-2.2-1.9-2.9 0-.2.5-1.4 1.7-3.4 1-1.8 1.7-2.6 2-2.6zm-4.1 46.6c24.2-9.1 49.4-18.2 75.4-27.8.7-.2 1.2-.5 1.2-.2.2 0 .2.5 0 1.2-1 2.2-1.7 3.4-2.2 3.8-.2.2-12.5 4.8-36.2 13.7C81.7 79.5 68 85 65.3 86.7c.5-2.2 1.2-4.4 2.4-6.8zm-24.5 82.3c0-.2.2-.5.2-.5.2-.2.2-.2.2 0 .2.2.2.5 0 .7-1.2 7.2-3.4 10.8-6.5 10.8s-4.6-2.6-4.6-7.9c0-6.5 1.7-13.4 5.5-20.4 1-1.7 1.4-2.6 1.7-2.6 0 .2-.2 1.2-.7 2.9-2.4 7.4-3.6 12.5-3.6 15.6 0 3.8 1 6 3.1 6 1.6 0 3-1.7 4.7-4.6zM156.3 66c2.9 0 5.3 1.4 7.4 4.8 2.2 3.1 3.8 7.4 4.6 12.7.2.5.2.7.2 1h.2c0-.2.2-.5.2-1 .5-3.1 1.7-7.9 3.4-14.2 1.9-4.3 3.8-6.5 6-6.5 1.2 0 2.4.7 3.4 2.2 1 1.4 1.4 2.4 1.4 3.4 0 .5 0 1.4-.5 2.4-.5 1.4-1 2.2-1.4 2.2-.2 0-.7-.7-1.7-1.7-.7-1-1.7-1.4-2.6-1.4-1.9 0-3.6 4.6-5.3 13.7-.7 4.1-1.7 7-2.4 8.6-.7 1-1.2 1.7-1.7 1.7s-.5-.7-.7-1.7c.2-1.7-.7-4.8-2.6-9.4-1.9-4.8-3.1-7-4.1-7-.5 0-.7 0-1 .5-.2.2-.5.5-1.2.5-1 0-1.9-.7-3.4-1.9-1.4-1.2-1.9-2.2-1.9-2.9 0-.2.5-1.4 1.7-3.4 1-1.9 1.7-2.6 2-2.6zm-13.7-50.7c2.9 0 5.3 1.4 7.4 4.8 2.2 3.1 3.8 7.4 4.6 12.7.2.5.2.7.2 1h.2c0-.2.2-.5.2-1 .5-3.1 1.7-7.9 3.4-14.2 1.9-4.3 3.8-6.5 6-6.5 1.2 0 2.4.7 3.4 2.2 1 1.4 1.4 2.4 1.4 3.4 0 .5 0 1.4-.5 2.4-.5 1.4-1 2.2-1.4 2.2-.2 0-.7-.7-1.7-1.7-.7-1-1.7-1.4-2.6-1.4-1.9 0-3.6 4.6-5.3 13.7-.7 4.1-1.7 7-2.4 8.6-.7 1-1.2 1.7-1.7 1.7s-.5-.7-.7-1.7c.2-1.7-.7-4.8-2.6-9.4-1.9-4.8-3.1-7-4.1-7-.5 0-.7 0-1 .5-.2.2-.5.5-1.2.5-1 0-1.9-.7-3.4-1.9-1.4-1.2-1.9-2.2-1.9-2.9 0-.2.5-1.4 1.7-3.4 1-1.8 1.7-2.6 2-2.6zM246.7 42c0-.2.2-.5.2-.5.2-.2.2-.2.2 0 .2.2.2.5 0 .7-1.2 7.2-3.4 10.8-6.5 10.8s-4.6-2.6-4.6-7.9c0-6.5 1.7-13.4 5.5-20.4 1-1.7 1.4-2.6 1.7-2.6 0 .2-.2 1.2-.7 2.9-2.4 7.4-3.6 12.5-3.6 15.6 0 3.8 1 6 3.1 6 1.6-.1 3.1-1.7 4.7-4.6zm227.6 77.3c1.2-1 2.2-1.4 2.9-1.4.5 0 .7.5.7 1.4 0 .7-.2 2.2-.7 4.1-.5 1.9-.7 3.4-.7 4.6 0 5.3 3.8 8.2 11.3 8.2 6 0 11-2.6 14.9-7.7 2.4-4.1 5-7.9 7.4-11.8 1-1 1.7-1.4 2.4-1.4 1 0 1.2 1 .7 3.1-1 4.1-1.7 6-1.7 5.5 0 1.7 1 3.4 2.9 4.8 1.7 1.4 4.1 2.4 6.7 2.4 3.4 0 5.5-1 6.5-2.6 0-.2-1-2.2-3.1-5.8.2-1.9 1.2-5.3 2.6-9.8.2-1.4.7-2.2 1.2-2.2s1 .2 1.7 1.2c1.9 2.9 3.1 6.2 3.1 10.1 0 6-1.4 11-4.1 15.4-2.9 5.3-7.2 7.9-13 7.9-3.8 0-7.4-3.1-10.6-8.9-5.3 9.6-12.2 14.4-20.6 14.4-10.1 0-14.9-5.8-14.9-16.8-3.8 4.6-10.3 8.6-18.7 12.5v-13.2c6.2-3.1 10.3-5 11.5-5.8 3.9-2 7.7-4.9 11.6-8.2zm-36.8 15.8c-3.6-4.6-6.7-6.7-9.6-6.7-4.3 0-6.2 1-6.2 3.4 0 2.9 2.9 4.3 8.6 4.3 2.2 0 4.6-.5 7.2-1zm7.5 17.5c0-1.4-.5-3.1-1-4.8-2.9 1-7.2 1.7-12.5 1.7-11.5 0-17.3-4.1-17.3-12 0-6 1.7-11.3 5.5-16.1 3.6-4.1 7.4-6.2 11.5-6.2 3.1 0 6.2 1.9 9.8 5.5 3.1 3.6 6 7.7 8.4 12.7.2 0 .7 0 1.7-.5v13.2l-.5.5c0 2.9-.7 6.2-2.2 10.6-1.7 5.5-4.3 10.1-7.4 13.7-7.2 8.6-15.1 16.1-23.8 22.6-13 9.6-24 14.6-33.6 14.6-8.2 0-14.4-3.1-18.7-9.1-3.8-5-5.8-11.8-5.8-19.7 0-10.1 2.2-20.4 6.2-31.2 1.2-2.4 1.7-3.4 2.2-3.4.2 0 .2.2.2.7 0 .7-.2 1.9-.5 3.4-3.1 10.6-4.6 18.5-4.6 24 0 5 1.2 9.4 3.6 13 3.8 5 9.8 7.7 18.2 7.7 7.2 0 15.8-3.1 26.2-9.4 8.2-5 16.1-11 23.8-18.2 7-6.8 10.6-11.1 10.6-13.3zM0 179c0-16.1 3.8-30.5 11.5-42.5 1.7-2.4 2.6-3.6 3.4-3.6.2 0 .2.2.2.5 0 .7-.5 2.2-1.2 4.1-6.2 13-9.1 24-9.1 32.6 0 7.7 1.9 14.4 6 19.7 5.3 7.2 13.4 10.8 24.5 10.8 8.2 0 18.2-2.4 30.5-7.2 9.1-3.8 18.5-8.4 27.6-13.9 8.2-4.8 12.2-7.9 12.2-8.9 0-1.4-5.8-3.6-16.8-6.7-7.7-1.9-15.4-4.1-22.8-6.2-1.9-.7-2.6-1.9-2.2-3.6.2-1.7.7-4.1 1.7-7.4h15.1c13 3.6 21.4 6.2 24.7 8.2 4.3 2.2 6.5 5.3 6.5 9.1 0 2.9-1 6.2-2.9 10.1-2.2 4.8-5 8.6-8.6 12-7.2 6.2-17.8 12.7-32.2 19-14.9 7-26.6 10.3-35 10.3-11.5 0-20.2-3.8-25.9-11.5C2.4 197.5 0 189.3 0 179zm211-92.1c-.2-.2-.2-.5 0-1l4.6-9.6c.2-.5.7-.7 1-.7.5 0 2.6 1.2 6.2 3.6 3.8 2.6 5.8 4.1 5.8 4.6 0 1.7-1.7 5-5 10.3-.5.7-.7 1-1.2.7-3.7-2.9-7.6-5.5-11.4-7.9zm12.5-32.4c0 1.9-.5 4.1-1.4 6-1.2 2.6-2.6 4.1-4.3 4.1-2.9 0-4.8-1.9-6-5.8-1.4 4.8-3.8 7.4-7.4 7.4-1.2 0-2.4-.7-3.4-2.2-1.2-1.4-1.7-3.6-1.7-6v-6.2c0-.5-.5-.7-1-1-.7-.2-1-.7-1-1.4 0-1.4.5-2.6 1.4-3.8 1-1.2 1.7-1.7 2.2-1.7.7 0 1.2 1.2 1.2 3.8 0 1.4-.2 2.6-.2 3.6-.2 1-.2 1.7-.2 2.4 0 1.4.2 2.9.7 4.1.7 1.4 1.7 2.4 2.6 2.4 1.4 0 2.6-.7 3.8-1.9 1.2-1.2 1.9-2.6 1.9-4.3 0-1-.5-2.4-1-4.8-.7-2.2-1-3.6-1-4.1 0-.5.2-1.2.7-2.4.5-1 1-1.4 1.2-1.4.5 0 1 1.4 1.7 4.3.7 3.1 1.2 5.3 1.2 6.7 0 4.1 1.4 6.2 4.6 6.2 1.4 0 2.4-.7 2.6-2.2-2.6-4.8-4.1-8.4-4.1-11 0-1.4.2-2.6 1.2-3.8.5-.7.7-1.2 1-1.2.2 0 .5.5.5 1.4.2 1.2.5 2.4.7 3.4 0 0 .7 1.7 1.9 5 1.1 2 1.6 3.4 1.6 4.4zm-12-41.1c.5-1.4.5-2.9.2-4.3-.2-1.4-1-2.2-2.2-2.2-.5 0-1.2.2-2.2.7-1 .5-1.4 1-1.4 1.4 0 1.3 2 2.7 5.6 4.4zm-2.9 6.3c-4.6-2.4-6.7-4.8-6.7-7.4 0-3.1 1.4-6 4.3-8.4 2.9-2.6 5.3-3.6 7.2-2.9 1.7.5 2.4 2.2 2.4 5 0 2.6-.5 5.5-1.7 8.9 2.4 1.2 3.8 2.4 4.3 3.4 0 1.2-1 3.4-3.1 6.2-.5-1-1.9-2.2-4.1-3.4-2.6 3.6-5.8 6.7-9.6 9.6-4.6 3.1-8.6 5.8-12.2 7.2-1 .5-5.3 2.2-13 5-1.2.5-2.2.7-2.4.7-.2 0-.2-.2-.2-.2 0-.2.5-1 1.9-1.7 5.8-3.6 11.5-7 17.5-10.3 7-4.3 12-8.1 15.4-11.7zM37.5 98.6c-.7 1.2-1 1.9-1.4 1.9-.5 0-.5-1-.2-2.4.2-1.2.5-3.1.5-5 0-7-3.8-13.7-11.8-20.6-.5-.2-.5-1 0-1.4l2.2-3.8c.2-.5.5-.5 1 0 7.7 5.5 11.5 13.2 11.5 22.8-.2 3-.9 5.9-1.8 8.5zM151 116.4c-5.3-2.2-13.7-4.6-25.2-7.4-14.4-3.4-26.2-5-34.8-5-7.2 0-10.6.5-10.6 1.4 0 .7 1 1.9 3.1 3.6 4.1 3.4 7.9 6.5 12 9.8 6 4.8 9.6 8.4 11.3 10.6 15.6-5.6 30.5-9.9 44.2-13zm-43.9 28.1c0 5.5-.5 8.4-1.2 8.4s-1.7-2.9-3.4-8.2c-.5-1.2-1-1.7-1.4-1.4-5 2.4-11.3 5.3-18.5 8.4l-17-5c.2-1 3.8-2.6 11-5.5 10.6-4.1 17-6.7 19.9-7.9-.7-.7-4.3-3.6-10.6-8.6-5.5-4.3-8.9-7.9-10.3-10.3-1.4-2.4-2.2-4.8-2.2-7.4 0-4.3 1.7-8.2 5.3-11.5 3.8-3.4 8.4-4.8 13.9-4.8 9.8 0 25.7 2.6 47.5 7.9 1 .2 12.5 3.4 34.6 9.4 1.2.2 1.4 1.2 1 2.4l-3.4 9.8c-.5 1.2-.7 1.9-1 2.2-.2.2-.7.5-1.2.7-16.1 3.8-36.7 9.8-62.4 18.2-.4 0-.6 1-.6 3.2zm30.2 6.2v14.6c-7.9 0-13-3.1-15.4-9.4-1-2.2-1.2-4.8-1.2-8.2 0-2.2.2-4.6.7-7.4.5-4.1 1.2-6 2.4-6 .5 0 .7 1 1 3.1v3.8c.5 3.4 1.4 5.8 3.4 7.2 1.7 1.6 4.8 2.3 9.1 2.3zM247 133.2v-.5c0-2.2-2.4-5.3-7.4-9.1-5.8-4.6-11.5-6.7-17-6.7-12 0-24.5 12.2-37.4 37.2 3.1 1.2 7.2 1.9 12.5 1.9 9.4 0 19.4-2.9 30.5-8.6 9.7-4.9 15.9-9.7 18.8-14.2zm-67.7 33.3c-1.9 5.8-3.6 8.6-4.6 8.6-.2 0-.5-.5-.5-1.2 0-1.9.7-4.8 1.9-8.6-5.8-3.6-8.6-9.1-8.6-16.8-4.1 4.1-8.6 7.7-13.7 10.8-6.2 3.8-11.8 6-16.6 6v-14.6c10.3 0 21.6-5 33.6-14.6.7-.5 1.2-.5 1.7-.2.2.2.5 1 0 1.9-.5 1.7-.7 3.1-.7 4.3 0 3.8 2.9 7.4 8.9 10.3 8.2-15.4 14.4-25.9 18.5-31.4 9.1-11.8 17.8-17.8 26.2-17.8 7.7 0 14.4 2.9 20.2 8.4 4.8 4.6 7 8.9 7 12.7 0 4.8-.7 8.9-2.4 12.2-1.9 4.1-5.3 8.6-10.1 13.2 3.4-1 8.6-2.9 16.1-6v13.2c-19.7 8.4-39.8 12.7-60.2 12.7-5.7.1-11.2-1.1-16.7-3.1zM288.7 33.6c0-4.8-.7-8.6-2.2-11.8 0-1.7 1.2-5.8 4.1-12 .2-.7.5-1.2.7-1.2.5 0 .7.5 1.2 1.2.7 1.7 2.4 6.2 5.3 13.7 3.1 7.9 4.8 12.7 5.3 14.6.5 1.2.5 2.4.5 2.9 0 2.2-1.9 1-6.2-3.8-.5-.7-.7-.2-.7 1 0 .5 1.2 15.4 3.4 45.1 2.2 29.5 3.1 46.1 3.1 49.9 0 11.3-1.7 21.4-5 30-1 1.7-1.4 2.9-1.9 3.8-.7 1.2-1 1.2-1.2.5-.2-1 0-2.9.2-5.5.5-4.1.7-8.6.7-13.7 0-4.8-1.2-24-3.6-57.8-2.5-33.9-3.7-52.8-3.7-56.9zM264 24.7c0-4.6-.7-8.4-2.2-11.5 0-1.7 1.2-5.8 4.1-12.2.2-.7.5-1 .7-1 .5 0 .7.2 1.2 1.2.7 1.7 2.6 6.2 5.5 13.7 2.9 7.9 4.6 12.7 5.3 14.4.2 1.4.5 2.6.5 3.1 0 2.2-2.2 1-6.2-3.8-.5-.5-.7-.2-.7 1 0 .2 1 13.2 2.9 38.6 1.9 25.2 2.9 40.3 2.9 45.4 0 7.9-1.4 15.6-4.3 23-4.1 10.3-10.1 17.3-17.8 20.6V144c9.6-4.1 14.6-10.3 14.6-18.7 0-4.1-1.2-20.6-3.4-49.4C265 47 264 30 264 24.7z"/></svg>